<svg width="454" height="453" viewBox="0 0 454 453" fill="none" xmlns="http://www.w3.org/2000/svg">
<g clip-path="url(#clip0_555_2817)">
<path d="M98.0046 90.9767C98.7549 85.5327 91.0722 81.0495 85.3001 80.5891C82.5492 80.369 79.6882 80.7893 77.0772 79.8786C71.4252 77.9072 69.1745 70.6019 63.6525 68.2802C59.5311 66.5389 54.7894 68.09 50.788 70.1015C46.7966 72.113 42.8452 74.6448 38.3736 74.935C34.4922 75.1852 30.2707 73.7442 26.8795 75.6455C24.3487 77.0566 23.0182 79.9787 20.6874 81.7C18.4066 83.3812 15.4255 83.7414 12.5945 83.8916C9.77352 84.0317 6.84248 84.0617 4.26157 85.2425C1.68066 86.4234 -0.450089 89.1554 0.0800983 91.9374L98.0046 90.9767Z" fill="#EBEBEB"/>
<path d="M141.89 17.3231C142.4 13.6003 137.148 10.5381 133.197 10.2179C131.316 10.0678 129.356 10.358 127.575 9.72752C123.714 8.37654 122.163 3.3829 118.402 1.79174C115.581 0.600875 112.34 1.66165 109.609 3.03265C106.878 4.40365 104.177 6.13491 101.126 6.33505C98.4746 6.50518 95.5836 5.52446 93.2628 6.8154C91.5322 7.78611 90.6219 9.77756 89.0313 10.9584C87.4708 12.1093 85.43 12.3494 83.4994 12.4595C81.5587 12.5696 79.558 12.5796 77.7973 13.3902C76.0367 14.2008 74.5762 16.0621 74.9363 17.9735L141.89 17.3231Z" fill="#EBEBEB"/>
<path d="M390.598 349.005C390.498 349.135 389.628 348.615 388.667 347.844C387.697 347.074 387.007 346.343 387.107 346.213C387.207 346.083 388.077 346.604 389.037 347.374C389.998 348.145 390.698 348.875 390.598 349.005Z" fill="#D0F4ED"/>
<path d="M416.927 309.636C417.087 305.954 417.187 302.181 416.027 298.689C414.867 295.196 412.176 291.984 408.564 291.233C404.453 290.382 400.231 292.974 397.931 296.487C395.63 299.999 394.83 304.263 394.149 308.416C389.458 336.986 387.727 366.048 388.988 394.979L405.823 397.34C413.226 367.128 415.587 340.719 416.927 309.636Z" fill="#3BD0B3"/>
<path d="M406.233 291.102C406.243 291.102 406.213 291.202 406.153 291.372C406.073 291.582 405.983 291.832 405.873 292.132C405.603 292.843 405.223 293.814 404.753 295.044C404.523 295.675 404.203 296.365 403.953 297.146C403.703 297.937 403.432 298.787 403.132 299.698C402.832 300.618 402.522 301.589 402.192 302.63C401.922 303.691 401.632 304.802 401.322 305.972C400.051 310.636 399.001 316.31 398.071 322.635C397.16 328.969 396.56 335.984 396.09 343.35C395.23 358.1 395.1 371.49 394.719 381.177C394.539 386.021 394.369 389.934 394.189 392.646C394.099 393.956 394.029 394.997 393.979 395.758C393.949 396.088 393.929 396.348 393.909 396.568C393.889 396.749 393.879 396.839 393.869 396.839C393.859 396.839 393.849 396.748 393.849 396.558C393.849 396.338 393.859 396.078 393.859 395.748C393.879 394.987 393.919 393.946 393.959 392.625C394.069 389.924 394.169 386.001 394.299 381.157C394.569 371.47 394.639 358.08 395.5 343.3C395.97 335.914 396.59 328.889 397.53 322.544C398.491 316.2 399.591 310.516 400.922 305.852C401.242 304.681 401.542 303.571 401.832 302.51C402.182 301.479 402.512 300.498 402.822 299.588C403.132 298.677 403.422 297.826 403.693 297.046C403.963 296.265 404.293 295.585 404.543 294.954C405.063 293.743 405.473 292.783 405.773 292.082C405.903 291.782 406.013 291.542 406.103 291.342C406.183 291.182 406.223 291.102 406.233 291.102Z" fill="#D0F4ED"/>
<path d="M407.794 291.113C407.794 291.113 408.824 292.174 409.855 294.596C410.915 296.998 411.575 300.82 411.385 305.494C410.935 314.801 410.105 327.62 408.994 341.78C407.884 355.941 406.643 368.74 405.653 377.987C405.153 382.61 404.723 386.353 404.413 388.935C404.253 390.185 404.123 391.176 404.033 391.907C403.983 392.217 403.953 392.467 403.923 392.677C403.892 392.847 403.872 392.937 403.862 392.937C403.852 392.937 403.852 392.847 403.862 392.667C403.872 392.457 403.892 392.197 403.912 391.887C403.983 391.156 404.073 390.155 404.183 388.905C404.433 386.263 404.793 382.53 405.233 377.937C406.113 368.68 407.284 355.88 408.394 341.72C409.504 327.57 410.405 314.751 410.955 305.474C411.195 300.84 410.605 297.078 409.625 294.686C408.694 292.274 407.724 291.163 407.794 291.113Z" fill="#D0F4ED"/>
<path d="M419.458 334.694C419.398 334.854 417.977 334.484 416.267 333.874C414.556 333.263 413.226 332.643 413.276 332.483C413.336 332.323 414.756 332.693 416.467 333.303C418.178 333.914 419.518 334.544 419.458 334.694Z" fill="#D0F4ED"/>
<path d="M421.489 317.532C421.559 317.682 420.198 318.443 418.458 319.223C416.717 320.004 415.246 320.514 415.176 320.364C415.106 320.214 416.467 319.453 418.207 318.673C419.958 317.892 421.419 317.382 421.489 317.532Z" fill="#D0F4ED"/>
<path d="M420.438 303.532C420.428 303.702 419.308 303.752 417.927 303.662C416.557 303.572 415.447 303.352 415.457 303.192C415.467 303.022 416.587 302.972 417.968 303.062C419.348 303.152 420.448 303.362 420.438 303.532Z" fill="#D0F4ED"/>
<path d="M403.072 294.554C402.932 294.644 402.192 293.724 401.422 292.503C400.652 291.282 400.141 290.221 400.281 290.131C400.421 290.041 401.162 290.962 401.932 292.183C402.702 293.403 403.212 294.464 403.072 294.554Z" fill="#D0F4ED"/>
<path d="M397.33 303.021C397.33 303.191 396.26 303.301 394.939 303.271C393.619 303.241 392.559 303.081 392.559 302.921C392.559 302.751 393.629 302.641 394.949 302.671C396.27 302.701 397.33 302.861 397.33 303.021Z" fill="#D0F4ED"/>
<path d="M393.209 319.974C393.149 320.124 392.019 319.824 390.698 319.284C389.368 318.743 388.347 318.193 388.407 318.033C388.467 317.883 389.598 318.183 390.918 318.723C392.249 319.254 393.269 319.814 393.209 319.974Z" fill="#D0F4ED"/>
<path d="M392.769 334.225C392.799 334.385 391.849 334.725 390.628 334.985C389.408 335.245 388.397 335.315 388.367 335.155C388.337 334.995 389.288 334.655 390.508 334.395C391.719 334.134 392.739 334.054 392.769 334.225Z" fill="#D0F4ED"/>
<path d="M390.828 357.531C390.858 357.691 389.838 358.011 388.557 358.241C387.277 358.471 386.206 358.521 386.176 358.361C386.146 358.201 387.167 357.881 388.447 357.651C389.738 357.421 390.798 357.371 390.828 357.531Z" fill="#D0F4ED"/>
<path d="M389.538 370.401C389.618 370.551 388.767 371.151 387.647 371.742C386.527 372.332 385.546 372.702 385.466 372.552C385.386 372.402 386.236 371.802 387.367 371.211C388.487 370.621 389.468 370.251 389.538 370.401Z" fill="#D0F4ED"/>
<path d="M400.041 385.011C399.901 385.091 399.161 384.07 398.391 382.729C397.62 381.388 397.12 380.227 397.26 380.147C397.4 380.067 398.141 381.088 398.911 382.429C399.681 383.77 400.191 384.92 400.041 385.011Z" fill="#D0F4ED"/>
<path d="M403.072 360.732C403.193 360.853 402.362 361.843 401.232 362.954C400.101 364.065 399.091 364.865 398.971 364.755C398.851 364.635 399.681 363.645 400.812 362.534C401.952 361.423 402.962 360.612 403.072 360.732Z" fill="#D0F4ED"/>
<path d="M402.402 348.004C402.282 348.114 401.512 347.494 400.692 346.603C399.871 345.713 399.301 344.902 399.421 344.792C399.541 344.682 400.312 345.302 401.132 346.193C401.962 347.074 402.532 347.884 402.402 348.004Z" fill="#D0F4ED"/>
<path d="M404.493 331.733C404.613 331.843 403.933 332.814 402.962 333.894C401.992 334.975 401.102 335.766 400.982 335.656C400.861 335.546 401.542 334.575 402.512 333.494C403.482 332.403 404.363 331.613 404.493 331.733Z" fill="#D0F4ED"/>
<path d="M405.663 319.913C405.543 320.033 404.593 319.282 403.523 318.232C402.452 317.181 401.692 316.24 401.802 316.12C401.922 316 402.872 316.75 403.943 317.801C405.013 318.852 405.783 319.803 405.663 319.913Z" fill="#D0F4ED"/>
<path d="M407.964 303.952C408.104 304.032 407.624 305.103 406.894 306.344C406.153 307.575 405.443 308.515 405.303 308.425C405.163 308.345 405.643 307.274 406.373 306.034C407.114 304.803 407.824 303.872 407.964 303.952Z" fill="#D0F4ED"/>
<path d="M412.305 289.161C412.456 289.241 412.025 290.312 411.355 291.553C410.685 292.794 410.025 293.734 409.875 293.654C409.725 293.574 410.155 292.503 410.825 291.263C411.495 290.022 412.155 289.081 412.305 289.161Z" fill="#D0F4ED"/>
<path d="M417.217 295.876C417.287 296.026 416.617 296.496 415.717 296.927C414.817 297.357 414.026 297.587 413.956 297.437C413.886 297.287 414.556 296.817 415.457 296.386C416.357 295.956 417.147 295.726 417.217 295.876Z" fill="#D0F4ED"/>
<path d="M417.337 349.005C417.307 349.165 415.777 348.955 414.046 348.205C412.306 347.464 411.105 346.513 411.195 346.383C411.285 346.243 412.606 346.944 414.286 347.654C415.957 348.375 417.377 348.845 417.337 349.005Z" fill="#D0F4ED"/>
<path d="M415.327 360.263C415.357 360.423 414.347 360.763 413.066 361.003C411.786 361.253 410.715 361.323 410.685 361.153C410.655 360.993 411.666 360.653 412.946 360.413C414.236 360.163 415.297 360.103 415.327 360.263Z" fill="#D0F4ED"/>
<path d="M412.856 379.556C412.756 379.687 411.475 378.796 410.295 377.305C409.104 375.814 408.544 374.363 408.684 374.293C408.834 374.213 409.614 375.494 410.765 376.925C411.895 378.366 412.966 379.426 412.856 379.556Z" fill="#D0F4ED"/>
<path d="M385.796 388.383C385.686 388.253 386.376 387.492 387.327 386.682C388.277 385.871 389.137 385.311 389.247 385.441C389.357 385.571 388.667 386.331 387.717 387.142C386.767 387.952 385.906 388.503 385.796 388.383Z" fill="#D0F4ED"/>
<path d="M378.023 346.273C376.933 342.85 374.872 338.857 371.281 338.807C369.15 338.777 367.23 340.308 366.229 342.19C365.229 344.071 364.799 346.253 364.869 348.384C365.279 362.464 367.72 378.566 372.591 393.237H385.736C385.556 376.935 382.985 361.784 378.023 346.273Z" fill="#14C6A4"/>
<path d="M354.255 324.728C352.414 317.382 346.943 313.409 340.57 313.039C334.758 314.06 332.507 319.784 331.817 325.638C331.127 331.493 332.948 337.327 334.738 342.951C340.5 360.994 346.272 379.037 352.034 397.08C357.486 396.49 362.938 395.889 368.38 395.299C363.218 371.121 360.247 348.715 354.255 324.728Z" fill="#14C6A4"/>
<path d="M371.281 338.807C371.341 338.847 370.741 339.397 370.171 340.668C369.6 341.939 369.33 343.98 369.56 346.482C369.81 348.984 370.101 351.986 370.521 355.289C370.951 358.591 371.541 362.214 372.281 365.986C373.772 373.542 375.442 380.317 376.503 385.26C377.043 387.732 377.443 389.734 377.703 391.125C377.813 391.765 377.903 392.296 377.973 392.726C378.033 393.096 378.053 393.286 378.033 393.296C378.013 393.296 377.953 393.116 377.863 392.756C377.763 392.326 377.633 391.805 377.483 391.175C377.133 389.714 376.663 387.742 376.093 385.361C374.922 380.447 373.182 373.682 371.691 366.107C370.951 362.324 370.371 358.681 369.971 355.359C369.76 353.697 369.62 352.116 369.49 350.635C369.37 349.164 369.21 347.783 369.14 346.512C368.96 343.98 369.31 341.859 369.971 340.578C370.621 339.287 371.281 338.807 371.281 338.807Z" fill="#E0E0E0"/>
<path d="M340.81 312.568C340.87 312.618 339.94 313.399 338.84 315.22C337.739 317.022 336.569 319.974 336.349 323.777C336.099 327.579 336.949 332.103 338.369 336.946C339.81 341.81 341.381 347.154 343.031 352.758C346.292 363.966 349.243 374.113 351.404 381.529C352.434 385.171 353.275 388.143 353.875 390.265C354.145 391.256 354.355 392.046 354.515 392.647C354.655 393.197 354.715 393.487 354.695 393.487C354.675 393.497 354.575 393.217 354.395 392.677C354.205 392.086 353.955 391.306 353.645 390.325C352.995 388.213 352.094 385.261 350.994 381.639C348.793 374.233 345.782 364.106 342.461 352.918C340.82 347.304 339.26 341.96 337.839 337.086C336.439 332.213 335.618 327.619 335.929 323.736C336.199 319.864 337.459 316.882 338.64 315.08C339.82 313.289 340.81 312.568 340.81 312.568Z" fill="#E0E0E0"/>
<path d="M364.829 393.547C364.809 393.557 364.679 393.287 364.459 392.767C364.249 392.246 363.898 391.476 363.528 390.465C362.748 388.454 361.748 385.491 360.717 381.779C359.677 378.066 358.657 373.583 357.666 368.589C356.716 363.585 355.676 358.091 354.585 352.317C353.445 346.563 352.184 341.109 350.714 336.246C349.243 331.382 347.603 327.109 345.942 323.646C344.292 320.184 342.721 317.492 341.531 315.701C340.97 314.78 340.46 314.119 340.15 313.649C339.83 313.179 339.68 312.929 339.69 312.909C339.71 312.899 339.9 313.129 340.24 313.569C340.58 314.029 341.12 314.67 341.711 315.57C342.961 317.332 344.602 320.004 346.302 323.466C348.023 326.929 349.713 331.212 351.214 336.095C352.725 340.969 354.005 346.443 355.145 352.207C356.216 357.981 357.246 363.475 358.176 368.489C359.137 373.483 360.107 377.956 361.087 381.679C362.068 385.391 362.998 388.363 363.708 390.395C364.038 391.416 364.359 392.196 364.529 392.727C364.759 393.247 364.849 393.537 364.829 393.547Z" fill="#E0E0E0"/>
<path d="M335.038 340.249C335.078 340.409 334.188 340.769 333.048 341.039C331.907 341.32 330.957 341.41 330.917 341.25C330.877 341.089 331.767 340.729 332.908 340.459C334.048 340.179 334.998 340.089 335.038 340.249Z" fill="#E0E0E0"/>
<path d="M333.308 329.081C333.298 329.251 332.067 329.321 330.547 329.381C329.036 329.441 327.796 329.471 327.776 329.301C327.756 329.141 328.976 328.84 330.527 328.78C332.067 328.72 333.318 328.921 333.308 329.081Z" fill="#E0E0E0"/>
<path d="M335.148 318.892C335.038 319.023 334.148 318.442 333.168 317.602C332.177 316.761 331.467 315.98 331.577 315.85C331.687 315.72 332.578 316.301 333.558 317.141C334.538 317.982 335.258 318.762 335.148 318.892Z" fill="#E0E0E0"/>
<path d="M340.13 309.446C340.3 309.486 340.25 310.277 340.23 311.237C340.2 312.198 340.2 312.999 340.03 313.019C339.87 313.049 339.6 312.248 339.63 311.217C339.66 310.197 339.98 309.416 340.13 309.446Z" fill="#E0E0E0"/>
<path d="M350.324 313.899C350.464 313.999 350.064 314.799 349.433 315.7C348.803 316.601 348.183 317.251 348.053 317.151C347.913 317.051 348.313 316.251 348.943 315.35C349.573 314.449 350.194 313.799 350.324 313.899Z" fill="#E0E0E0"/>
<path d="M356.946 325.386C357.006 325.537 356.166 326.027 355.055 326.487C353.945 326.938 353.005 327.178 352.935 327.028C352.875 326.878 353.715 326.387 354.825 325.927C355.926 325.477 356.876 325.236 356.946 325.386Z" fill="#E0E0E0"/>
<path d="M360.957 337.216C361.027 337.366 359.907 338.006 358.366 338.346C356.826 338.697 355.545 338.607 355.535 338.446C355.525 338.276 356.756 338.096 358.226 337.766C359.707 337.436 360.887 337.055 360.957 337.216Z" fill="#E0E0E0"/>
<path d="M342.531 333.863C342.371 333.813 342.491 332.993 342.791 332.042C343.091 331.081 343.461 330.351 343.621 330.401C343.781 330.451 343.661 331.272 343.361 332.222C343.061 333.173 342.691 333.913 342.531 333.863Z" fill="#E0E0E0"/>
<path d="M345.102 348.704C344.952 348.634 345.282 347.533 345.842 346.242C346.402 344.951 346.982 343.96 347.132 344.02C347.282 344.09 346.952 345.191 346.392 346.482C345.832 347.783 345.252 348.774 345.102 348.704Z" fill="#E0E0E0"/>
<path d="M338.749 352.768C338.689 352.928 337.649 352.638 336.398 352.247C335.148 351.857 334.128 351.497 334.168 351.327C334.198 351.167 335.298 351.267 336.578 351.667C337.859 352.077 338.819 352.618 338.749 352.768Z" fill="#E0E0E0"/>
<path d="M342.411 364.876C342.511 365.016 341.811 365.677 340.85 366.367C339.89 367.058 339.03 367.498 338.94 367.368C338.84 367.228 339.54 366.567 340.5 365.877C341.461 365.186 342.321 364.746 342.411 364.876Z" fill="#E0E0E0"/>
<path d="M345.352 376.945C345.392 377.105 344.521 377.455 343.421 377.725C342.311 377.995 341.38 378.085 341.34 377.925C341.3 377.765 342.17 377.415 343.271 377.145C344.381 376.874 345.312 376.784 345.352 376.945Z" fill="#E0E0E0"/>
<path d="M361.277 347.304C361.357 347.444 360.617 348.034 359.537 348.435C358.456 348.845 357.516 348.885 357.486 348.725C357.456 348.555 358.306 348.255 359.327 347.864C360.357 347.494 361.187 347.154 361.277 347.304Z" fill="#E0E0E0"/>
<path d="M363.548 366.078C363.478 366.228 362.598 365.958 361.578 365.477C360.557 364.997 359.787 364.487 359.867 364.336C359.937 364.186 360.817 364.457 361.838 364.937C362.858 365.417 363.628 365.928 363.548 366.078Z" fill="#E0E0E0"/>
<path d="M367.57 379.517C367.51 379.667 366.339 379.357 364.969 378.816C363.588 378.276 362.528 377.715 362.588 377.555C362.648 377.405 363.818 377.715 365.189 378.256C366.559 378.796 367.63 379.357 367.57 379.517Z" fill="#E0E0E0"/>
<path d="M345.992 390.045C345.912 389.895 346.982 389.175 348.223 388.194C349.463 387.223 350.424 386.352 350.544 386.463C350.664 386.563 349.883 387.653 348.593 388.664C347.302 389.685 346.062 390.185 345.992 390.045Z" fill="#E0E0E0"/>
<path d="M356.616 383.209C356.446 383.229 356.216 382.328 355.805 381.278C355.405 380.227 354.965 379.406 355.105 379.306C355.235 379.206 355.925 379.927 356.366 381.067C356.806 382.198 356.776 383.199 356.616 383.209Z" fill="#E0E0E0"/>
<path d="M353.795 367.049C353.695 367.179 353.015 366.859 352.264 366.318C351.514 365.778 350.984 365.237 351.084 365.097C351.184 364.967 351.864 365.287 352.614 365.828C353.365 366.368 353.895 366.919 353.795 367.049Z" fill="#E0E0E0"/>
<path d="M378.554 341.729C378.654 341.859 377.984 342.52 377.063 343.2C376.143 343.881 375.313 344.321 375.213 344.191C375.112 344.061 375.783 343.4 376.703 342.72C377.623 342.029 378.454 341.589 378.554 341.729Z" fill="#E0E0E0"/>
<path d="M382.285 351.927C382.305 352.087 381.254 352.307 379.964 352.167C378.673 352.027 377.693 351.586 377.743 351.436C377.793 351.276 378.793 351.436 380.024 351.566C381.254 351.706 382.275 351.756 382.285 351.927Z" fill="#E0E0E0"/>
<path d="M366.249 354.218C366.289 354.378 365.319 354.728 364.068 354.808C362.818 354.898 361.807 354.678 361.827 354.518C361.837 354.348 362.828 354.288 364.028 354.208C365.229 354.128 366.209 354.048 366.249 354.218Z" fill="#E0E0E0"/>
<path d="M367.62 344.571C367.61 344.731 366.629 344.761 365.559 344.261C364.489 343.771 363.868 343.01 363.978 342.9C364.098 342.77 364.829 343.27 365.809 343.72C366.789 344.161 367.65 344.401 367.62 344.571Z" fill="#E0E0E0"/>
<path d="M383.665 362.885C383.575 363.025 382.575 362.554 381.425 361.834C380.274 361.113 379.414 360.413 379.504 360.273C379.594 360.133 380.594 360.603 381.745 361.323C382.895 362.044 383.746 362.745 383.665 362.885Z" fill="#E0E0E0"/>
<path d="M422.799 391.516H337.229V406.687H422.799V391.516Z" fill="#9F79D2"/>
<path d="M343.621 403.674L354.025 449.017H405.023L416.407 403.674H343.621Z" fill="#9F79D2"/>
<path d="M422.749 406.706C422.749 406.877 403.452 407.007 379.644 407.007C355.835 407.007 336.539 406.877 336.539 406.706C336.539 406.536 355.835 406.406 379.644 406.406C403.442 406.406 422.749 406.546 422.749 406.706Z" fill="#EBEBEB"/>
<path d="M375.162 354.548C375.022 354.638 374.432 353.958 373.852 353.027C373.272 352.096 372.912 351.276 373.052 351.186C373.192 351.096 373.782 351.776 374.362 352.707C374.942 353.638 375.302 354.458 375.162 354.548Z" fill="#E0E0E0"/>
<path d="M375.192 366.757C375.032 366.707 375.232 365.676 375.643 364.455C376.043 363.234 376.503 362.294 376.663 362.344C376.823 362.394 376.623 363.425 376.213 364.645C375.803 365.856 375.352 366.807 375.192 366.757Z" fill="#E0E0E0"/>
<path d="M379.374 379.568C379.224 379.638 378.583 378.617 377.943 377.276C377.303 375.945 376.913 374.804 377.053 374.724C377.203 374.654 377.843 375.675 378.483 377.016C379.124 378.357 379.524 379.498 379.374 379.568Z" fill="#E0E0E0"/>
<path d="M370.33 389.874C370.2 389.764 370.721 388.973 371.471 388.103C372.231 387.232 372.941 386.612 373.061 386.722C373.191 386.832 372.681 387.622 371.921 388.493C371.171 389.374 370.461 389.984 370.33 389.874Z" fill="#E0E0E0"/>
<path d="M368.44 371.161C368.41 371.321 367.589 371.311 366.599 371.141C365.609 370.97 364.839 370.69 364.869 370.53C364.899 370.37 365.719 370.38 366.709 370.55C367.69 370.72 368.46 371 368.44 371.161Z" fill="#E0E0E0"/>
<path d="M454 451.989C454 452.129 353.154 452.249 228.791 452.249C104.377 452.249 3.55127 452.129 3.55127 451.989C3.55127 451.849 104.377 451.729 228.791 451.729C353.154 451.729 454 451.849 454 451.989Z" fill="#263238"/>
<path d="M289.902 348.444L171.56 348.374C157.325 348.364 145.791 336.815 145.801 322.585L145.861 25.7888C145.861 11.5384 157.415 0 171.65 0L289.992 0.070051C304.227 0.0800583 315.761 11.6285 315.751 25.8588L315.691 322.655C315.691 336.905 304.147 348.454 289.902 348.444Z" fill="#263238"/>
<path d="M289.862 10.5683L266.914 10.5583C263.833 10.5583 261.342 13.1602 261.342 16.3826V20.5456C261.342 23.768 258.851 26.3699 255.77 26.3699L211.044 26.3398C207.963 26.3398 205.472 23.7279 205.472 20.5056V16.3426C205.472 13.1202 202.981 10.5183 199.9 10.5083L191.827 10.4983L171.75 10.4883C161.777 10.4783 153.684 18.5642 153.684 28.5414L153.624 318.242C153.624 328.22 161.697 336.306 171.67 336.306L289.782 336.376C299.756 336.386 307.848 328.3 307.848 318.323L307.908 28.6215C307.908 18.6642 299.836 10.5784 289.862 10.5683Z" fill="white"/>
<path d="M307.908 28.6315C307.908 18.6642 299.836 10.5683 289.862 10.5683L266.914 10.5583C263.833 10.5583 261.342 13.1602 261.342 16.3826V20.5456C261.342 23.768 258.851 26.3699 255.77 26.3699L211.044 26.3398C207.963 26.3398 205.472 23.7279 205.472 20.5056V16.3426C205.472 13.1202 202.981 10.5183 199.9 10.5083L191.827 10.4983L171.75 10.4883C161.777 10.4783 153.684 18.5642 153.684 28.5414L153.624 56.2416H307.908V28.6315Z" fill="#F1F9F7"/>
<path d="M179.403 183.553V189.157H184.995V183.553V177.949H179.403V183.553Z" fill="#263238"/>
<path d="M185.005 149.938H179.403V155.542H185.005V149.938Z" fill="#263238"/>
<path d="M219.597 211.613H213.995V217.217H219.597V211.613Z" fill="#263238"/>
<path d="M184.995 161.147V166.751H179.403V172.345H184.995V177.949H190.597H196.199V183.553H201.801V177.949H207.393V172.345V166.751H201.801V172.345H196.199H190.597V166.751V161.147V155.543H184.995V161.147Z" fill="#263238"/>
<path d="M196.199 149.938H190.597V155.542H196.199H201.801V149.938H196.199Z" fill="#263238"/>
<path d="M221.398 194.971H224.399V189.367H221.398H218.387V194.971H221.398Z" fill="#263238"/>
<path d="M207.403 155.543H201.801V161.147H207.403V155.543Z" fill="#263238"/>
<path d="M246.597 177.949H240.995V183.553H246.597V177.949Z" fill="#263238"/>
<path d="M252.189 116.334H246.587V121.938H252.189V116.334Z" fill="#263238"/>
<path d="M218.597 161.146V155.542H224.199V149.938H218.597V144.344H212.995V149.938H207.393V155.542H212.995V161.146V166.75V172.344V177.948H218.597V172.344V166.75H224.199V161.146H218.597Z" fill="#263238"/>
<path d="M246.587 217.157H252.189V211.553H246.587H240.995V217.157H246.587Z" fill="#263238"/>
<path d="M240.995 116.334H235.393V121.938H240.995V116.334Z" fill="#263238"/>
<path d="M239.594 161.147V155.543H233.992V149.949H228.39V155.543V161.147H222.798V166.751H228.39H233.992V161.147H239.594Z" fill="#263238"/>
<path d="M271.195 149.949H265.593V155.553H271.195V149.949Z" fill="#263238"/>
<path d="M213.155 177.949H207.553V183.553H213.155V177.949Z" fill="#263238"/>
<path d="M235.393 144.344V138.74H240.995V133.136H246.587H252.189V127.542H246.587V121.938H240.995V127.542H235.393V133.136H229.791V138.74H224.199V144.344H229.791H235.393Z" fill="#263238"/>
<path d="M235.393 183.554V177.95H240.995V172.346H235.393H229.791V177.95H224.199V183.554H229.791H235.393Z" fill="#263238"/>
<path d="M252.189 205.95V200.356H246.587H240.995V194.752H235.393V200.356H229.791V205.95H224.199H218.597V211.554H224.199H229.791H235.393V205.95H240.995V211.554H246.587V205.95H252.189Z" fill="#263238"/>
<path d="M229.791 121.938V116.334H224.199H218.597V121.938H212.995V127.542H218.597H224.199V121.938H229.791Z" fill="#263238"/>
<path d="M229.801 127.543H224.199V133.147H229.801V127.543Z" fill="#263238"/>
<path d="M243.796 149.938H238.194V155.542V161.147V166.751H243.796H249.388V161.147H243.796V155.542H249.388V149.938H254.99V144.344H249.388V138.74H243.796V144.344V149.938Z" fill="#263238"/>
<path d="M224.199 133.137H218.597V138.741H224.199V133.137Z" fill="#263238"/>
<path d="M240.995 189.157V194.751H246.587H252.189V189.157H257.791H263.393V183.553H257.791H252.189H246.587V189.157H240.995Z" fill="#263238"/>
<path d="M271.195 166.75H265.593V172.354H271.195V166.75Z" fill="#263238"/>
<path d="M252.189 172.346H246.587V177.95H252.189V172.346Z" fill="#263238"/>
<path d="M266.184 155.543H260.592H254.99V161.147H260.592V166.751H266.184V161.147V155.543Z" fill="#263238"/>
<path d="M263.392 172.346H257.791V177.95H263.392V172.346Z" fill="#263238"/>
<path d="M201.801 206.059H218.607V183.543H196.099V189.147H190.607V194.751H196.099V200.355H190.607V205.959H196.099V206.059H196.199V211.553H190.597V217.157V222.762H196.199V217.157H201.801V211.553V206.059ZM214.286 187.856V201.856H200.291V187.856H214.286Z" fill="#263238"/>
<path d="M274.587 183.553H280.189V177.949H274.587H268.985H263.393V183.553H268.985H274.587Z" fill="#263238"/>
<path d="M274.586 161.146H280.188V155.542V149.938H274.586V155.542V161.146Z" fill="#263238"/>
<path d="M230.001 189.367H224.399V194.971V200.575H230.001V194.971V189.367Z" fill="#263238"/>
<path d="M285.79 183.553H280.188V189.157H285.79V183.553Z" fill="#263238"/>
<path d="M285.78 172.344V166.75H280.188V172.344V177.948H285.78V172.344Z" fill="#263238"/>
<path d="M184.995 211.553H179.403V217.157V222.761H184.995V217.157V211.553Z" fill="#263238"/>
<path d="M285.78 144.344V116.334H257.791V144.344H285.78ZM261.992 140.141V120.537H281.589V140.141H261.992Z" fill="#263238"/>
<path d="M277.378 124.74H266.184V135.938H277.378V124.74Z" fill="#263238"/>
<path d="M285.78 194.752H257.791V222.762H285.79V194.752H285.78ZM261.992 218.559V198.955H281.589V218.559H261.992Z" fill="#263238"/>
<path d="M277.378 203.156H266.184V214.354H277.378V203.156Z" fill="#263238"/>
<path d="M179.333 116.334V144.344H207.333V116.334H179.333ZM203.131 120.537V140.141H183.534V120.537H203.131Z" fill="#263238"/>
<path d="M198.92 124.74H187.726V135.938H198.92V124.74Z" fill="#263238"/>
<path d="M171.35 135.858C171.35 129.223 171.35 122.598 171.35 115.963C171.35 114.112 171.66 112.351 172.931 110.89C174.341 109.258 176.282 108.628 178.383 108.628C181.984 108.628 185.595 108.628 189.196 108.628C192.558 108.628 195.929 108.628 199.29 108.628C200.09 108.628 200.1 107.377 199.29 107.377C192.398 107.377 185.505 107.377 178.613 107.377C176.842 107.377 175.141 107.637 173.631 108.638C171.41 110.099 170.16 112.541 170.11 115.173C170.05 118.445 170.11 121.727 170.11 125C170.11 128.622 170.11 132.235 170.11 135.858C170.1 136.668 171.35 136.668 171.35 135.858Z" fill="#0D846D"/>
<path d="M197.45 232.219C190.817 232.219 184.195 232.219 177.563 232.219C175.712 232.219 173.951 231.908 172.491 230.637C170.86 229.226 170.23 227.285 170.23 225.184C170.23 221.581 170.23 217.968 170.23 214.366C170.23 211.003 170.23 207.631 170.23 204.268C170.23 203.468 168.979 203.458 168.979 204.268C168.979 211.163 168.979 218.058 168.979 224.953C168.979 226.725 169.24 228.426 170.24 229.937C171.7 232.159 174.141 233.409 176.772 233.46C180.043 233.52 183.325 233.46 186.596 233.46C190.217 233.46 193.828 233.46 197.45 233.46C198.25 233.47 198.25 232.219 197.45 232.219Z" fill="#0D846D"/>
<path d="M293.163 204.079C293.163 210.713 293.163 217.338 293.163 223.973C293.163 225.824 292.853 227.586 291.583 229.047C290.172 230.678 288.232 231.308 286.131 231.308C282.53 231.308 278.918 231.308 275.317 231.308C271.956 231.308 268.585 231.308 265.224 231.308C264.423 231.308 264.413 232.559 265.224 232.559C272.116 232.559 279.008 232.559 285.901 232.559C287.671 232.559 289.372 232.299 290.883 231.298C293.103 229.837 294.354 227.406 294.404 224.764C294.464 221.491 294.404 218.209 294.404 214.937C294.404 211.314 294.404 207.701 294.404 204.079C294.414 203.268 293.163 203.268 293.163 204.079Z" fill="#0D846D"/>
<path d="M265.593 108.639C272.226 108.639 278.848 108.639 285.48 108.639C287.331 108.639 289.092 108.949 290.552 110.22C292.183 111.631 292.813 113.572 292.813 115.674C292.813 119.276 292.813 122.889 292.813 126.492C292.813 129.854 292.813 133.227 292.813 136.589C292.813 137.39 294.063 137.4 294.063 136.589C294.063 129.694 294.063 122.799 294.063 115.904C294.063 114.133 293.803 112.431 292.803 110.92C291.342 108.699 288.912 107.448 286.271 107.398C283 107.338 279.718 107.398 276.447 107.398C272.826 107.398 269.215 107.398 265.593 107.398C264.793 107.388 264.793 108.639 265.593 108.639Z" fill="#0D846D"/>
<path d="M280.649 276.142H182.754C173.981 276.142 166.879 269.027 166.879 260.26C166.879 251.484 173.991 244.379 182.754 244.379H280.649C289.422 244.379 296.525 251.494 296.525 260.26C296.525 269.027 289.422 276.142 280.649 276.142Z" fill="#14C6A4"/>
<path d="M206.473 255.908H208.013V263.364H206.473V255.908Z" fill="white"/>
<path d="M215.676 263.363L215.666 258.89L213.705 262.583H213.005L211.044 258.99V263.373H209.594V255.918H210.874L213.375 260.551L215.836 255.918H217.106L217.126 263.373H215.676V263.363Z" fill="white"/>
<path d="M224.789 263.363L224.779 258.89L222.818 262.583H222.118L220.167 258.99V263.373H218.717V255.918H219.997L222.498 260.551L224.959 255.918H226.229L226.249 263.373H224.789V263.363Z" fill="white"/>
<path d="M227.76 260.081V255.908H229.301V260.021C229.301 261.442 229.851 262.023 230.791 262.023C231.732 262.023 232.282 261.432 232.282 260.021V255.908H233.812V260.081C233.812 262.273 232.692 263.494 230.791 263.494C228.881 263.494 227.76 262.283 227.76 260.081Z" fill="white"/>
<path d="M241.455 255.908V263.364H240.184L236.853 258.83V263.364H235.323V255.908H236.603L239.924 260.442V255.908H241.455Z" fill="white"/>
<path d="M243.036 255.908H244.576V263.364H243.036V255.908Z" fill="white"/>
<path d="M247.547 257.319H245.406V255.908H251.228V257.319H249.088V263.374H247.547V257.319Z" fill="white"/>
<path d="M255.13 260.722V263.364H253.589V260.702L251.008 255.908H252.649L254.43 259.221L256.21 255.908H257.731L255.13 260.722Z" fill="white"/>
<path d="M250.208 303.09C250.118 303.1 250.238 301.439 249.528 298.597C249.198 297.176 248.517 295.495 247.467 293.713C246.407 291.942 244.866 290.091 242.785 288.52C240.715 286.969 238.094 285.648 235.073 285.117C232.072 284.607 228.69 284.697 225.479 285.928C223.859 286.488 222.298 287.339 220.858 288.42C220.117 288.93 219.467 289.57 218.787 290.181C218.177 290.861 217.526 291.522 216.996 292.302C214.755 295.295 213.485 299.127 213.445 303.09C213.485 307.053 214.745 310.896 216.996 313.878C217.526 314.649 218.167 315.319 218.787 316C219.467 316.61 220.117 317.251 220.858 317.761C222.288 318.832 223.859 319.692 225.479 320.253C228.7 321.484 232.082 321.574 235.073 321.063C238.094 320.533 240.705 319.212 242.785 317.661C244.866 316.09 246.397 314.248 247.467 312.467C248.527 310.686 249.198 309.005 249.528 307.584C250.238 304.741 250.108 303.08 250.208 303.09C250.218 303.09 250.218 303.19 250.218 303.39C250.218 303.621 250.208 303.911 250.198 304.271C250.198 304.661 250.178 305.142 250.078 305.702C249.998 306.263 249.928 306.923 249.728 307.634C249.418 309.085 248.767 310.796 247.717 312.617C246.657 314.429 245.116 316.33 243.015 317.951C240.915 319.552 238.244 320.923 235.163 321.484C232.102 322.024 228.63 321.944 225.319 320.703C223.659 320.133 222.048 319.262 220.568 318.161C219.807 317.641 219.137 316.99 218.437 316.36C217.807 315.659 217.136 314.979 216.596 314.188C214.285 311.116 212.975 307.163 212.945 303.09C212.985 299.017 214.285 295.064 216.606 292.002C217.156 291.212 217.817 290.531 218.447 289.831C219.147 289.2 219.817 288.55 220.578 288.029C222.058 286.928 223.659 286.058 225.329 285.487C228.64 284.247 232.102 284.156 235.173 284.707C238.254 285.267 240.925 286.638 243.025 288.239C245.136 289.861 246.677 291.762 247.727 293.573C248.777 295.395 249.428 297.106 249.738 298.557C249.938 299.267 250.018 299.928 250.088 300.488C250.188 301.049 250.208 301.529 250.208 301.919C250.218 302.28 250.218 302.57 250.228 302.8C250.218 302.99 250.218 303.09 250.208 303.09Z" fill="#FF725E"/>
<path d="M231.011 310.785L222.088 303.11L224.769 299.988L230.751 305.141L240.154 295.404L243.105 298.256L231.011 310.785Z" fill="#FF725E"/>
<path d="M295.354 38.8076C295.354 38.8975 292.593 38.9873 289.182 39.0173C285.771 39.0472 283.01 38.9973 283.01 38.9075C283.01 38.8176 285.771 38.7277 289.182 38.6978C292.593 38.6778 295.354 38.7277 295.354 38.8076Z" fill="#263238"/>
<path d="M295.384 41.9697C295.384 42.0596 292.623 42.1494 289.212 42.1794C285.801 42.2094 283.04 42.1594 283.04 42.0696C283.04 41.9797 285.801 41.8898 289.212 41.8599C292.613 41.8399 295.384 41.8898 295.384 41.9697Z" fill="#263238"/>
<path d="M295.404 45.1325C295.404 45.2223 292.643 45.3122 289.232 45.3421C285.821 45.3721 283.06 45.3222 283.06 45.2323C283.06 45.1424 285.821 45.0526 289.232 45.0226C292.643 45.0026 295.404 45.0426 295.404 45.1325Z" fill="#263238"/>
<path d="M194.379 244.809H190.377V337.246H194.379V244.809Z" fill="#263238"/>
<path d="M161.157 248.141H157.156V340.578H161.157V248.141Z" fill="#263238"/>
<path d="M195.379 253.085H189.377V244.138C189.377 243.848 189.157 243.608 188.897 243.608H162.627C162.357 243.608 162.147 243.848 162.147 244.138V251.584H156.145V244.138C156.145 240.536 159.056 237.604 162.627 237.604H188.897C192.468 237.604 195.379 240.536 195.379 244.138V253.085Z" fill="#455A64"/>
<path d="M156.825 445.775C156.825 449.208 154.044 452 150.603 452C147.172 452 144.381 449.218 144.381 445.775C144.381 442.343 147.162 439.551 150.603 439.551C154.034 439.551 156.825 442.333 156.825 445.775Z" fill="#263238"/>
<path d="M210.494 445.775C210.494 449.208 207.713 452 204.272 452C200.841 452 198.05 449.218 198.05 445.775C198.05 442.343 200.831 439.551 204.272 439.551C207.703 439.551 210.494 442.333 210.494 445.775Z" fill="#263238"/>
<path d="M219.758 398.951V353.168C222.399 353.168 224.55 355.31 224.55 357.961V394.158C224.55 396.81 222.409 398.951 219.758 398.951Z" fill="#263238"/>
<path d="M207.973 442.733H145.481C137.759 442.733 131.506 436.468 131.506 428.753V328.9C131.506 321.174 137.769 314.92 145.481 314.92H207.973C215.696 314.92 221.948 321.184 221.948 328.9V428.753C221.948 436.478 215.686 442.733 207.973 442.733Z" fill="#455A64"/>
<path d="M221.868 330.922C221.868 331.062 201.611 331.182 176.632 331.182C151.644 331.182 131.396 331.062 131.396 330.922C131.396 330.782 151.644 330.662 176.632 330.662C201.611 330.662 221.868 330.772 221.868 330.922Z" fill="#263238"/>
<path d="M221.868 344.422C221.868 344.562 201.611 344.682 176.632 344.682C151.644 344.682 131.396 344.562 131.396 344.422C131.396 344.282 151.644 344.162 176.632 344.162C201.611 344.162 221.868 344.272 221.868 344.422Z" fill="#263238"/>
<path d="M221.868 357.92C221.868 358.06 201.611 358.181 176.632 358.181C151.644 358.181 131.396 358.06 131.396 357.92C131.396 357.78 151.644 357.66 176.632 357.66C201.611 357.66 221.868 357.77 221.868 357.92Z" fill="#263238"/>
<path d="M221.868 371.421C221.868 371.561 201.611 371.681 176.632 371.681C151.644 371.681 131.396 371.561 131.396 371.421C131.396 371.281 151.644 371.161 176.632 371.161C201.611 371.151 221.868 371.271 221.868 371.421Z" fill="#263238"/>
<path d="M221.868 384.911C221.868 385.051 201.611 385.171 176.632 385.171C151.644 385.171 131.396 385.051 131.396 384.911C131.396 384.77 151.644 384.65 176.632 384.65C201.611 384.65 221.868 384.77 221.868 384.911Z" fill="#263238"/>
<path d="M221.868 398.411C221.868 398.551 201.611 398.671 176.632 398.671C151.644 398.671 131.396 398.551 131.396 398.411C131.396 398.27 151.644 398.15 176.632 398.15C201.611 398.15 221.868 398.27 221.868 398.411Z" fill="#263238"/>
<path d="M221.868 411.911C221.868 412.051 201.611 412.171 176.632 412.171C151.644 412.171 131.396 412.051 131.396 411.911C131.396 411.77 151.644 411.65 176.632 411.65C201.611 411.65 221.868 411.77 221.868 411.911Z" fill="#263238"/>
<path d="M221.868 425.411C221.868 425.551 201.611 425.671 176.632 425.671C151.644 425.671 131.396 425.551 131.396 425.411C131.396 425.27 151.644 425.15 176.632 425.15C201.611 425.15 221.868 425.27 221.868 425.411Z" fill="#263238"/>
<path d="M186.836 350.326H166.619V353.989H186.836V350.326Z" fill="white"/>
<path d="M64.0426 77.1562C64.0426 77.1562 62.342 79.4879 62.372 83.691C62.392 85.9426 63.9225 90.5159 67.9139 90.7361C66.8536 97.1808 70.975 101.944 77.8374 101.954C84.6998 101.964 92.5626 90.1857 98.9249 87.5938L117.391 82.7102C119.012 82.33 119.682 80.3585 119.652 78.6873C119.622 77.0261 119.192 75.2948 119.782 73.7337C120.592 71.6021 123.063 70.4513 123.904 68.3298C124.864 65.918 123.373 63.2361 121.663 61.2846C119.952 59.3332 117.862 57.4819 117.311 54.94C116.811 52.6083 117.711 49.9764 116.541 47.8949C115.111 45.333 111.349 45.0128 109.609 42.6511C108.768 41.5102 108.498 40.0191 107.668 38.8683C106.247 36.9069 103.506 36.3965 101.096 36.6567C98.6848 36.9169 96.374 37.7875 93.9531 37.9676C90.6419 38.2078 87.2107 37.137 84.0296 38.0977C80.5184 39.1585 78.3776 42.2708 76.1068 45.293L73.1358 48.7955C72.5256 49.396 71.8753 49.9464 71.1551 50.4167C69.9046 51.2273 68.4741 51.7977 67.3937 52.8285C65.0929 55.0501 65.303 59.3032 67.8039 61.2846C65.253 62.1052 63.4323 64.7772 63.5924 67.4591C63.5924 67.4591 63.2623 70.5214 65.203 71.8824C65.213 71.8924 62.432 73.9839 64.0426 77.1562Z" fill="#263238"/>
<path d="M76.4171 83.4122C74.8965 78.7288 73.396 74.0054 72.6958 69.1318C72.0055 64.2583 72.1456 59.1746 73.8662 54.5512C74.1263 53.8507 76.347 49.1573 77.0873 49.2273C77.6175 49.2774 76.257 53.6606 76.5171 54.1209C79.078 58.5241 79.7783 63.818 79.3681 68.8917C78.958 73.9754 77.9076 78.5387 76.4171 83.4122Z" fill="#263238"/>
<path d="M88.5812 126.393C77.6774 125.022 76.4269 107.51 76.4269 107.51L75.9268 64.6183C75.5266 52.2694 82.379 41.7417 94.7234 41.6816L95.8638 41.7417C107.358 42.3621 116.451 51.6989 116.761 63.1973C117.051 73.9051 117.231 85.7337 116.851 91.4479C116.071 103.277 104.137 104.487 104.137 104.487C104.107 104.487 103.847 107.239 104.037 110.712C104.717 123.301 91.6423 126.654 88.5812 126.393Z" fill="#FFBE9D"/>
<path d="M104.147 104.497C104.147 104.497 96.6642 104.537 88.9814 99.1133C88.9814 99.1133 92.2726 107.93 104.147 107.489V104.497Z" fill="#EB996E"/>
<path d="M113.65 72.9142C113.63 73.8048 112.86 74.5353 111.93 74.5353C110.999 74.5353 110.249 73.8148 110.269 72.9142C110.289 72.0235 111.059 71.293 111.99 71.293C112.92 71.293 113.67 72.0135 113.65 72.9142Z" fill="#263238"/>
<path d="M113.98 67.9797C113.76 68.1899 112.53 67.1691 110.709 67.0791C108.898 66.959 107.508 67.8296 107.328 67.5894C107.238 67.4894 107.468 67.0991 108.078 66.7088C108.668 66.3185 109.669 65.9583 110.799 66.0283C111.93 66.0984 112.86 66.5587 113.39 67.019C113.92 67.4794 114.08 67.8897 113.98 67.9797Z" fill="#263238"/>
<path d="M96.5539 72.9142C96.5339 73.8048 95.7637 74.5353 94.8333 74.5353C93.903 74.5353 93.1527 73.8148 93.1728 72.9142C93.1928 72.0235 93.963 71.293 94.8934 71.293C95.8237 71.293 96.574 72.0135 96.5539 72.9142Z" fill="#263238"/>
<path d="M96.1238 67.761C95.9037 67.9711 94.6733 66.9504 92.8527 66.8603C91.042 66.7402 89.6515 67.6109 89.4715 67.3707C89.3814 67.2706 89.6115 66.8803 90.2217 66.4901C90.8119 66.0998 91.8123 65.7395 92.9427 65.8096C94.0731 65.8796 95.0034 66.35 95.5336 66.8003C96.0638 67.2606 96.2338 67.6709 96.1238 67.761Z" fill="#263238"/>
<path d="M101.896 82.0902C101.896 81.9901 103.037 81.85 104.877 81.7199C105.347 81.6999 105.787 81.6298 105.888 81.3196C106.018 80.9894 105.848 80.479 105.647 79.9286C105.267 78.7777 104.877 77.5769 104.467 76.3159C102.826 71.1722 101.676 66.9591 101.876 66.8991C102.086 66.839 103.577 70.952 105.217 76.0858C105.607 77.3567 105.988 78.5576 106.338 79.7184C106.488 80.2588 106.758 80.8693 106.478 81.5498C106.338 81.89 105.978 82.1202 105.677 82.1902C105.377 82.2603 105.117 82.2603 104.887 82.2603C103.047 82.2503 101.896 82.1902 101.896 82.0902Z" fill="#263238"/>
<path d="M96.4742 83.0611C96.7743 83.0611 96.6643 85.0326 98.2848 86.5237C99.8954 88.0248 102.016 87.9147 102.016 88.1849C102.036 88.315 101.526 88.5451 100.636 88.5151C99.7653 88.4951 98.5049 88.1448 97.5146 87.2342C96.5342 86.3235 96.1441 85.1527 96.1241 84.3321C96.094 83.5215 96.3441 83.0411 96.4742 83.0611Z" fill="#263238"/>
<path d="M96.4142 60.3751C96.2041 60.8554 94.4035 60.5252 92.2627 60.6753C90.112 60.7754 88.3613 61.3057 88.1013 60.8454C87.9912 60.6252 88.3113 60.1749 89.0316 59.7346C89.7418 59.2943 90.8722 58.894 92.1627 58.8239C93.4531 58.7539 94.6135 59.0141 95.3738 59.3743C96.1341 59.7346 96.5042 60.1449 96.4142 60.3751Z" fill="#263238"/>
<path d="M113.55 61.8949C113.21 62.2952 111.98 61.7948 110.469 61.6947C108.969 61.5446 107.668 61.8248 107.398 61.3745C107.278 61.1543 107.508 60.754 108.078 60.3938C108.649 60.0335 109.589 59.7633 110.619 59.8534C111.65 59.9435 112.53 60.3638 113.03 60.8141C113.55 61.2644 113.7 61.6947 113.55 61.8949Z" fill="#263238"/>
<path d="M76.427 73.4339C76.227 73.3338 68.4242 70.5918 68.2441 78.6977C68.0641 86.8036 76.237 85.3125 76.257 85.0724C76.287 84.8522 76.427 73.4339 76.427 73.4339Z" fill="#FFBE9D"/>
<path d="M73.8562 81.9502C73.8162 81.9202 73.7161 82.0503 73.476 82.1503C73.246 82.2504 72.8358 82.3205 72.4157 82.1503C71.5654 81.8201 70.8751 80.4391 70.8651 78.978C70.8651 78.2375 71.0352 77.537 71.3053 76.9666C71.5654 76.3761 71.9555 75.9758 72.3957 75.9058C72.8258 75.8157 73.1259 76.0759 73.216 76.3161C73.316 76.5463 73.266 76.7064 73.306 76.7164C73.326 76.7364 73.4861 76.5863 73.426 76.246C73.396 76.0859 73.306 75.8958 73.1159 75.7357C72.9258 75.5755 72.6357 75.4855 72.3356 75.5155C71.7054 75.5455 71.1352 76.1059 70.8351 76.7364C70.495 77.3668 70.2949 78.1574 70.2949 78.988C70.3149 80.6192 71.1152 82.1703 72.2756 82.5306C72.8458 82.6907 73.326 82.5306 73.5761 82.3405C73.8362 82.1503 73.8862 81.9702 73.8562 81.9502Z" fill="#EB996E"/>
<path d="M111.7 49.7069C113.02 48.9964 109.139 44.7033 105.938 43.1922C101.096 40.9205 93.6733 39.4594 89.1617 40.6803C83.7298 42.1414 79.2082 44.7833 76.4273 49.6669C73.6463 54.5604 72.5559 60.2846 72.6359 65.9087C72.6659 67.6199 72.816 69.4113 73.7163 70.8823C74.8267 72.6936 76.9875 73.8445 76.8574 76.3163C76.8074 77.2169 77.0575 78.1376 77.6677 78.7981C79.1282 80.3993 80.9589 78.9382 81.8192 77.4571C83.6398 74.3048 83.8899 70.5121 84.09 66.8794C84.23 64.2975 84.3701 61.6556 83.6798 59.1638C83.2997 57.8028 82.6795 56.5219 82.3794 55.1509C82.0792 53.7799 82.1393 52.2187 83.0096 51.1079C83.1496 50.9278 83.3797 50.6976 83.6798 50.4474C86.0006 48.466 89.2218 47.9056 92.0828 48.9564C96.6244 50.6276 104.387 53.1394 106.448 51.6183C109.409 49.4267 110.129 47.9856 110.129 47.9856L111.7 49.7069Z" fill="#263238"/>
<path d="M89.5917 39.5786C94.0633 38.1475 99.1351 38.2876 103.277 40.5093C105.477 41.6901 107.448 43.5515 108.098 45.9532C108.738 48.365 107.678 51.3071 105.357 52.2178L105.197 52.3179C101.726 53.4387 99.4852 52.9483 96.054 51.7074C93.1629 50.6666 90.6121 48.8453 87.711 47.8146C84.6399 46.7238 81.2287 46.5837 78.0776 47.4143C81.2187 43.9117 85.1201 41.0096 89.5917 39.5786Z" fill="#263238"/>
<path d="M74.1763 47.5941C74.2464 47.6542 74.8966 46.8836 76.2171 45.9629C76.8773 45.5126 77.6976 45.0222 78.6779 44.642C79.6483 44.2717 80.7887 43.9915 81.9791 44.0916C84.3899 44.3217 86.3906 45.4425 87.6311 46.4233C88.8815 47.414 89.4717 48.2546 89.5418 48.1945C89.5718 48.1745 89.4517 47.9444 89.1916 47.5741C88.9315 47.1938 88.4914 46.6834 87.8812 46.133C86.6607 45.0422 84.6 43.8013 82.0291 43.5512C80.7287 43.4411 79.5182 43.7613 78.5079 44.1816C77.4875 44.6019 76.6572 45.1523 76.007 45.6527C74.6865 46.6834 74.1363 47.5641 74.1763 47.5941Z" fill="#455A64"/>
<path d="M98.8749 38.8389C98.8548 38.929 99.7152 39.1291 101.026 39.6495C102.336 40.1699 104.067 41.0705 105.717 42.4215C107.368 43.7825 108.578 45.3136 109.339 46.5045C110.099 47.6853 110.459 48.4959 110.539 48.4559C110.589 48.4359 110.359 47.5753 109.659 46.3043C108.968 45.0434 107.758 43.4122 106.057 42.0012C104.347 40.6002 102.516 39.7195 101.146 39.2792C99.7752 38.8489 98.8849 38.7788 98.8749 38.8389Z" fill="#455A64"/>
<path d="M69.9944 409.507L50.3874 425.288C50.3874 425.288 61.2013 449.306 57.8601 452.578L24.5483 416.862L54.0888 391.023L69.9944 409.507Z" fill="#6F36BC"/>
<g opacity="0.6">
<path d="M42.1146 412.48C41.3043 411.929 40.0738 412.14 39.4936 412.93C38.9134 413.721 39.1135 414.972 39.9138 415.532C40.7141 416.092 42.2046 415.892 42.6848 415.042C43.1749 414.191 42.8648 412.73 41.9445 412.38" fill="white"/>
</g>
<g opacity="0.6">
<path d="M24.5483 416.862L27.5294 414.26L58.4903 449.866C58.4903 449.866 59.0505 451.477 57.77 452.998L24.5483 416.862Z" fill="white"/>
</g>
<path d="M51.0976 425.719C50.9075 425.869 50.0472 425.038 48.7067 424.648C47.3663 424.228 46.1959 424.448 46.1158 424.218C46.0058 424.017 47.3163 423.357 48.9368 423.857C50.5674 424.338 51.2977 425.619 51.0976 425.719Z" fill="#263238"/>
<path d="M52.8485 430.983C52.7085 431.173 51.7281 430.663 50.4377 430.703C49.1472 430.713 48.1869 431.273 48.0368 431.083C47.8668 430.933 48.8071 429.902 50.4177 429.872C52.0182 429.832 53.0186 430.833 52.8485 430.983Z" fill="#263238"/>
<path d="M50.1173 437.196C49.9372 437.066 50.6175 436.035 52.008 435.645C53.3885 435.245 54.5189 435.755 54.4388 435.965C54.3788 436.195 53.3785 436.105 52.2381 436.446C51.0877 436.756 50.2874 437.356 50.1173 437.196Z" fill="#263238"/>
<path d="M55.1691 421.635C54.9391 421.705 54.4689 420.655 53.5186 419.704C52.5882 418.723 51.5579 418.233 51.6279 418.003C51.6679 417.783 53.0084 417.983 54.1088 419.124C55.2292 420.254 55.3892 421.595 55.1691 421.635Z" fill="#263238"/>
<g opacity="0.3">
<path d="M66.1131 412.63L62.6219 415.442L45.876 398.219L50.1175 394.486L66.1131 412.63Z" fill="black"/>
</g>
<path d="M59.0603 418.373C58.9903 418.444 58.26 417.823 57.4697 416.512C57.0796 415.862 56.6895 415.031 56.3894 414.06C56.2393 413.58 56.1193 413.06 56.0392 412.509C55.9992 412.249 55.9392 411.949 55.9892 411.578C56.0092 411.218 56.3894 410.688 56.8795 410.668C57.3297 410.608 57.7398 410.838 57.9799 411.098C58.22 411.358 58.3601 411.629 58.4801 411.879C58.7402 412.379 58.9303 412.879 59.0803 413.37C59.3704 414.351 59.4604 415.281 59.4404 416.042C59.3904 417.583 58.9703 418.464 58.8802 418.433C58.7502 418.403 58.9503 417.493 58.8502 416.062C58.8002 415.341 58.6602 414.501 58.3501 413.61C58.2 413.17 57.9999 412.709 57.7598 412.269C57.5198 411.789 57.2397 411.448 56.9796 411.508C56.8795 411.528 56.8495 411.548 56.8095 411.729C56.7795 411.909 56.8095 412.149 56.8495 412.419C56.9196 412.929 57.0196 413.42 57.1396 413.88C57.3797 414.801 57.6898 415.601 57.9999 416.262C58.6101 417.553 59.1603 418.293 59.0603 418.373Z" fill="#263238"/>
<path d="M58.6003 418.364C58.5202 418.324 58.8503 417.403 59.9607 416.333C60.5109 415.802 61.2712 415.252 62.2015 414.832C62.6717 414.621 63.1819 414.451 63.7321 414.331C64.2823 414.231 65.0025 414.071 65.6828 414.701C66.0129 415.052 65.9929 415.602 65.8328 415.922C65.6928 416.263 65.4927 416.473 65.3226 416.703C64.9525 417.143 64.5223 417.503 64.0822 417.784C63.1919 418.344 62.2615 418.594 61.4913 418.644C59.9107 418.754 59.0404 418.184 59.0904 418.114C59.1304 417.974 60.0208 418.304 61.4213 418.064C62.1115 417.944 62.9218 417.664 63.662 417.143C64.0322 416.883 64.3923 416.563 64.7024 416.183C65.0425 415.782 65.2326 415.362 65.0625 415.252C64.9025 415.062 64.3423 415.012 63.9021 415.132C63.412 415.232 62.9418 415.372 62.5016 415.542C61.6313 415.892 60.9111 416.343 60.3509 416.783C59.2205 417.664 58.7103 418.434 58.6003 418.364Z" fill="#263238"/>
<path d="M68.8137 412.72L70.7144 437.819C70.7144 437.819 45.8056 446.355 45.7056 451.028L94.5328 450.918L93.1723 411.68L68.8137 412.72Z" fill="#6F36BC"/>
<g opacity="0.6">
<path d="M85.7198 435.108C86.6702 435.328 87.3704 436.368 87.1904 437.329C87.0103 438.29 85.9599 439.01 84.9996 438.8C84.0392 438.6 83.1689 437.379 83.459 436.438C83.7491 435.498 85.0196 434.727 85.8999 435.158" fill="white"/>
</g>
<g opacity="0.6">
<path d="M94.5329 450.918L94.3928 446.965L47.2462 448.716C47.2462 448.716 45.6856 449.407 45.4556 451.388L94.5329 450.918Z" fill="white"/>
</g>
<path d="M69.9144 437.609C69.9344 437.849 71.1249 437.909 72.3253 438.63C73.5457 439.32 74.1959 440.331 74.406 440.221C74.6261 440.171 74.2159 438.76 72.7354 437.909C71.2849 437.048 69.8544 437.389 69.9144 437.609Z" fill="#263238"/>
<path d="M64.8826 439.931C64.8326 440.161 65.8829 440.531 66.7332 441.502C67.6135 442.453 67.8636 443.533 68.0937 443.513C68.3238 443.544 68.4238 442.142 67.3535 440.942C66.2831 439.751 64.8826 439.701 64.8826 439.931Z" fill="#263238"/>
<path d="M62.2214 446.174C62.4414 446.214 62.7215 445.013 62.0613 443.732C61.4111 442.451 60.2607 441.981 60.1706 442.181C60.0406 442.381 60.7909 443.052 61.3211 444.113C61.8812 445.153 61.9813 446.154 62.2214 446.174Z" fill="#263238"/>
<path d="M70.1145 431.834C70.2245 432.044 71.3049 431.674 72.6554 431.714C74.0059 431.724 75.0762 432.135 75.1863 431.924C75.3163 431.744 74.2559 430.904 72.6654 430.884C71.0848 430.854 69.9944 431.654 70.1145 431.834Z" fill="#263238"/>
<g opacity="0.3">
<path d="M69.9141 427.101L70.2442 431.575L93.8525 431.164L93.6824 426.381L69.9141 427.101Z" fill="black"/>
</g>
<path d="M69.8243 426.771C69.8243 426.871 70.7746 426.981 72.2652 426.661C73.0054 426.501 73.8857 426.221 74.786 425.77C75.2362 425.55 75.7064 425.28 76.1565 424.97C76.3766 424.82 76.6367 424.66 76.8668 424.369C77.1169 424.109 77.2469 423.469 76.9268 423.098C76.6667 422.738 76.2166 422.588 75.8564 422.598C75.4963 422.598 75.2062 422.688 74.9461 422.758C74.4059 422.908 73.9057 423.108 73.4456 423.339C72.5353 423.799 71.795 424.369 71.2548 424.91C70.1644 426.001 69.8143 426.911 69.8943 426.951C70.0044 427.021 70.5245 426.261 71.6449 425.35C72.2051 424.9 72.9154 424.419 73.7757 424.039C74.2058 423.849 74.666 423.679 75.1562 423.549C75.6664 423.389 76.1065 423.369 76.2466 423.599C76.2966 423.689 76.3066 423.719 76.2065 423.879C76.0965 424.019 75.8964 424.169 75.6764 424.319C75.2562 424.62 74.8361 424.88 74.4159 425.11C73.5856 425.57 72.7753 425.891 72.0951 426.111C70.7346 426.541 69.8143 426.641 69.8243 426.771Z" fill="#263238"/>
<path d="M70.1544 427.101C70.2444 427.131 70.6746 426.261 70.7046 424.72C70.7146 423.949 70.5945 423.028 70.2644 422.058C70.0944 421.577 69.8743 421.077 69.5842 420.597C69.2841 420.126 68.904 419.496 67.9736 419.426C67.4935 419.426 67.1033 419.816 66.9833 420.146C66.8332 420.487 66.8132 420.767 66.7632 421.057C66.6932 421.627 66.7332 422.188 66.8232 422.708C67.0133 423.739 67.4735 424.59 67.9636 425.19C68.964 426.421 69.9743 426.661 69.9943 426.581C70.0644 426.461 69.2241 426.031 68.4438 424.85C68.0637 424.269 67.7135 423.489 67.5835 422.588C67.5135 422.138 67.5035 421.657 67.5735 421.177C67.6335 420.657 67.8036 420.226 68.0036 420.276C68.2437 420.266 68.6739 420.637 68.894 421.047C69.164 421.477 69.3741 421.918 69.5542 422.348C69.8943 423.219 70.0644 424.059 70.1244 424.77C70.2444 426.161 70.0243 427.061 70.1544 427.101Z" fill="#263238"/>
<path d="M50.6475 231.988C50.6475 231.988 55.9393 307.163 58.0001 324.406C59.3105 335.364 65.6327 427.521 65.6327 427.521L97.484 426.53L92.3522 280.594V235.821L50.6475 231.988Z" fill="#263238"/>
<path d="M46.376 392.866L67.4634 414.252C67.4634 414.252 131.326 352.006 133.917 347.333C136.508 342.66 135.727 285.098 135.727 285.098L133.867 233.5L88.2707 235.822L92.7723 287.149L98.8445 334.373L46.376 392.866Z" fill="#263238"/>
<path d="M104.306 377.984C104.306 377.984 104.096 378.225 103.656 378.675C103.206 379.135 102.556 379.786 101.716 380.636C99.9849 382.358 97.474 384.859 94.2829 388.042C87.8406 394.416 78.6574 403.503 67.6235 414.411L67.4634 414.571L67.3034 414.411C60.9011 407.926 53.7686 400.711 46.1959 393.045L46.0259 392.875L46.1859 392.695C51.5778 386.681 57.3099 380.286 63.2019 373.711C76.1765 359.271 88.3408 345.721 98.6744 334.223L98.6144 334.403C96.7137 318.291 95.1232 304.851 94.0028 295.414C93.4626 290.721 93.0424 287.018 92.7423 284.476C92.6023 283.225 92.5023 282.265 92.4322 281.594C92.4022 281.284 92.3822 281.034 92.3622 280.854C92.3522 280.684 92.3422 280.604 92.3522 280.604C92.3622 280.604 92.3722 280.684 92.4022 280.854C92.4322 281.034 92.4622 281.274 92.5123 281.594C92.6023 282.265 92.7323 283.225 92.8924 284.466C93.2125 287.008 93.6827 290.701 94.2729 295.384C95.4333 304.811 97.0839 318.251 99.0646 334.353L99.0746 334.453L99.0046 334.533C88.6909 346.051 76.5366 359.611 63.5821 374.072C57.68 380.646 51.948 387.031 46.5461 393.045L46.5361 392.695C54.0987 400.381 61.2012 407.606 67.6035 414.101H67.2934C78.3773 403.243 87.6105 394.206 94.0828 387.862C97.314 384.719 99.8548 382.248 101.605 380.546C102.466 379.716 103.136 379.075 103.596 378.635C104.056 378.195 104.306 377.984 104.306 377.984Z" fill="#455A64"/>
<path d="M108.838 338.866C108.778 338.997 106.697 338.106 104.197 336.865C101.696 335.634 99.715 334.533 99.785 334.403C99.845 334.273 101.926 335.164 104.427 336.405C106.928 337.636 108.898 338.736 108.838 338.866Z" fill="#455A64"/>
<path d="M96.2537 278.081C96.2537 278.121 95.5634 278.191 94.333 278.271C92.9925 278.342 91.2519 278.432 89.2012 278.542L88.9811 278.552V278.321C88.9811 275.67 88.9711 272.427 88.9011 268.925C88.811 264.381 88.641 260.268 88.5109 257.296C88.4509 255.885 88.4009 254.704 88.3609 253.774C88.3309 252.943 88.3309 252.483 88.3609 252.473C88.4009 252.473 88.4609 252.923 88.561 253.754C88.651 254.584 88.761 255.785 88.8811 257.276C89.1111 260.248 89.3412 264.361 89.4213 268.915C89.4913 272.417 89.4713 275.67 89.4113 278.321L89.1912 278.101C91.2419 278.071 92.9825 278.041 94.323 278.011C95.5534 278.021 96.2537 278.031 96.2537 278.081Z" fill="#455A64"/>
<path d="M94.033 254.204C94.033 254.184 94.2031 254.114 94.5432 254.144C94.8733 254.174 95.3535 254.354 95.7937 254.775C96.2138 255.195 96.6239 255.875 96.5439 256.726C96.4839 257.587 95.7636 258.377 94.8633 258.647C93.973 258.938 92.9226 258.707 92.3824 258.027C91.8323 257.376 91.7822 256.576 91.8823 255.995C92.0023 255.405 92.2924 254.985 92.5425 254.765C92.7926 254.544 92.9827 254.504 92.9927 254.524C93.0627 254.584 92.3624 254.975 92.2424 256.055C92.1924 256.566 92.2924 257.226 92.7326 257.717C93.1527 258.217 93.953 258.387 94.6933 258.157C95.4335 257.927 95.9937 257.326 96.0537 256.676C96.1438 256.025 95.8437 255.415 95.5136 255.035C94.8033 254.214 94.013 254.294 94.033 254.204Z" fill="#455A64"/>
<path d="M75.7365 108.398C75.7365 108.398 84.0194 117.455 105.707 110.23L119.422 130.294L133.517 244.528L87.3206 251.983L51.3379 246.269L62.8019 130.294L75.7365 108.398Z" fill="#E0E0E0"/>
<path d="M77.6971 109.599C79.4577 113.462 83.7193 122.559 83.7193 122.559C83.7193 122.559 72.9955 193.771 71.8651 205.029C70.6246 217.428 78.2973 261.34 78.2973 261.34L40.6841 255.456L51.2678 139.351L46.136 116.955C46.136 116.955 55.2892 113.172 64.4024 111.26L72.2952 110.14L74.466 106.537L75.9165 104.355L77.6971 109.599Z" fill="#8758C7"/>
<g opacity="0.3">
<path d="M79.6677 196.443C75.066 196.343 61.6713 200.206 57.0897 200.696C52.358 201.207 49.1869 201.817 45.3256 204.589L44.7554 210.664C47.4263 211.985 50.4474 212.295 53.3784 212.795C56.3194 213.296 59.5506 212.855 61.8414 210.934C63.0918 209.883 64.0021 208.442 65.4026 207.601C66.6831 206.821 68.0636 205.56 69.5341 205.85C80.618 208.022 83.429 198.445 79.6677 196.443Z" fill="black"/>
</g>
<path d="M73.1757 110.881C73.2157 110.871 73.3358 111.241 73.5258 111.922C73.7159 112.602 73.976 113.583 74.2861 114.804C74.9063 117.246 75.7366 120.628 76.6069 124.361C76.927 125.732 77.2271 127.043 77.5172 128.274H77.0271C77.3672 126.853 77.8874 125.592 78.4676 124.531C79.0678 123.48 79.618 122.54 80.3883 121.979C80.7684 121.709 81.2085 121.579 81.5787 121.609C81.9488 121.639 82.2489 121.779 82.439 121.939C82.8391 122.289 82.7991 122.63 82.7791 122.61C82.7391 122.63 82.7091 122.329 82.3289 122.069C81.9688 121.819 81.2185 121.679 80.5583 122.219C79.9081 122.73 79.3879 123.68 78.8277 124.711C78.2875 125.762 77.8073 127.003 77.4872 128.374L77.2472 129.415L76.9971 128.374C76.707 127.153 76.3969 125.832 76.0667 124.471C75.1864 120.728 74.4162 117.336 73.886 114.874C73.6159 113.643 73.4158 112.642 73.2858 111.952C73.1957 111.271 73.1457 110.891 73.1757 110.881Z" fill="#263238"/>
<path d="M50.2675 206.939L59.8008 209.721C59.8008 209.721 62.8819 216.937 63.4421 225.253C64.0023 233.559 60.361 293.773 60.361 293.773L29.8103 292.452L28.88 289.67C28.4098 288.249 28.2197 286.748 28.3398 285.256C29.1 275.369 30.4705 241.024 37.8931 221.04C41.4244 211.503 50.2675 206.939 50.2675 206.939Z" fill="#455A64"/>
<path d="M60.9512 111.421C60.9512 111.421 63.8422 116.895 63.5121 128.953C63.1719 141.012 46.4561 224.903 46.4561 224.903L57.1098 225.834C57.1098 225.834 67.9436 156.153 68.5038 149.138C69.064 142.123 72.9854 116.564 68.5038 110.98C68.4938 110.98 64.0623 109.039 60.9512 111.421Z" fill="#455A64"/>
<path d="M42.5847 213.244C42.5847 213.244 31.3807 227.214 27.6494 253.554L32.6012 254.624L42.5847 213.244Z" fill="#455A64"/>
<path d="M49.0772 219.279C49.0972 219.279 49.0772 219.459 49.0272 219.79C48.9671 220.18 48.8871 220.66 48.7971 221.241C48.607 222.502 48.3069 224.323 47.9968 226.575C47.3466 231.078 46.7364 237.362 45.4459 244.217C45.1158 245.929 44.7757 247.59 44.3755 249.201C43.9554 250.792 43.4052 252.353 42.4348 253.584C41.4945 254.845 39.974 255.566 38.5835 255.556C37.193 255.576 35.9726 255.286 34.8422 255.115C32.5814 254.725 30.8108 254.195 29.5603 253.975C28.9801 253.864 28.5099 253.764 28.1198 253.694C27.7897 253.624 27.6196 253.584 27.6196 253.564C27.6196 253.544 27.7997 253.554 28.1298 253.584C28.4599 253.614 28.9601 253.674 29.5903 253.774C30.8608 253.935 32.6514 254.415 34.8922 254.755C36.0126 254.905 37.253 255.165 38.5535 255.125C39.8539 255.115 41.1644 254.465 42.0347 253.294C42.925 252.143 43.4552 250.642 43.8554 249.081C44.2355 247.5 44.5756 245.829 44.9057 244.127C46.1862 237.302 46.8564 231.038 47.6067 226.535C47.9668 224.283 48.3169 222.462 48.567 221.221C48.6971 220.65 48.8071 220.17 48.8871 219.79C49.0072 219.449 49.0572 219.279 49.0772 219.279Z" fill="#263238"/>
<path d="M60.0209 210.272C60.061 210.272 60.0209 210.862 59.9309 211.923C59.8209 213.074 59.6808 214.575 59.5008 216.396C59.4007 217.347 59.2907 218.378 59.1806 219.479C59.0506 220.58 58.9806 221.78 58.6805 223.031C58.4004 224.282 57.6901 225.583 56.5197 226.424C55.3893 227.284 53.8087 227.715 52.3082 227.334C50.8277 226.974 49.5572 225.933 48.9971 224.582C48.4369 223.231 48.5269 221.83 48.6369 220.58C48.887 218.078 49.2371 215.836 49.5873 213.965C49.9374 212.093 50.2975 210.602 50.5676 209.572C50.8377 208.541 51.0178 207.98 51.0478 207.99C51.0878 208 50.9677 208.571 50.7577 209.612C50.5476 210.652 50.2475 212.153 49.9474 214.025C49.6473 215.896 49.3272 218.128 49.1071 220.62C49.0071 221.85 48.947 223.181 49.4572 224.372C49.9574 225.553 51.0978 226.494 52.4283 226.814C53.7587 227.154 55.1692 226.774 56.2096 226.003C57.28 225.233 57.9202 224.092 58.2003 222.901C58.5004 221.72 58.5904 220.519 58.7405 219.419C58.8805 218.318 59.0106 217.287 59.1206 216.336C59.3607 214.525 59.5608 213.024 59.7108 211.883C59.8809 210.852 59.9809 210.272 60.0209 210.272Z" fill="#263238"/>
<path d="M60.4411 293.823C60.4111 293.853 60.0209 293.453 59.3207 292.732C58.6205 292.012 57.6001 290.961 56.3196 289.71C55.0292 288.459 53.4686 286.988 51.678 285.427C50.7777 284.646 49.8274 283.846 48.827 283.025C47.8367 282.234 46.7263 281.434 45.4558 281.134C44.8256 280.984 44.1754 281.014 43.5852 281.214C42.9949 281.414 42.4648 281.784 41.9746 282.184C40.9942 283.025 40.0539 283.836 39.1436 284.616C37.353 286.147 35.7224 287.538 34.3319 288.729C33.0014 289.84 31.901 290.761 31.0607 291.471C30.2805 292.112 29.8403 292.452 29.8103 292.422C29.7903 292.392 30.1804 292.002 30.9207 291.321C31.741 290.581 32.8014 289.62 34.0818 288.459C35.4523 287.238 37.0529 285.827 38.8235 284.256C39.7238 283.465 40.6641 282.645 41.6445 281.784C42.1547 281.364 42.7249 280.964 43.4051 280.723C44.0853 280.483 44.8456 280.453 45.5559 280.623C46.9864 280.964 48.1168 281.814 49.1271 282.625C50.1375 283.445 51.0878 284.266 51.9781 285.057C53.7587 286.648 55.3093 288.149 56.5697 289.44C57.8302 290.741 58.8005 291.821 59.4608 292.592C60.121 293.363 60.4611 293.803 60.4411 293.823Z" fill="#263238"/>
<path d="M51.8283 227.805C51.9683 227.825 50.4378 239.653 48.4071 254.234C46.3764 268.815 44.6157 280.613 44.4757 280.593C44.3356 280.573 45.8662 268.745 47.8969 254.164C49.9176 239.583 51.6882 227.785 51.8283 227.805Z" fill="#263238"/>
<path d="M56.4298 222.061C56.3898 222.061 56.3698 221.81 56.2497 221.41C56.1197 221.01 55.8296 220.439 55.2294 220.009C54.6492 219.579 53.6988 219.339 52.7985 219.689C51.9082 220.009 51.1379 220.96 51.1479 222.071C51.1379 223.181 51.9082 224.132 52.7985 224.452C53.6988 224.793 54.6392 224.562 55.2294 224.132C55.8296 223.702 56.1197 223.121 56.2497 222.731C56.3698 222.301 56.3798 222.051 56.4298 222.061C56.4598 222.061 56.5198 222.311 56.4398 222.761C56.3598 223.201 56.0997 223.872 55.4495 224.412C54.8092 224.953 53.7189 225.273 52.6285 224.893C51.5581 224.542 50.6078 223.402 50.6178 222.061C50.6078 220.72 51.5481 219.579 52.6285 219.229C53.7088 218.848 54.8092 219.169 55.4495 219.709C56.1097 220.249 56.3698 220.92 56.4398 221.36C56.5098 221.81 56.4498 222.061 56.4298 222.061Z" fill="#263238"/>
<path d="M188.026 224.834L203.542 236.763L202.081 248.962L201.771 250.823L196.559 254.055H187.496C187.496 254.055 186.036 250.303 189.367 250.613C189.367 250.613 187.726 248.111 192.358 247.49C196.989 246.87 197.91 245.309 197.91 245.309L197.49 243.117L195.819 241.036L194.238 239.445L185.505 229.678L188.026 224.834Z" fill="#FFBE9D"/>
<path d="M159.156 210.553C159.146 210.663 177.133 229.177 177.133 229.177L188.026 224.834L174.942 197.914L164.028 194.031L159.156 202.728V210.553Z" fill="#FFBE9D"/>
<path d="M176.612 228.377C176.612 228.377 179.583 233.11 181.984 235.402C184.375 237.694 188.436 239.775 188.436 239.775C188.436 239.775 192.078 249.362 194.479 248.942C196.869 248.522 197.71 247.271 196.349 244.669C194.999 242.067 191.868 232.48 191.868 232.48L186.106 221.021L176.612 228.377Z" fill="#FFBE9D"/>
<path d="M130.786 117.566C130.786 117.566 137.418 119.568 141.25 128.494C145.081 137.421 160.366 169.404 160.366 169.404L176.622 198.625C176.622 198.625 169.29 198.625 163.878 202.768C158.456 206.911 159.096 212.335 159.096 212.335C159.096 212.335 154.374 211.375 153.704 208.513C153.044 205.641 153.704 203.089 153.704 203.089L147.942 195.753L144.441 188.738L133.417 170.175L125.964 140.593L130.786 117.566Z" fill="#9F79D2"/>
<path d="M139.959 265.694C139.959 265.694 134.057 204.59 134.327 203.859C134.607 203.129 133.687 168.093 134.327 167.553C134.967 167.002 130.786 117.566 130.786 117.566L109.018 110.831L109.308 110.872L104.317 105.598C104.317 105.598 98.2244 125.792 98.3145 126.123C100.075 133.078 106.387 236.503 106.387 236.503C106.387 237.244 108.878 265.684 108.878 265.684H139.959V265.694Z" fill="#9F79D2"/>
<path d="M133.367 170.746C133.377 170.766 133.127 170.966 132.626 171.326C132.076 171.717 131.346 172.227 130.436 172.867L130.376 172.907L130.306 172.877C127.645 171.586 123.613 169.635 118.741 167.273L118.621 167.213L118.611 167.073C118.331 163.32 118.011 159.057 117.671 154.564C117.371 150.341 117.081 146.338 116.831 142.735L116.821 142.525L117.021 142.485C122.043 141.415 126.434 141.935 129.385 142.575C130.866 142.896 132.016 143.266 132.786 143.546C133.557 143.826 133.947 144.026 133.937 144.056C133.927 144.076 133.517 143.926 132.736 143.696C131.956 143.466 130.806 143.146 129.325 142.866C126.384 142.315 122.043 141.875 117.121 142.966L117.311 142.715C117.581 146.318 117.881 150.321 118.201 154.544C118.521 159.037 118.822 163.3 119.092 167.053L118.962 166.863C123.793 169.305 127.785 171.326 130.426 172.657L130.306 172.667C131.246 172.067 131.996 171.587 132.566 171.226C133.067 170.886 133.347 170.726 133.367 170.746Z" fill="#263238"/>
<path d="M133.717 135.119C133.757 135.119 133.807 135.65 133.877 136.6C133.947 137.561 134.017 138.942 134.077 140.653C134.197 144.076 134.237 148.809 134.197 154.033C134.167 159.257 134.137 163.99 134.167 167.413C134.177 169.054 134.187 170.415 134.197 171.466C134.207 172.426 134.187 172.957 134.147 172.957C134.107 172.957 134.057 172.426 133.987 171.476C133.917 170.515 133.847 169.134 133.787 167.423C133.667 164 133.627 159.267 133.667 154.033C133.697 148.809 133.727 144.086 133.697 140.663C133.687 139.022 133.677 137.661 133.667 136.61C133.667 135.65 133.677 135.119 133.717 135.119Z" fill="#263238"/>
<path d="M167.669 189.59C167.689 189.68 166.579 189.97 164.898 190.74C163.228 191.501 161.037 192.852 159.046 194.833C157.065 196.825 155.715 199.006 154.945 200.678C154.174 202.349 153.884 203.47 153.794 203.44C153.764 203.43 153.804 203.149 153.924 202.639C154.034 202.129 154.264 201.398 154.615 200.528C155.305 198.786 156.645 196.505 158.686 194.463C160.727 192.432 163.017 191.101 164.758 190.41C165.628 190.06 166.359 189.83 166.869 189.73C167.379 189.6 167.659 189.56 167.669 189.59Z" fill="#263238"/>
<path d="M162.687 188.398C162.757 188.548 159.996 189.619 157.205 191.87C154.394 194.102 152.743 196.544 152.603 196.454C152.553 196.414 152.894 195.763 153.614 194.802C154.334 193.842 155.454 192.611 156.875 191.47C158.305 190.329 159.756 189.509 160.846 189.018C161.947 188.518 162.667 188.338 162.687 188.398Z" fill="#263238"/>
<path d="M109.298 110.881C109.338 110.881 109.308 111.371 109.228 112.242C109.148 113.113 109.018 114.374 108.848 115.915C108.488 119.017 107.958 123.3 107.217 128.003C106.947 129.705 106.677 131.336 106.397 132.847L106.267 133.568L105.937 132.917C105.127 131.336 104.276 129.905 103.466 128.664C103.066 128.044 102.666 127.463 102.286 126.933C101.906 126.402 101.555 125.922 101.145 125.602C100.745 125.271 100.295 125.091 99.9049 125.141C99.5047 125.181 99.1946 125.372 98.9946 125.562C98.5944 125.982 98.7345 126.362 98.6845 126.352C98.6845 126.382 98.4544 125.972 98.8745 125.442C99.0746 125.201 99.4147 124.961 99.8749 124.891C100.345 124.811 100.885 125.001 101.345 125.352C101.806 125.692 102.196 126.192 102.596 126.713C102.996 127.233 103.406 127.803 103.826 128.424C104.667 129.665 105.547 131.086 106.387 132.687L105.917 132.757C106.167 131.246 106.437 129.615 106.707 127.923C107.438 123.22 108.038 118.957 108.488 115.865C108.708 114.404 108.888 113.173 109.038 112.212C109.168 111.351 109.268 110.871 109.298 110.881Z" fill="#263238"/>
<g opacity="0.3">
<path d="M105.997 132.488C105.647 133.959 105.297 135.42 104.947 136.891C103.906 133.969 102.856 131.047 101.816 128.125C101.606 127.544 101.396 126.964 101.025 126.474C100.655 125.983 100.095 125.603 99.4849 125.603C99.4849 125.603 100.455 124.242 101.726 125.603C102.986 126.964 105.997 132.488 105.997 132.488Z" fill="black"/>
</g>
<g opacity="0.3">
<path d="M134.167 171.076C136.888 161.288 136.328 149.05 133.707 139.232L134.167 171.076Z" fill="black"/>
</g>
<path d="M133.757 148.45C133.737 148.53 132.836 148.38 131.376 148.169C129.915 147.959 127.895 147.719 125.654 147.599C123.413 147.479 121.372 147.489 119.902 147.529C118.431 147.569 117.511 147.619 117.501 147.539C117.491 147.469 118.401 147.299 119.882 147.159C121.362 147.019 123.423 146.948 125.684 147.079C127.955 147.209 129.985 147.509 131.446 147.809C132.896 148.109 133.777 148.38 133.757 148.45Z" fill="#263238"/>
<path d="M134.717 219.93C134.697 219.96 134.347 219.8 133.727 219.48C133.107 219.16 132.226 218.669 131.146 218.039C128.995 216.778 126.094 214.906 123.033 212.645C119.972 210.373 117.341 208.142 115.51 206.45C114.59 205.61 113.87 204.909 113.38 204.409C112.889 203.908 112.639 203.618 112.659 203.598C112.679 203.568 112.989 203.808 113.52 204.259C114.13 204.789 114.88 205.43 115.75 206.18C117.641 207.791 120.292 209.973 123.333 212.235C126.374 214.486 129.235 216.398 131.326 217.739C132.296 218.359 133.127 218.889 133.807 219.32C134.417 219.67 134.737 219.89 134.717 219.93Z" fill="#263238"/>
<path d="M46.9766 116.625C46.9766 116.625 42.295 117.476 37.8534 126.812C33.4118 136.149 21.9878 167.162 21.2476 169.243L44.5958 184.775L57.7804 145.686L46.9766 116.625Z" fill="#9F79D2"/>
<path d="M59.1608 200.845L59.3608 187.596L44.2855 182.492L47.1265 173.055L23.8984 162.117C23.8984 162.117 13.5047 189.327 13.5647 194.311C13.5847 196.162 17.7262 205.549 26.3792 206.379C32.0112 206.93 44.7457 207.67 53.3187 207.981C57.2001 208.131 60.1711 204.598 59.1608 200.845Z" fill="#9F79D2"/>
<path d="M54.8992 152.192C55.0393 152.232 52.9986 159.127 50.3476 167.583C47.6967 176.049 45.4359 182.864 45.2959 182.824C45.1558 182.784 47.1965 175.889 49.8475 167.423C52.5084 158.977 54.7692 152.152 54.8992 152.192Z" fill="#263238"/>
<path d="M51.6283 184.964C51.6183 184.994 51.2682 184.914 50.6479 184.744C50.0277 184.564 49.1274 184.294 48.027 183.953C46.9166 183.633 45.6562 183.093 44.1957 182.702C42.7452 182.292 41.1046 181.962 39.374 181.812C35.8927 181.472 32.7416 182.052 30.5809 182.783C28.4201 183.533 27.2097 184.304 27.1597 184.214C27.1397 184.184 27.4298 183.973 27.9799 183.633C28.5301 183.293 29.3704 182.863 30.4608 182.432C32.6316 181.602 35.8727 180.951 39.424 181.291C42.9852 181.572 46.0263 182.783 48.1571 183.603C49.2374 183.993 50.1178 184.314 50.718 184.554C51.3082 184.784 51.6383 184.934 51.6283 184.964Z" fill="#263238"/>
<path d="M36.7328 174.236C36.7528 174.176 37.453 174.306 38.5134 174.777C39.5637 175.237 40.9442 176.098 42.2047 177.349C43.4551 178.61 44.3054 179.991 44.7656 181.051C45.2257 182.112 45.3558 182.813 45.3058 182.833C45.1557 182.903 44.2954 180.141 41.8446 177.719C39.4237 175.257 36.6627 174.386 36.7328 174.236Z" fill="#263238"/>
<path d="M54.6794 139.202C54.5893 139.192 54.7594 137.941 54.7094 135.93C54.6594 133.928 54.2692 131.146 53.1989 128.274C52.1185 125.402 50.5779 123.06 49.2975 121.519C48.017 119.968 47.0667 119.147 47.1267 119.077C47.1467 119.047 47.4068 119.237 47.847 119.598C48.2971 119.948 48.8973 120.528 49.5776 121.279C50.2678 122.029 51.0081 123 51.7383 124.151C52.4486 125.302 53.1288 126.633 53.689 128.094C54.2292 129.565 54.5893 131.016 54.8194 132.347C55.0195 133.688 55.1095 134.909 55.0795 135.93C55.0595 136.95 54.9895 137.781 54.8794 138.341C54.7794 138.902 54.7194 139.212 54.6794 139.202Z" fill="#263238"/>
<g opacity="0.3">
<path d="M35.4326 179.39C31.9614 179.5 28.5302 180.801 25.8693 183.033C25.6392 183.223 25.3891 183.463 25.3791 183.764C25.3591 184.174 25.7892 184.474 26.1994 184.484C26.6095 184.494 26.9797 184.294 27.3398 184.104C32.6917 181.332 39.174 180.821 44.886 182.733L45.2061 182.433C42.4051 180.371 38.9039 179.28 35.4326 179.39Z" fill="black"/>
</g>
<path d="M59.3609 203.528C59.3809 203.528 59.3609 203.658 59.3208 203.888C59.2908 204.128 59.2008 204.459 59.0307 204.879C58.7106 205.699 57.9404 206.91 56.4498 207.641C55.7196 207.991 54.8093 208.281 53.8589 208.211C52.9186 208.221 51.9182 208.201 50.8679 208.181C48.7671 208.131 46.4563 208.031 44.0254 207.901C39.1737 207.631 34.8022 207.281 31.6311 206.99C30.0505 206.84 28.7701 206.71 27.8798 206.61C26.9995 206.51 26.5093 206.43 26.5093 206.39C26.5093 206.35 27.0095 206.36 27.8898 206.4C28.8801 206.46 30.1406 206.53 31.6511 206.62C34.9222 206.82 39.2538 207.091 44.0455 207.381C46.4663 207.511 48.7671 207.621 50.8679 207.701C51.9082 207.731 52.9086 207.751 53.8389 207.781C54.7592 207.861 55.5695 207.611 56.2798 207.311C57.7003 206.67 58.4705 205.579 58.8307 204.799C59.0207 204.409 59.1408 204.088 59.2008 203.858C59.2908 203.638 59.3409 203.518 59.3609 203.528Z" fill="#263238"/>
<path d="M62.5016 202.748L75.5162 203.229C76.8167 203.279 78.0371 202.088 78.5873 200.227L88.7809 164.501C89.4211 162.029 88.0606 160.037 85.8299 159.897L68.6238 158.816C65.8528 158.816 64.3723 160.007 63.8821 162.089L57.1798 190.369C55.7593 196.374 58.4302 202.598 62.5016 202.748Z" fill="#263238"/>
<path d="M51.3579 185.876L54.8191 178.551L60.5011 176.649L58.7605 183.654C60.9913 184.735 64.3525 185.285 66.2832 184.225C68.2139 183.154 75.7665 175.648 77.187 176.369C78.6075 177.089 79.888 178.811 78.5775 180.462C77.277 182.113 70.1945 187.227 71.6551 188.738C73.1156 190.249 81.2785 183.624 83.6793 184.115C86.0801 184.615 87.5407 185.996 86.2002 187.017C84.8797 188.027 81.5786 191.33 80.9984 192.771C81.1384 194.572 81.9987 197.124 81.2084 197.574C80.048 198.225 76.0266 199.616 75.1963 199.656C74.7662 199.676 71.7251 200.867 68.9241 201.998C65.773 203.269 62.2818 203.349 59.0706 202.228L57.4401 201.657C54.8992 200.767 53.2086 198.355 53.2286 195.663L53.2886 190.249L51.3579 185.876Z" fill="#FFBE9D"/>
<path d="M60.1008 184.194C60.1409 184.204 60.3309 183.594 60.651 182.463C60.9812 181.232 61.4113 179.631 61.9415 177.699C62.4717 175.648 63.0919 173.256 63.7721 170.614C64.1123 169.273 64.4724 167.872 64.8325 166.431C65.2427 165.01 65.4027 163.359 66.3931 162.278C67.4134 161.207 69.074 161.157 70.5045 161.227C71.995 161.337 73.4355 161.447 74.806 161.547C77.527 161.738 79.9879 161.918 82.0986 162.068C84.0993 162.188 85.7499 162.288 87.0203 162.368C88.1807 162.428 88.831 162.438 88.831 162.398C88.831 162.358 88.2007 162.268 87.0403 162.138C85.7799 162.008 84.1293 161.848 82.1286 161.648C80.0179 161.457 77.557 161.237 74.846 160.997C73.4656 160.887 72.025 160.767 70.5345 160.637C69.7743 160.597 68.984 160.587 68.1837 160.737C67.3934 160.887 66.5631 161.217 65.9529 161.858C65.3427 162.498 65.0426 163.299 64.8225 164.049C64.6124 164.81 64.4424 165.55 64.2623 166.271C63.9022 167.722 63.5621 169.123 63.2319 170.464C62.5917 173.116 62.0115 175.518 61.5213 177.579C61.0712 179.531 60.7011 181.152 60.421 182.383C60.1809 183.544 60.0608 184.184 60.1008 184.194Z" fill="#455A64"/>
<path d="M75.7363 166.912C75.7363 167.612 76.3065 168.193 77.0168 168.193C77.717 168.193 78.2972 167.622 78.2972 166.912C78.2972 166.211 77.727 165.631 77.0168 165.631C76.3065 165.631 75.7363 166.201 75.7363 166.912Z" fill="white"/>
</g>
<defs>
<clipPath id="clip0_555_2817">
<rect width="454" height="453" fill="white"/>
</clipPath>
</defs>
</svg>
