<svg width="189" height="50" viewBox="0 0 189 50" fill="none" xmlns="http://www.w3.org/2000/svg">
<path d="M0 0H23.0769V13.0769C23.0769 18.5998 18.5998 23.0769 13.0769 23.0769H0V0Z" fill="#14C6A4"/>
<path d="M0 26.9238H13.0769C18.5998 26.9238 23.0769 31.401 23.0769 36.9238V50.0008H0V26.9238Z" fill="#E42E2E"/>
<path d="M26.9231 0H50V23.0769H36.9231C31.4003 23.0769 26.9231 18.5998 26.9231 13.0769V0Z" fill="#0066FF"/>
<path d="M26.9231 36.9238C26.9231 31.401 31.4002 26.9238 36.9231 26.9238H50V50.0008H26.9231V36.9238Z" fill="#00A824"/>
<path d="M84.1008 44.04V32.904L85.2208 33.16C85.1354 33.6933 84.9114 34.216 84.5488 34.728C84.1861 35.2187 83.7274 35.656 83.1728 36.04C82.6394 36.424 82.0314 36.7333 81.3488 36.968C80.6661 37.1813 79.9621 37.288 79.2368 37.288C77.7434 37.288 76.4208 36.9147 75.2688 36.168C74.1168 35.4 73.2101 34.3547 72.5488 33.032C71.8874 31.7093 71.5568 30.1947 71.5568 28.488C71.5568 26.76 71.8768 25.2347 72.5168 23.912C73.1781 22.5893 74.0741 21.5547 75.2048 20.808C76.3568 20.04 77.6474 19.656 79.0768 19.656C79.8874 19.656 80.6554 19.7733 81.3808 20.008C82.1061 20.2427 82.7568 20.552 83.3328 20.936C83.9088 21.32 84.3781 21.768 84.7408 22.28C85.1034 22.7707 85.3061 23.2933 85.3488 23.848L84.1968 24.04L84.3888 20.008H89.2528V44.04H84.1008ZM80.3888 32.968C81.1781 32.968 81.8608 32.7867 82.4368 32.424C83.0128 32.0613 83.4608 31.5493 83.7808 30.888C84.1008 30.2053 84.2608 29.4053 84.2608 28.488C84.2608 27.5707 84.1008 26.7813 83.7808 26.12C83.4608 25.4373 83.0128 24.9147 82.4368 24.552C81.8608 24.168 81.1781 23.976 80.3888 23.976C79.6208 23.976 78.9488 24.168 78.3728 24.552C77.7968 24.9147 77.3488 25.4373 77.0288 26.12C76.7301 26.8027 76.5808 27.592 76.5808 28.488C76.5808 29.4053 76.7301 30.2053 77.0288 30.888C77.3488 31.5493 77.7968 32.0613 78.3728 32.424C78.9488 32.7867 79.6208 32.968 80.3888 32.968ZM93.8033 37V20.008H98.6673L98.8913 25.544L97.9313 24.488C98.1873 23.5707 98.6033 22.7493 99.1793 22.024C99.7766 21.2987 100.47 20.7227 101.259 20.296C102.049 19.8693 102.891 19.656 103.787 19.656C104.171 19.656 104.523 19.688 104.843 19.752C105.185 19.816 105.494 19.8907 105.771 19.976L104.363 25.64C104.129 25.4907 103.809 25.3733 103.403 25.288C103.019 25.1813 102.614 25.128 102.187 25.128C101.718 25.128 101.281 25.2133 100.875 25.384C100.47 25.5333 100.129 25.7573 99.8513 26.056C99.5739 26.3547 99.3499 26.7067 99.1793 27.112C99.0299 27.5173 98.9553 27.976 98.9553 28.488V37H93.8033ZM107.374 43.144V38.952H126.798V43.144H107.374ZM138.111 44.36C136.724 44.36 135.337 44.1573 133.951 43.752C132.585 43.3467 131.476 42.824 130.623 42.184L132.415 38.6C132.863 38.8987 133.353 39.1547 133.887 39.368C134.441 39.6027 135.017 39.784 135.615 39.912C136.212 40.04 136.82 40.104 137.439 40.104C138.527 40.104 139.412 39.944 140.095 39.624C140.777 39.304 141.289 38.8133 141.631 38.152C141.972 37.512 142.143 36.7013 142.143 35.72V32.872L143.135 33.032C142.985 33.736 142.612 34.376 142.015 34.952C141.439 35.528 140.724 35.9973 139.871 36.36C139.017 36.7013 138.111 36.872 137.151 36.872C135.615 36.872 134.239 36.52 133.023 35.816C131.828 35.0907 130.879 34.0987 130.174 32.84C129.492 31.56 129.151 30.088 129.151 28.424C129.151 26.7173 129.492 25.2133 130.174 23.912C130.857 22.5893 131.796 21.5547 132.991 20.808C134.185 20.04 135.529 19.656 137.023 19.656C137.663 19.656 138.271 19.7307 138.847 19.88C139.444 20.0293 139.988 20.232 140.479 20.488C140.991 20.7227 141.439 21.0107 141.823 21.352C142.228 21.672 142.548 22.024 142.783 22.408C143.039 22.792 143.209 23.1867 143.295 23.592L142.239 23.848L142.431 20.008H147.295V35.624C147.295 37.0107 147.081 38.2373 146.655 39.304C146.249 40.392 145.641 41.3093 144.831 42.056C144.041 42.824 143.081 43.4 141.951 43.784C140.82 44.168 139.54 44.36 138.111 44.36ZM138.239 32.904C139.071 32.904 139.785 32.7227 140.383 32.36C141.001 31.976 141.471 31.4533 141.791 30.792C142.132 30.1307 142.303 29.352 142.303 28.456C142.303 27.56 142.132 26.7813 141.791 26.12C141.471 25.4373 141.001 24.9147 140.383 24.552C139.785 24.168 139.071 23.976 138.239 23.976C137.428 23.976 136.724 24.168 136.127 24.552C135.529 24.9147 135.06 25.4373 134.719 26.12C134.399 26.7813 134.239 27.56 134.239 28.456C134.239 29.352 134.399 30.1307 134.719 30.792C135.06 31.4533 135.529 31.976 136.127 32.36C136.724 32.7227 137.428 32.904 138.239 32.904ZM159.837 37.32C157.959 37.32 156.327 36.9467 154.941 36.2C153.554 35.432 152.477 34.3973 151.709 33.096C150.941 31.7733 150.557 30.2693 150.557 28.584C150.557 27.2827 150.77 26.088 151.197 25C151.623 23.912 152.221 22.9733 152.989 22.184C153.757 21.3733 154.663 20.7547 155.709 20.328C156.775 19.88 157.938 19.656 159.197 19.656C160.391 19.656 161.479 19.8693 162.461 20.296C163.463 20.7227 164.327 21.32 165.053 22.088C165.778 22.856 166.333 23.7627 166.717 24.808C167.101 25.8533 167.271 26.9947 167.229 28.232L167.197 29.608H153.661L152.925 26.728H163.037L162.493 27.336V26.696C162.45 26.1627 162.279 25.6933 161.981 25.288C161.703 24.8613 161.33 24.5307 160.861 24.296C160.391 24.0613 159.858 23.944 159.261 23.944C158.429 23.944 157.714 24.1147 157.117 24.456C156.541 24.776 156.103 25.256 155.805 25.896C155.506 26.5147 155.357 27.2827 155.357 28.2C155.357 29.1387 155.549 29.96 155.933 30.664C156.338 31.3467 156.914 31.88 157.661 32.264C158.429 32.648 159.335 32.84 160.381 32.84C161.106 32.84 161.746 32.7333 162.301 32.52C162.877 32.3067 163.495 31.944 164.157 31.432L166.557 34.824C165.895 35.4 165.191 35.8693 164.445 36.232C163.698 36.5947 162.93 36.8613 162.141 37.032C161.373 37.224 160.605 37.32 159.837 37.32ZM170.491 37V20.008H175.355L175.515 23.464L174.491 23.848C174.725 23.08 175.141 22.3867 175.739 21.768C176.357 21.128 177.093 20.616 177.947 20.232C178.8 19.848 179.696 19.656 180.635 19.656C181.915 19.656 182.992 19.9227 183.867 20.456C184.741 20.968 185.403 21.7467 185.851 22.792C186.299 23.816 186.523 25.0747 186.523 26.568V37H181.371V26.984C181.371 26.3013 181.275 25.736 181.083 25.288C180.891 24.84 180.592 24.5093 180.187 24.296C179.803 24.0613 179.323 23.9547 178.747 23.976C178.299 23.976 177.883 24.0507 177.499 24.2C177.115 24.328 176.784 24.5307 176.507 24.808C176.229 25.064 176.005 25.3627 175.835 25.704C175.685 26.0453 175.611 26.4187 175.611 26.824V37H173.083C172.485 37 171.973 37 171.547 37C171.12 37 170.768 37 170.491 37Z" fill="#323232"/>
</svg>
