<svg width="501" height="481" viewBox="0 0 501 481" fill="none" xmlns="http://www.w3.org/2000/svg">
<g clip-path="url(#clip0_555_1795)">
<path d="M119.278 170.731V178.934H127.47V170.731V162.539H119.278V170.731Z" fill="#EBEBEB"/>
<path d="M127.481 121.545H119.278V129.748H127.481V121.545Z" fill="#EBEBEB"/>
<path d="M178.142 211.811H169.939V220.014H178.142V211.811Z" fill="#EBEBEB"/>
<path d="M127.47 137.941V146.144H119.278V154.336H127.47V162.539H135.673H143.865V170.731H152.068V162.539H160.271V154.336V146.144H152.068V154.336H143.865H135.673V146.144V137.941V129.738H127.47V137.941Z" fill="#EBEBEB"/>
<path d="M143.865 121.545H135.673V129.737H143.865H152.068V121.545H143.865Z" fill="#EBEBEB"/>
<path d="M180.767 187.453H185.164V179.25H180.767H176.359V187.453H180.767Z" fill="#EBEBEB"/>
<path d="M160.271 129.738H152.068V137.941H160.271V129.738Z" fill="#EBEBEB"/>
<path d="M217.659 162.539H209.456V170.742H217.659V162.539Z" fill="#EBEBEB"/>
<path d="M225.862 72.3496H217.659V80.5526H225.862V72.3496Z" fill="#EBEBEB"/>
<path d="M176.666 137.94V129.737H184.858V121.545H176.666V113.342H168.463V121.545H160.271V129.737H168.463V137.94V146.143V154.335V162.538H176.666V154.335V146.143H184.858V137.94H176.666Z" fill="#EBEBEB"/>
<path d="M217.659 219.926H225.861V211.723H217.659H209.456V219.926H217.659Z" fill="#EBEBEB"/>
<path d="M209.467 72.3496H201.264V80.5526H209.467V72.3496Z" fill="#EBEBEB"/>
<path d="M207.41 137.94V129.737H199.207V121.545H191.015V129.737V137.94H182.812V146.143H191.015H199.207V137.94H207.41Z" fill="#EBEBEB"/>
<path d="M253.686 121.545H245.483V129.748H253.686V121.545Z" fill="#EBEBEB"/>
<path d="M168.703 162.539H160.5V170.742H168.703V162.539Z" fill="#EBEBEB"/>
<path d="M201.264 113.343V105.14H209.456V96.9477H217.659H225.862V88.7448H217.659V80.5527H209.456V88.7448H201.264V96.9477H193.061V105.14H184.858V113.343H193.061H201.264Z" fill="#EBEBEB"/>
<path d="M201.264 170.731V162.539H209.456V154.336H201.264H193.061V162.539H184.858V170.731H193.061H201.264Z" fill="#EBEBEB"/>
<path d="M225.862 203.52V195.328H217.659H209.456V187.125H201.264V195.328H193.061V203.52H184.858H176.666V211.723H184.858H193.061H201.264V203.52H209.456V211.723H217.659V203.52H225.862Z" fill="#EBEBEB"/>
<path d="M193.061 80.5526V72.3496H184.858H176.666V80.5526H168.463V88.7446H176.666H184.858V80.5526H193.061Z" fill="#EBEBEB"/>
<path d="M193.061 88.7441H184.858V96.9471H193.061V88.7441Z" fill="#EBEBEB"/>
<path d="M213.557 121.545H205.365V129.737V137.94V146.143H213.557H221.76V137.94H213.557V129.737H221.76V121.545H229.952V113.342H221.76V105.139H213.557V113.342V121.545Z" fill="#EBEBEB"/>
<path d="M184.869 96.9473H176.666V105.15H184.869V96.9473Z" fill="#EBEBEB"/>
<path d="M209.456 178.933V187.136H217.659H225.861V178.933H234.054H242.256V170.73H234.054H225.861H217.659V178.933H209.456Z" fill="#EBEBEB"/>
<path d="M253.686 146.143H245.483V154.346H253.686V146.143Z" fill="#EBEBEB"/>
<path d="M225.862 154.336H217.659V162.539H225.862V154.336Z" fill="#EBEBEB"/>
<path d="M246.358 129.738H238.155H229.952V137.941H238.155V146.144H246.358V137.941V129.738Z" fill="#EBEBEB"/>
<path d="M242.257 154.336H234.054V162.539H242.257V154.336Z" fill="#EBEBEB"/>
<path d="M152.068 203.685H176.677V170.73H143.723V178.933H135.673V187.136H143.723V195.339H135.673V203.542H143.723V203.695H143.876V211.745H135.673V219.948V228.151H143.876V219.948H152.079V211.745V203.685H152.068ZM170.366 177.041V197.538H149.869V177.041H170.366Z" fill="#EBEBEB"/>
<path d="M258.652 170.731H266.855V162.539H258.652H250.449H242.257V170.731H250.449H258.652Z" fill="#EBEBEB"/>
<path d="M258.652 137.94H266.855V129.737V121.545H258.652V129.737V137.94Z" fill="#EBEBEB"/>
<path d="M193.367 179.25H185.164V187.453V195.645H193.367V187.453V179.25Z" fill="#EBEBEB"/>
<path d="M275.057 170.73H266.854V178.933H275.057V170.73Z" fill="#EBEBEB"/>
<path d="M275.047 154.335V146.143H266.854V154.335V162.538H275.047V154.335Z" fill="#EBEBEB"/>
<path d="M127.47 211.723H119.278V219.926V228.129H127.47V219.926V211.723Z" fill="#EBEBEB"/>
<path d="M275.047 113.343V72.3496H234.054V113.343H275.047ZM240.2 107.196V78.4964H268.9V107.196H240.2Z" fill="#EBEBEB"/>
<path d="M262.753 84.6426H246.358V101.038H262.753V84.6426Z" fill="#EBEBEB"/>
<path d="M275.047 187.137H234.054V228.13H275.047V187.137ZM240.2 221.972V193.273H268.9V221.972H240.2Z" fill="#EBEBEB"/>
<path d="M262.753 199.43H246.358V215.825H262.753V199.43Z" fill="#EBEBEB"/>
<path d="M119.168 72.3496V113.343H160.161V72.3496H119.168ZM154.015 78.4964V107.196H125.315V78.4964H154.015Z" fill="#EBEBEB"/>
<path d="M147.868 84.6426H131.473V101.038H147.868V84.6426Z" fill="#EBEBEB"/>
<path d="M53.6228 233.857C54.1513 231.778 52.8952 229.665 50.8171 229.137C48.739 228.608 46.6258 229.864 46.0972 231.942C45.5686 234.02 46.8248 236.134 48.9029 236.662C50.981 237.191 53.0942 235.935 53.6228 233.857Z" fill="#EBEBEB"/>
<path d="M42.1154 227.932C46.3809 223.459 53.3042 223.316 57.6792 227.724C59.6588 229.726 62.765 226.652 60.7854 224.651C54.7917 218.602 44.9372 218.646 39.053 224.826C37.1061 226.86 40.1795 229.966 42.1154 227.932Z" fill="#EBEBEB"/>
<path d="M28.936 209.864C34.8421 204.768 41.8858 201.552 49.7715 201.53C57.5917 201.508 65.3025 204.286 71.0227 209.667C73.068 211.592 76.1741 208.519 74.1289 206.594C67.5665 200.436 58.7729 197.144 49.7934 197.166C40.7155 197.188 32.6437 200.896 25.8626 206.758C23.7299 208.607 26.8142 211.702 28.936 209.864Z" fill="#EBEBEB"/>
<path d="M34.1423 219.883C38.1016 215.607 43.6468 212.927 49.4983 212.796C55.5138 212.654 61.3324 215.137 65.5105 219.435C67.4682 221.448 70.5744 218.374 68.6166 216.362C63.6621 211.276 56.6513 208.268 49.5201 208.432C42.5531 208.596 35.7938 211.67 31.0689 216.788C29.1658 218.834 32.2283 221.951 34.1423 219.883Z" fill="#EBEBEB"/>
<path d="M221.629 20.6719C222.286 15.8705 215.515 11.9221 210.43 11.5174C208.001 11.3206 205.486 11.6924 203.178 10.894C198.202 9.15498 196.211 2.72386 191.344 0.678587C187.713 -0.852633 183.524 0.514527 180.002 2.28637C176.48 4.05821 173.002 6.28941 169.065 6.54097C165.641 6.75972 161.923 5.49099 158.926 7.1644C156.695 8.41125 155.524 10.9815 153.468 12.5018C151.456 13.9893 148.831 14.2955 146.337 14.4377C143.843 14.5689 141.251 14.6018 138.976 15.6408C136.701 16.6798 134.82 19.086 135.29 21.5469L221.629 20.6719Z" fill="#EBEBEB"/>
<path d="M90.9831 101.727C91.5737 97.4288 85.5035 93.8851 80.9427 93.5242C78.7661 93.3492 76.5131 93.6773 74.4459 92.9664C69.9835 91.4133 68.2007 85.6384 63.8367 83.8009C60.5774 82.4228 56.8259 83.6478 53.676 85.2447C50.5151 86.8306 47.398 88.8321 43.8653 89.0618C40.7919 89.2586 37.4669 88.1212 34.7764 89.6196C32.7748 90.7352 31.7249 93.0429 29.8874 94.3992C28.0828 95.7335 25.7312 96.0069 23.4891 96.1382C21.2469 96.2585 18.9282 96.2804 16.8939 97.221C14.8596 98.1507 13.1752 100.305 13.5908 102.515L90.9831 101.727Z" fill="#F5F5F5"/>
<path d="M500.836 98.6874C501.47 94.0828 494.974 90.2876 490.085 89.8938C487.755 89.7079 485.338 90.0579 483.129 89.2923C478.349 87.6298 476.435 81.4502 471.776 79.4815C468.287 78.0159 464.273 79.3175 460.893 81.0237C457.513 82.7299 454.167 84.8627 450.393 85.1033C447.112 85.3111 443.536 84.0971 440.67 85.7048C438.526 86.897 437.411 89.3688 435.431 90.8235C433.495 92.2453 430.98 92.5516 428.584 92.6828C426.189 92.8141 423.706 92.8359 421.519 93.8312C419.331 94.8265 417.527 97.1343 417.986 99.4968L500.836 98.6874Z" fill="#F5F5F5"/>
<path d="M491.08 480.716C491.08 480.869 381.16 481 245.593 481C109.981 481 0.0834961 480.869 0.0834961 480.716C0.0834961 480.563 109.981 480.432 245.593 480.432C381.16 480.432 491.08 480.552 491.08 480.716Z" fill="#263238"/>
<path d="M432.281 432.603C434.469 433.554 436.087 435.578 436.897 437.831C437.706 440.073 437.783 442.534 437.509 444.907C436.984 449.501 434.381 454.138 431.57 457.802C427.698 454.423 426.813 448.538 426.55 445.531C426.124 440.751 428.267 431.892 432.281 432.603Z" fill="#3BD0B3"/>
<path d="M436.054 465.372C435.431 462.78 436.514 459.925 438.504 458.153C440.495 456.381 443.284 455.627 445.942 455.834C447.167 455.933 448.501 456.283 449.201 457.3C449.857 458.251 449.781 459.564 449.256 460.592C448.72 461.609 447.801 462.375 446.817 462.987C443.47 465.087 439.85 466.509 436.054 465.372Z" fill="#3BD0B3"/>
<path d="M431.1 479.447C431.078 479.447 431.133 479.108 431.242 478.507C431.362 477.84 431.516 476.987 431.712 475.958C432.139 473.826 432.686 470.774 434.348 467.81C435.978 464.857 438.264 462.681 440.189 461.598C441.14 461.04 441.983 460.712 442.573 460.548C442.869 460.449 443.098 460.417 443.262 460.373C443.415 460.34 443.503 460.329 443.503 460.34C443.525 460.417 442.169 460.657 440.309 461.806C438.45 462.921 436.241 465.076 434.633 467.974C433.014 470.873 432.423 473.88 431.942 476.002C431.712 477.074 431.516 477.938 431.373 478.529C431.22 479.13 431.122 479.458 431.1 479.447Z" fill="#263238"/>
<path d="M431.242 439.494C431.253 439.494 431.275 439.636 431.286 439.91C431.308 440.216 431.329 440.61 431.351 441.091C431.406 442.119 431.472 443.607 431.526 445.444C431.647 449.119 431.734 454.205 431.712 459.827C431.69 465.448 431.548 470.534 431.395 474.209C431.319 476.047 431.242 477.534 431.187 478.562C431.155 479.043 431.133 479.437 431.111 479.743C431.089 480.017 431.067 480.159 431.056 480.159C431.045 480.159 431.034 480.017 431.034 479.743C431.034 479.437 431.045 479.043 431.056 478.562C431.078 477.49 431.122 476.014 431.165 474.209C431.253 470.534 431.351 465.448 431.384 459.838C431.406 454.227 431.351 449.141 431.297 445.466C431.264 443.661 431.242 442.185 431.231 441.113C431.231 440.632 431.22 440.238 431.22 439.932C431.231 439.636 431.231 439.494 431.242 439.494Z" fill="#263238"/>
<path d="M429.372 468.17C428.497 462.614 424.745 457.594 419.67 455.166C418.38 454.542 416.696 454.137 415.635 455.1C414.574 456.062 414.814 457.791 415.328 459.125C417.494 464.692 423.313 468.618 429.284 468.542" fill="#3BD0B3"/>
<path d="M420.294 459.508C420.305 459.486 420.6 459.618 421.114 459.869C421.377 459.989 421.694 460.143 422.044 460.361C422.394 460.58 422.81 460.788 423.225 461.105C423.652 461.4 424.122 461.718 424.571 462.122C425.052 462.494 425.522 462.953 426.003 463.424C426.955 464.408 427.917 465.578 428.738 466.935C429.547 468.302 430.127 469.691 430.531 471.003C430.717 471.66 430.892 472.294 430.991 472.895C431.122 473.486 431.166 474.055 431.22 474.569C431.297 475.083 431.264 475.553 431.286 475.958C431.308 476.363 431.275 476.724 431.253 477.008C431.21 477.588 431.177 477.894 431.155 477.894C431.078 477.894 431.21 476.614 430.991 474.591C430.925 474.088 430.86 473.53 430.717 472.95C430.619 472.36 430.433 471.747 430.236 471.102C429.821 469.822 429.241 468.455 428.442 467.121C427.633 465.786 426.703 464.638 425.774 463.653C425.303 463.172 424.844 462.724 424.374 462.341C423.925 461.936 423.477 461.608 423.061 461.302C421.432 460.11 420.261 459.574 420.294 459.508Z" fill="#263238"/>
<path d="M138.462 480.725C138.374 480.736 138.156 479.533 137.718 477.608C137.281 475.683 136.592 473.047 135.607 470.215C134.612 467.382 133.518 464.888 132.665 463.105C131.812 461.323 131.243 460.24 131.32 460.196C131.386 460.163 132.075 461.169 133.026 462.919C133.978 464.658 135.148 467.163 136.143 470.029C137.139 472.894 137.773 475.574 138.112 477.532C138.451 479.489 138.528 480.714 138.462 480.725Z" fill="#263238"/>
<path d="M148.163 433.401C148.207 433.411 148.108 434.068 147.89 435.26C147.671 436.441 147.376 438.158 147.026 440.28C146.326 444.524 145.516 450.419 145.013 456.959C144.521 463.511 144.423 469.45 144.455 473.759C144.477 475.914 144.51 477.653 144.543 478.856C144.576 480.059 144.565 480.726 144.532 480.726C144.488 480.726 144.423 480.07 144.324 478.867C144.226 477.664 144.127 475.925 144.062 473.77C143.92 469.461 143.952 463.489 144.445 456.927C144.948 450.364 145.823 444.458 146.621 440.225C147.015 438.104 147.376 436.397 147.66 435.227C147.955 434.035 148.13 433.39 148.163 433.401Z" fill="#263238"/>
<path d="M163.738 460.646C163.804 460.701 163.038 461.663 161.922 463.304C160.807 464.944 159.396 467.285 158.182 470.052C156.979 472.819 156.202 475.444 155.754 477.38C155.305 479.305 155.119 480.53 155.032 480.519C154.966 480.508 155.01 479.272 155.36 477.304C155.71 475.335 156.432 472.644 157.657 469.833C158.893 467.033 160.38 464.671 161.594 463.085C162.797 461.466 163.683 460.602 163.738 460.646Z" fill="#263238"/>
<path d="M354.419 464.2C354.484 464.167 355.042 464.988 355.862 466.377C356.672 467.766 357.722 469.734 358.772 471.966C359.811 474.197 360.642 476.264 361.189 477.784C361.736 479.305 362.009 480.267 361.933 480.289C361.856 480.322 361.451 479.403 360.817 477.937C360.183 476.461 359.297 474.437 358.258 472.217C357.219 469.997 356.234 468.017 355.512 466.584C354.79 465.141 354.353 464.244 354.419 464.2Z" fill="#263238"/>
<path d="M374.543 444.283C374.576 444.294 374.478 444.797 374.27 445.705C374.04 446.722 373.734 448.002 373.384 449.533C372.651 452.771 371.765 457.255 371.098 462.275C370.442 467.285 370.125 471.856 369.993 475.17C369.939 476.734 369.895 478.058 369.851 479.097C369.818 480.026 369.786 480.54 369.753 480.54C369.709 480.54 369.676 480.026 369.632 479.097C369.589 478.167 369.567 476.822 369.589 475.159C369.621 471.834 369.873 467.241 370.54 462.199C371.207 457.168 372.159 452.661 372.99 449.446C373.406 447.838 373.767 446.536 374.051 445.651C374.335 444.754 374.499 444.272 374.543 444.283Z" fill="#263238"/>
<path d="M228.968 453.176C228.99 453.144 229.34 453.417 229.952 453.942C230.576 454.456 231.418 455.266 232.413 456.305C234.404 458.383 236.898 461.533 239.008 465.415C241.108 469.298 242.388 473.104 243.044 475.915C243.372 477.315 243.591 478.463 243.679 479.262C243.777 480.06 243.821 480.509 243.777 480.509C243.679 480.52 243.405 478.77 242.651 476.014C241.896 473.257 240.572 469.528 238.505 465.689C236.427 461.861 234.021 458.711 232.118 456.578C230.215 454.445 228.891 453.253 228.968 453.176Z" fill="#263238"/>
<path d="M247.911 441.539C247.955 441.539 247.966 442.097 247.955 443.092C247.955 444.197 247.944 445.619 247.944 447.314C247.955 450.88 248.086 455.801 248.557 461.215C249.027 466.629 249.749 471.507 250.361 475.018C250.657 476.691 250.908 478.091 251.105 479.174C251.28 480.159 251.367 480.705 251.324 480.716C251.28 480.727 251.127 480.191 250.886 479.229C250.635 478.266 250.317 476.856 249.967 475.095C249.257 471.595 248.469 466.706 247.999 461.27C247.528 455.834 247.452 450.88 247.55 447.314C247.594 445.531 247.66 444.076 247.747 443.081C247.813 442.086 247.867 441.539 247.911 441.539Z" fill="#263238"/>
<path d="M264.656 464.726C264.82 464.813 262.928 468.094 261.637 472.535C260.314 476.964 260.117 480.738 259.931 480.727C259.866 480.727 259.822 479.775 259.953 478.244C260.084 476.724 260.423 474.613 261.091 472.371C261.758 470.129 262.611 468.171 263.322 466.826C264.044 465.469 264.591 464.693 264.656 464.726Z" fill="#263238"/>
<path d="M40.9785 376.66H28.2803V477.469H40.9785V376.66Z" fill="#455A64"/>
<path d="M40.9784 477.468C40.9784 477.468 40.9674 477.282 40.9565 476.943C40.9565 476.582 40.9455 476.079 40.9346 475.434C40.9237 474.089 40.9127 472.142 40.8909 469.637C40.869 464.595 40.8471 457.311 40.8034 448.266C40.7706 430.165 40.7268 405.009 40.6831 376.67L40.9674 376.955C36.9097 376.955 32.6223 376.955 28.2692 376.955L28.5536 376.67C28.488 420.824 28.4224 459.061 28.4005 477.479L28.2692 477.348C32.3707 477.381 35.5316 477.403 37.6862 477.425C38.7472 477.436 39.5565 477.446 40.1253 477.457C40.6831 477.446 40.9784 477.468 40.9784 477.468C40.9784 477.468 40.7159 477.49 40.1799 477.49C39.6112 477.501 38.8128 477.512 37.7628 477.523C35.5863 477.545 32.4035 477.567 28.2692 477.6H28.138V477.468C28.1052 459.061 28.0505 420.824 27.9849 376.659L28.2692 376.375C32.6223 376.375 36.9097 376.375 40.9674 376.375H41.2518V376.659C41.208 405.085 41.1643 430.307 41.1315 448.463C41.0987 457.486 41.0659 464.737 41.044 469.769C41.0221 472.24 41.0112 474.165 41.0002 475.5C40.9893 476.134 40.9893 476.626 40.9784 476.976C40.9893 477.304 40.9784 477.468 40.9784 477.468Z" fill="#263238"/>
<g opacity="0.3">
<path d="M40.978 379.109H28.2798V383.309H40.978V379.109Z" fill="black"/>
</g>
<path d="M311.129 376.66H298.431V477.469H311.129V376.66Z" fill="#455A64"/>
<path d="M311.129 477.468C311.129 477.468 311.118 477.282 311.107 476.943C311.107 476.582 311.096 476.079 311.085 475.434C311.075 474.089 311.064 472.142 311.042 469.637C311.02 464.595 310.998 457.311 310.954 448.266C310.921 430.165 310.878 405.009 310.834 376.67L311.118 376.955C307.061 376.955 302.773 376.955 298.42 376.955L298.704 376.67C298.639 420.824 298.573 459.061 298.551 477.479L298.42 477.348C302.522 477.381 305.682 477.403 307.837 477.425C308.898 477.436 309.707 477.446 310.276 477.457C310.845 477.446 311.129 477.468 311.129 477.468C311.129 477.468 310.867 477.49 310.331 477.49C309.762 477.501 308.964 477.512 307.914 477.523C305.737 477.545 302.554 477.567 298.42 477.6H298.289V477.468C298.256 459.061 298.201 420.824 298.136 376.659L298.42 376.375C302.773 376.375 307.061 376.375 311.118 376.375H311.403V376.659C311.359 405.085 311.315 430.307 311.282 448.463C311.25 457.486 311.217 464.737 311.195 469.769C311.173 472.24 311.162 474.165 311.151 475.5C311.14 476.134 311.14 476.626 311.129 476.976C311.151 477.304 311.129 477.468 311.129 477.468Z" fill="#263238"/>
<path d="M291.223 288.354H278.525V372.385H291.223V288.354Z" fill="#455A64"/>
<path d="M291.234 372.384C291.223 372.373 291.223 372.231 291.212 371.946C291.212 371.64 291.201 371.225 291.19 370.689C291.179 369.562 291.168 367.943 291.147 365.865C291.125 361.665 291.103 355.606 291.059 348.081C291.026 333.01 290.983 312.054 290.939 288.364L291.223 288.648C287.155 288.648 282.878 288.648 278.525 288.648C279.083 288.079 278.678 288.506 278.809 288.386V288.407V288.462V288.571V288.779V289.206V290.048V291.732C278.809 292.859 278.809 293.974 278.809 295.09C278.809 297.321 278.809 299.52 278.809 301.707C278.809 306.071 278.809 310.348 278.798 314.504C278.787 322.816 278.777 330.669 278.766 337.899C278.722 352.336 278.689 364.268 278.656 372.395L278.514 372.253C282.594 372.285 285.744 372.318 287.909 372.329C288.97 372.34 289.779 372.351 290.359 372.362C290.939 372.362 291.234 372.384 291.234 372.384C291.234 372.384 290.972 372.406 290.436 372.417C289.867 372.428 289.058 372.439 288.008 372.45C285.82 372.471 282.637 372.493 278.525 372.526H278.383V372.384C278.361 364.257 278.317 352.325 278.273 337.888C278.262 330.658 278.252 322.805 278.241 314.493C278.241 310.337 278.241 306.06 278.23 301.696C278.23 299.509 278.23 297.31 278.23 295.079C278.23 293.964 278.23 292.848 278.23 291.721V290.037V289.195V288.768V288.561V288.451V288.396V288.375C278.361 288.243 277.945 288.637 278.514 288.068C282.867 288.068 287.144 288.068 291.212 288.068H291.497V288.353C291.453 312.119 291.409 333.152 291.376 348.278C291.343 355.781 291.311 361.818 291.289 365.997C291.267 368.042 291.256 369.639 291.245 370.754C291.234 371.268 291.234 371.673 291.223 371.979C291.245 372.253 291.234 372.384 291.234 372.384Z" fill="#263238"/>
<path d="M65.2807 288.354H52.5825V372.385H65.2807V288.354Z" fill="#455A64"/>
<path d="M65.2917 372.384C65.2808 372.373 65.2808 372.231 65.2699 371.946C65.2699 371.64 65.2589 371.225 65.248 370.689C65.237 369.562 65.2261 367.943 65.2042 365.865C65.1824 361.665 65.1605 355.606 65.1167 348.081C65.0839 333.01 65.0402 312.054 64.9964 288.364L65.2808 288.648C61.2121 288.648 56.9356 288.648 52.5826 288.648C53.1404 288.079 52.7357 288.506 52.867 288.386V288.407V288.462V288.571V288.779V289.206V290.048V291.732C52.867 292.859 52.867 293.974 52.867 295.09C52.867 297.321 52.867 299.52 52.867 301.707C52.867 306.071 52.867 310.348 52.856 314.504C52.8451 322.816 52.8342 330.669 52.8232 337.899C52.7795 352.336 52.7467 364.268 52.7138 372.395L52.5717 372.253C56.6513 372.285 59.8012 372.318 61.9668 372.329C63.0277 372.34 63.848 372.351 64.4167 372.362C64.9964 372.362 65.2917 372.384 65.2917 372.384C65.2917 372.384 65.0292 372.406 64.4933 372.417C63.9246 372.428 63.1152 372.439 62.0652 372.45C59.8778 372.471 56.695 372.493 52.5826 372.526H52.4404V372.384C52.4185 364.257 52.3748 352.325 52.331 337.888C52.3201 330.658 52.3092 322.805 52.2982 314.493C52.2982 310.337 52.2982 306.06 52.2873 301.696C52.2873 299.509 52.2873 297.31 52.2873 295.079C52.2873 293.964 52.2873 292.848 52.2873 291.721V290.037V289.195V288.768V288.561V288.451V288.396V288.375C52.4185 288.243 52.0029 288.637 52.5717 288.068C56.9247 288.068 61.2012 288.068 65.2699 288.068H65.5542V288.353C65.5105 312.119 65.4667 333.152 65.4339 348.278C65.4011 355.781 65.3683 361.818 65.3464 365.997C65.3245 368.042 65.3136 369.639 65.3027 370.754C65.2917 371.268 65.2917 371.673 65.2808 371.979C65.3027 372.253 65.3027 372.384 65.2917 372.384Z" fill="#263238"/>
<path d="M315.734 278.76H27.5254V292.213H315.734V278.76Z" fill="#455A64"/>
<path d="M315.734 292.213C315.734 292.213 315.723 291.939 315.723 291.392C315.723 290.835 315.712 290.025 315.701 288.921C315.69 286.7 315.679 283.353 315.657 278.76L315.734 278.836C280.297 278.858 164.591 278.946 27.5362 279.044H27.5253L27.8097 278.76C27.8097 283.364 27.8097 287.947 27.8097 292.213L27.5253 291.928C107.75 291.972 179.761 292.016 231.724 292.049C257.722 292.081 278.711 292.114 293.203 292.136C300.454 292.158 306.076 292.169 309.893 292.18C311.796 292.191 313.251 292.191 314.235 292.202C315.231 292.202 315.734 292.213 315.734 292.213C315.734 292.213 315.252 292.224 314.279 292.235C313.295 292.235 311.862 292.245 309.97 292.256C306.164 292.267 300.564 292.278 293.345 292.3C278.864 292.322 257.908 292.355 231.932 292.388C179.915 292.42 107.827 292.464 27.5144 292.508H27.23V292.224C27.23 287.969 27.23 283.386 27.23 278.771V278.486H27.5144H27.5253C164.58 278.585 280.275 278.661 315.723 278.694H315.799V278.771C315.777 283.386 315.767 286.755 315.756 288.975C315.745 290.069 315.745 290.878 315.734 291.425C315.745 291.961 315.734 292.213 315.734 292.213Z" fill="#263238"/>
<path d="M316.489 298.939H28.2803V312.392H316.489V298.939Z" fill="#455A64"/>
<path d="M316.489 312.392C316.489 312.392 316.478 312.119 316.478 311.572C316.478 311.014 316.467 310.205 316.456 309.1C316.445 306.88 316.434 303.533 316.412 298.939L316.489 299.016C281.052 299.038 165.346 299.125 28.2911 299.224H28.2802L28.5645 298.939C28.5645 303.544 28.5645 308.127 28.5645 312.392L28.2802 312.108C108.505 312.152 180.516 312.195 232.479 312.228C258.477 312.261 279.466 312.294 293.958 312.316C301.209 312.338 306.831 312.349 310.648 312.359C312.551 312.37 314.006 312.37 314.99 312.381C315.975 312.381 316.489 312.392 316.489 312.392C316.489 312.392 316.007 312.403 315.034 312.414C314.05 312.414 312.617 312.425 310.725 312.436C306.918 312.447 301.319 312.458 294.1 312.48C279.619 312.502 258.663 312.534 232.687 312.567C180.669 312.6 108.582 312.644 28.2692 312.688H27.9849V312.403C27.9849 308.149 27.9849 303.566 27.9849 298.95V298.666H28.2692H28.2802C165.335 298.764 281.03 298.841 316.478 298.874H316.554V298.95C316.532 303.566 316.521 306.935 316.51 309.155C316.5 310.249 316.5 311.058 316.489 311.605C316.5 312.141 316.489 312.392 316.489 312.392Z" fill="#263238"/>
<path d="M316.489 319.861H28.2803V333.314H316.489V319.861Z" fill="#455A64"/>
<path d="M316.489 333.314C316.489 333.314 316.478 333.041 316.478 332.494C316.478 331.936 316.467 331.127 316.456 330.022C316.445 327.802 316.434 324.455 316.412 319.861L316.489 319.938C281.052 319.96 165.346 320.047 28.2911 320.146H28.2802L28.5645 319.861C28.5645 324.466 28.5645 329.049 28.5645 333.314L28.2802 333.03C108.505 333.074 180.516 333.117 232.479 333.15C258.477 333.183 279.466 333.216 293.958 333.238C301.209 333.259 306.831 333.27 310.648 333.281C312.551 333.292 314.006 333.292 314.99 333.303C315.975 333.303 316.489 333.314 316.489 333.314C316.489 333.314 316.007 333.325 315.034 333.336C314.05 333.336 312.617 333.347 310.725 333.358C306.918 333.369 301.319 333.38 294.1 333.402C279.619 333.424 258.663 333.456 232.687 333.489C180.669 333.522 108.582 333.566 28.2692 333.609H27.9849V333.325C27.9849 329.071 27.9849 324.488 27.9849 319.872V319.588H28.2692H28.2802C165.335 319.686 281.03 319.763 316.478 319.796H316.554V319.872C316.532 324.488 316.521 327.856 316.51 330.077C316.5 331.17 316.5 331.98 316.489 332.527C316.5 333.063 316.489 333.314 316.489 333.314Z" fill="#263238"/>
<path d="M316.489 340.785H28.2803V354.238H316.489V340.785Z" fill="#455A64"/>
<path d="M316.489 354.238C316.489 354.238 316.478 353.965 316.478 353.418C316.478 352.86 316.467 352.051 316.456 350.946C316.445 348.726 316.434 345.379 316.412 340.785L316.489 340.862C281.052 340.884 165.346 340.971 28.2911 341.07H28.2802L28.5645 340.785C28.5645 345.39 28.5645 349.972 28.5645 354.238L28.2802 353.954C108.505 353.997 180.516 354.041 232.479 354.074C258.477 354.107 279.466 354.14 293.958 354.161C301.209 354.183 306.831 354.194 310.648 354.205C312.551 354.216 314.006 354.216 314.99 354.227C315.975 354.227 316.489 354.238 316.489 354.238C316.489 354.238 316.007 354.249 315.034 354.26C314.05 354.26 312.617 354.271 310.725 354.282C306.918 354.293 301.319 354.304 294.1 354.326C279.619 354.347 258.663 354.38 232.687 354.413C180.669 354.446 108.582 354.49 28.2692 354.533H27.9849V354.249C27.9849 349.994 27.9849 345.412 27.9849 340.796V340.512H28.2692H28.2802C165.335 340.61 281.03 340.687 316.478 340.72H316.554V340.796C316.532 345.412 316.521 348.78 316.51 351.001C316.5 352.094 316.5 352.904 316.489 353.451C316.5 353.986 316.489 354.238 316.489 354.238Z" fill="#263238"/>
<path d="M321.727 365.656H15.7568V379.109H321.727V365.656Z" fill="#455A64"/>
<path d="M321.727 379.109C321.727 379.109 321.717 378.836 321.717 378.289C321.717 377.742 321.706 376.922 321.695 375.817C321.684 373.608 321.673 370.25 321.651 365.656L321.727 365.733C285 365.755 161.835 365.842 15.7787 365.941H15.7678L16.0521 365.656C16.0521 370.261 16.0521 374.844 16.0521 379.109L15.7678 378.825C100.904 378.868 177.355 378.912 232.534 378.945C260.14 378.978 282.43 379.011 297.819 379.033C305.518 379.054 311.49 379.065 315.548 379.076C317.571 379.087 319.113 379.087 320.163 379.098C321.181 379.098 321.727 379.109 321.727 379.109C321.727 379.109 321.213 379.12 320.185 379.131C319.146 379.131 317.615 379.142 315.614 379.153C311.567 379.164 305.628 379.175 297.961 379.197C282.583 379.218 260.326 379.251 232.742 379.284C177.508 379.317 100.98 379.361 15.7678 379.404H15.4834V379.12C15.4834 374.865 15.4834 370.283 15.4834 365.667V365.383H15.7678H15.7787C161.846 365.481 285 365.569 321.727 365.591H321.804V365.667C321.782 370.283 321.771 373.651 321.76 375.883C321.749 376.976 321.749 377.786 321.738 378.333C321.738 378.858 321.727 379.109 321.727 379.109Z" fill="#263238"/>
<g opacity="0.3">
<path d="M311.129 379.109H298.431V383.309H311.129V379.109Z" fill="black"/>
</g>
<path d="M156.235 210.851L153.49 228.558L146.425 244.68L135.958 237.997L132.239 228.591L129.122 220.705C129.122 220.705 118.064 223.363 113.656 213.027C111.535 208.04 107.991 197.398 104.896 187.74C101.571 177.35 106.777 166.139 116.872 161.994L117.878 161.578C128.947 157.761 138.375 165.034 141.886 176.201L156.235 210.851Z" fill="#A2675F"/>
<path d="M129.1 220.694C129.1 220.694 135.892 218.528 141.065 211.266C141.065 211.266 140.945 220.059 130.182 223.395L129.1 220.694Z" fill="#7A4A45"/>
<path d="M111.644 195.659C111.939 196.457 112.858 196.862 113.689 196.567C114.52 196.271 114.958 195.396 114.674 194.598C114.378 193.8 113.459 193.395 112.628 193.69C111.786 193.986 111.349 194.861 111.644 195.659Z" fill="#263238"/>
<path d="M108.833 191.404C109.096 191.525 109.883 190.223 111.48 189.578C113.066 188.9 114.575 189.239 114.674 188.976C114.728 188.856 114.389 188.582 113.733 188.418C113.077 188.254 112.071 188.243 111.075 188.659C110.08 189.075 109.402 189.786 109.074 190.354C108.735 190.945 108.702 191.361 108.833 191.404Z" fill="#263238"/>
<path d="M125.567 189.446C125.862 190.245 126.781 190.649 127.612 190.354C128.443 190.059 128.881 189.184 128.596 188.385C128.301 187.587 127.382 187.182 126.551 187.477C125.709 187.773 125.271 188.659 125.567 189.446Z" fill="#263238"/>
<path d="M124.561 184.414C124.812 184.557 125.731 183.354 127.383 182.883C129.034 182.38 130.5 182.883 130.62 182.632C130.686 182.511 130.38 182.205 129.745 181.975C129.111 181.746 128.115 181.625 127.087 181.932C126.059 182.238 125.294 182.872 124.911 183.397C124.506 183.933 124.441 184.349 124.561 184.414Z" fill="#263238"/>
<path d="M124.113 199.956C124.08 199.858 123.019 200.099 121.323 200.558C120.897 200.678 120.481 200.766 120.295 200.514C120.077 200.263 120.066 199.749 120.066 199.191C120.044 198.042 120.022 196.85 119.989 195.592C119.847 190.485 119.563 186.35 119.355 186.361C119.147 186.372 119.103 190.518 119.245 195.625C119.289 196.883 119.333 198.075 119.377 199.224C119.409 199.749 119.366 200.383 119.825 200.908C120.066 201.17 120.449 201.269 120.744 201.225C121.039 201.192 121.269 201.105 121.477 201.039C123.128 200.46 124.145 200.044 124.113 199.956Z" fill="#263238"/>
<path d="M121.509 177.611C121.848 177.982 123.357 177.118 125.326 176.572C127.284 175.992 129.023 175.915 129.11 175.423C129.143 175.193 128.717 174.887 127.929 174.723C127.153 174.548 126.026 174.548 124.845 174.887C123.675 175.226 122.712 175.828 122.143 176.386C121.564 176.954 121.356 177.436 121.509 177.611Z" fill="#263238"/>
<path d="M106.547 185.126C106.973 185.378 107.925 184.546 109.237 183.978C110.528 183.365 111.786 183.212 111.884 182.731C111.917 182.501 111.6 182.206 110.965 182.064C110.342 181.921 109.423 181.976 108.526 182.37C107.63 182.774 106.973 183.431 106.667 183.989C106.35 184.557 106.361 184.995 106.547 185.126Z" fill="#263238"/>
<path d="M144.182 184.23C144.324 184.076 150.449 179.176 153.151 186.373C155.852 193.57 148.065 194.795 147.977 194.587C147.89 194.401 144.182 184.23 144.182 184.23Z" fill="#A2675F"/>
<path d="M149.159 191.055C149.181 191.022 149.312 191.098 149.563 191.109C149.804 191.131 150.187 191.055 150.504 190.781C151.16 190.212 151.346 188.769 150.898 187.456C150.668 186.789 150.296 186.22 149.87 185.794C149.454 185.345 148.973 185.105 148.568 185.181C148.153 185.236 147.967 185.564 147.956 185.805C147.934 186.045 148.032 186.166 147.999 186.199C147.988 186.22 147.803 186.133 147.748 185.816C147.726 185.663 147.748 185.466 147.857 185.258C147.978 185.05 148.207 184.886 148.481 184.809C149.049 184.634 149.738 184.963 150.209 185.433C150.712 185.892 151.138 186.538 151.39 187.281C151.882 188.747 151.652 190.387 150.723 191.077C150.263 191.394 149.782 191.405 149.509 191.317C149.235 191.219 149.137 191.077 149.159 191.055Z" fill="#7A4A45"/>
<path d="M98.7487 176.08C98.4972 174.571 98.9675 172.843 100.28 172.055C99.1425 170.973 98.8909 169.08 99.7003 167.735C100.51 166.39 102.292 165.723 103.78 166.215C102.796 164.082 104.742 161.249 107.083 161.381C106.492 160.156 106.853 158.548 107.914 157.695C108.975 156.842 110.627 156.842 111.698 157.695C112.136 154.534 116.15 152.489 118.972 153.987C121.389 151.81 125.523 151.909 127.82 154.217C130.193 153.385 133.037 154.184 134.634 156.12C136.176 155.628 137.959 156.021 139.162 157.104C140.354 158.187 140.912 159.937 140.573 161.512C142.728 161.643 144.27 164.334 143.285 166.248C144.554 166.335 145.735 167.199 146.195 168.37C146.665 169.551 146.381 170.984 145.517 171.913C146.61 171.607 147.606 172.821 147.704 173.958C147.802 175.096 147.387 176.212 147.365 177.349C147.354 178.29 147.617 179.208 147.66 180.149C147.748 181.91 146.993 183.693 145.692 184.874C145.779 184.918 145.877 184.961 145.965 185.016C146.523 185.847 145.517 186.996 144.51 186.985C143.504 186.974 142.651 186.296 141.842 185.705C140.901 185.038 139.884 184.436 139.195 183.507C138.517 182.577 138.276 181.188 139.02 180.313C137.631 180.411 136.318 179.493 135.564 178.312C134.809 177.141 134.503 175.741 134.196 174.374C133.759 172.362 133.321 170.338 132.884 168.326C130.281 169.321 127.142 168.72 125.097 166.827C123.839 169.004 120.448 169.518 118.6 167.812C118.83 170.699 116.391 173.521 113.514 173.74C114.4 175.096 112.322 177.546 111.042 178.53C109.752 179.515 107.52 179.241 107.52 179.241C107.52 179.241 105.639 181.735 104.053 181.757C102.5 181.779 99.9956 180.805 100.291 179.033C100.313 179.044 99.0003 177.579 98.7487 176.08Z" fill="#263238"/>
<path d="M143.646 166.084C143.569 166.084 143.734 166.62 143.318 167.288C143.11 167.605 142.738 167.922 142.246 167.977C141.754 168.031 141.141 167.813 140.824 167.331L140.562 166.938L140.354 167.364C140.059 167.977 139.326 168.48 138.527 168.48C137.631 168.469 136.854 167.791 136.646 167.047L136.526 166.609L136.209 166.927C135.804 167.331 135.246 167.517 134.765 167.506C134.284 167.506 133.868 167.309 133.573 167.102C132.982 166.653 132.851 166.183 132.785 166.216C132.742 166.216 132.753 166.752 133.365 167.353C133.671 167.638 134.142 167.911 134.743 167.955C135.334 167.998 136.034 167.813 136.581 167.309L136.143 167.189C136.384 168.152 137.335 169.038 138.527 169.059C139.566 169.059 140.474 168.414 140.846 167.605L140.376 167.638C140.868 168.316 141.677 168.534 142.312 168.425C142.979 168.316 143.416 167.856 143.613 167.452C144.007 166.598 143.679 166.041 143.646 166.084Z" fill="#455A64"/>
<path d="M147.529 172.449C147.474 172.417 147.354 172.756 146.895 173.062C146.468 173.357 145.527 173.609 144.795 173.04L144.554 172.854L144.445 173.149C144.226 173.74 143.613 174.298 142.848 174.407C142.104 174.528 141.196 174.079 140.835 173.292L140.627 172.832L140.343 173.248C140.278 173.346 140.179 173.445 140.081 173.532C139.61 173.915 138.899 173.959 138.451 173.642C137.981 173.335 137.74 172.734 137.806 172.253L137.893 171.706L137.423 171.99C136.843 172.34 136.165 172.395 135.618 172.263C135.071 172.132 134.645 171.815 134.371 171.509C133.814 170.864 133.77 170.317 133.693 170.339C133.66 170.328 133.584 170.918 134.131 171.706C134.404 172.078 134.864 172.493 135.509 172.679C136.143 172.865 136.953 172.843 137.685 172.438L137.303 172.176C137.182 172.876 137.488 173.663 138.145 174.112C138.812 174.582 139.796 174.517 140.452 173.981C140.606 173.86 140.737 173.718 140.835 173.565L140.332 173.521C140.824 174.549 141.962 175.085 142.946 174.921C143.931 174.757 144.641 174.035 144.893 173.281L144.543 173.379C145.035 173.74 145.593 173.795 146.031 173.718C146.479 173.653 146.829 173.445 147.07 173.248C147.518 172.843 147.551 172.449 147.529 172.449Z" fill="#455A64"/>
<path d="M107.936 160.79C107.98 160.811 108.045 160.418 108.548 160.002C108.8 159.805 109.161 159.619 109.609 159.63C110.047 159.641 110.572 159.849 110.9 160.297L111.162 160.658L111.228 160.21C111.337 159.401 111.928 158.482 112.912 158.077C113.864 157.662 115.231 157.935 115.997 158.897L116.325 159.313L116.467 158.799C116.718 157.869 117.462 157.016 118.436 156.612C119.398 156.185 120.612 156.338 121.531 156.983C121.903 157.235 122.22 157.574 122.45 157.946L122.614 158.208L122.865 158.022C124.101 157.115 125.917 157.268 126.901 158.208C127.929 159.149 128.181 160.658 127.765 161.73L127.612 162.135L128.028 162.047C129.034 161.829 130.018 162.08 130.718 162.529C131.429 162.977 131.856 163.611 132.085 164.169C132.545 165.307 132.348 166.05 132.424 166.039C132.446 166.039 132.501 165.875 132.534 165.536C132.556 165.197 132.545 164.683 132.337 164.071C132.129 163.469 131.703 162.736 130.926 162.211C130.171 161.686 129.089 161.358 127.929 161.588L128.192 161.905C128.695 160.658 128.443 158.941 127.262 157.815C126.081 156.688 124.003 156.48 122.515 157.563L122.931 157.64C122.657 157.191 122.286 156.797 121.848 156.502C120.776 155.747 119.343 155.572 118.206 156.087C117.068 156.568 116.226 157.563 115.942 158.668L116.412 158.569C115.461 157.421 113.864 157.147 112.737 157.661C111.6 158.176 110.965 159.236 110.878 160.177L111.206 160.09C110.78 159.543 110.145 159.335 109.631 159.346C109.095 159.357 108.691 159.608 108.439 159.849C108.176 160.101 108.056 160.341 108.001 160.516C107.925 160.691 107.925 160.79 107.936 160.79Z" fill="#455A64"/>
<path d="M128.859 198.217C128.596 198.304 129.307 200.043 128.323 201.881C127.35 203.729 125.425 204.287 125.512 204.539C125.534 204.659 126.059 204.703 126.847 204.407C127.623 204.123 128.64 203.412 129.242 202.285C129.832 201.159 129.811 199.989 129.581 199.256C129.34 198.501 128.968 198.151 128.859 198.217Z" fill="#263238"/>
<path d="M118.206 229.718L109.533 254.13L111.535 280.817L117.058 326.918C117.058 326.918 137.369 320.06 138.276 320.749C139.184 321.438 129.297 274.014 129.297 274.014L136.461 235.438L136.001 224.074L118.206 229.718Z" fill="#9F79D2"/>
<path d="M118.207 229.717L108.67 251.602L89.0262 259.335L68.3438 265.7L71.2859 280.521C71.8874 283.561 74.9389 285.453 77.9248 284.644L95.3479 279.974L111.579 279.23L120.022 259.608L118.207 229.717Z" fill="#9F79D2"/>
<path d="M75.1246 259.598L76.5683 257.805C76.5683 257.805 79.237 257.794 80.6807 258.702C82.1245 259.609 84.3666 262.934 84.651 264.662C84.9353 266.39 84.651 269.715 84.651 269.715L74.7637 259.598" fill="#A2675F"/>
<path d="M55.9297 248.967C55.9297 249.262 74.4903 268.96 74.4903 268.96L77.9793 272.405H89.2009L67.5451 248.365L58.2046 246.779L55.9297 248.967Z" fill="#263238"/>
<path d="M131.342 292.727C131.321 292.738 131.178 292.497 130.916 292.038C130.631 291.524 130.271 290.846 129.811 290.003C128.871 288.221 127.536 285.639 125.994 282.391C124.452 279.143 122.647 275.249 121.072 270.743C120.7 269.605 120.318 268.446 120.055 267.21C119.88 266.609 119.858 265.941 119.76 265.307C119.738 264.673 119.716 264.027 119.716 263.382C119.683 260.79 119.749 258.11 119.847 255.365C119.979 251.898 120.154 248.529 120.361 245.336L120.372 245.171L120.525 245.106C122.527 244.231 124.441 243.389 126.289 242.579L126.366 243.072C124.835 242.875 123.358 242.678 121.936 242.503L121.575 242.459L121.761 242.142C124.594 237.253 126.967 233.173 128.663 230.264C129.483 228.886 130.139 227.781 130.621 226.961C130.839 226.611 131.014 226.337 131.156 226.097C131.277 225.9 131.353 225.812 131.364 225.812C131.375 225.812 131.331 225.933 131.222 226.13C131.091 226.37 130.938 226.666 130.752 227.027C130.292 227.858 129.68 228.984 128.903 230.395C127.252 233.337 124.944 237.45 122.177 242.372L122.002 242.011C123.413 242.186 124.9 242.361 126.432 242.547L127.361 242.656L126.508 243.039C124.671 243.859 122.757 244.712 120.766 245.598L120.93 245.368C120.733 248.551 120.558 251.92 120.438 255.376C120.339 258.11 120.263 260.79 120.296 263.36C120.296 264.005 120.318 264.64 120.339 265.274C120.438 265.887 120.438 266.499 120.613 267.09C120.864 268.293 121.225 269.441 121.597 270.568C123.139 275.041 124.9 278.946 126.388 282.216C127.886 285.475 129.166 288.089 130.041 289.894C130.456 290.758 130.796 291.447 131.047 291.972C131.244 292.464 131.353 292.716 131.342 292.727Z" fill="#263238"/>
<path d="M66.8997 259.598C66.8997 259.598 64.0888 261.632 64.1545 262.791C64.231 263.951 64.8763 265.176 65.5216 265.394C66.1669 265.613 68.1247 266.619 68.1247 266.619C68.1247 266.619 66.3966 268.282 66.8997 270.01C67.4028 271.738 68.5622 272.176 68.5622 272.176C68.5622 272.176 68.6387 274.418 69.284 275.708C69.9293 277.01 72.0293 277.436 72.0293 277.436C72.0293 277.436 73.1887 279.788 74.1949 280.958C75.2011 282.128 77.2245 282.489 77.2245 282.489C77.2245 282.489 79.8276 282.774 81.1947 281.844C82.5619 280.903 84.0822 279.963 84.1588 276.791C84.1588 276.791 90.3711 273.685 90.4368 272.099C90.5133 270.513 89.7914 270.01 89.7914 270.01L86.6853 270.59C86.6853 270.59 86.2478 268.927 85.3181 268.785C84.3775 268.643 73.0465 271.388 73.0465 271.388C73.0465 271.388 80.7682 270.163 80.9869 268.643C81.2057 267.122 81.2713 265.832 80.1229 265.537C78.9635 265.252 70.7387 266.127 70.7387 266.127L70.3121 264.673C70.3121 264.673 72.5433 264.749 72.5433 262.791C72.5433 260.834 71.3184 260.407 71.3184 260.407L66.8997 259.598Z" fill="#A2675F"/>
<path d="M131.342 225.813L132.294 233.349L126.453 266.128L132.37 294.423L163.038 303.49L175.102 298.294L170.99 218.857L160.031 211.157L155.82 208.324L140.015 232.233L131.342 225.813Z" fill="#FAFAFA"/>
<path d="M159.134 210.555L166.801 213.978L193.947 217.631L208.592 294.651L210.43 303.5L238.506 345.51C239.796 347.435 239.173 350.049 237.16 351.197L214.159 364.333C212.398 365.23 210.233 364.672 209.139 363.02L179.915 318.987L165.423 300.448C165.423 300.448 156.75 274.21 155.612 263.032C154.475 251.854 154.956 239.878 155.612 233.6C156.312 226.873 159.134 210.555 159.134 210.555Z" fill="#9F79D2"/>
<path d="M193.936 217.621C197.513 219.502 200.039 222.914 200.794 226.885C202.522 236.028 207.728 251.975 209.686 269.004C212.42 292.825 206.011 300.175 202.992 304.288C200.028 308.313 181.249 317.139 181.249 317.139L167.173 298.382L182.758 285.607L181.391 252.532C181.391 252.532 175.912 245.008 178.657 233.83C181.391 222.641 189.376 216.943 193.936 217.621Z" fill="#9F79D2"/>
<g opacity="0.3">
<path d="M208.461 294.018C206.328 299.803 203.889 304.67 198.924 307.427C193.641 310.358 186.269 314.492 181.249 317.139L184.935 322.848C190.699 321.962 201.33 315.247 204.797 310.555C208.264 305.863 209.303 299.782 208.461 294.018Z" fill="black"/>
</g>
<path d="M181.009 254.283C181.02 254.283 181.052 254.447 181.107 254.775C181.162 255.125 181.249 255.617 181.348 256.229C181.555 257.542 181.84 259.434 182.223 261.851C182.955 266.762 184.016 273.838 185.329 282.577L185.351 282.687L185.263 282.763C180.079 287.335 174.009 292.683 167.337 298.568L167.37 298.218C171.701 303.982 176.47 310.314 181.468 316.964L181.118 316.877C185.799 314.514 190.633 311.966 195.435 309.122C196.791 308.302 198.147 307.482 199.438 306.596C200.739 305.732 202.008 304.802 203.069 303.752C204.994 301.433 206.46 298.677 207.521 295.921C209.653 290.332 210.189 284.491 210.146 279.001C210.069 273.499 209.413 268.293 208.658 263.448C207.903 258.603 207.028 254.119 206.164 250.028C204.436 241.858 202.785 235.306 201.625 230.789C201.035 228.558 200.575 226.808 200.258 225.594C200.105 225.014 199.985 224.566 199.908 224.238C199.832 223.932 199.799 223.779 199.799 223.768C199.799 223.768 199.864 223.921 199.963 224.216C200.061 224.544 200.204 224.982 200.368 225.55C200.718 226.732 201.221 228.471 201.833 230.724C203.069 235.23 204.775 241.77 206.558 249.93C207.444 254.009 208.341 258.504 209.117 263.361C209.894 268.206 210.572 273.445 210.671 278.979C210.736 284.502 210.2 290.419 208.046 296.096C206.952 298.929 205.519 301.674 203.485 304.124C202.347 305.25 201.079 306.18 199.755 307.055C198.443 307.941 197.086 308.772 195.719 309.592C190.896 312.436 186.062 314.995 181.359 317.358L181.151 317.467L181.009 317.281C176.021 310.632 171.274 304.288 166.954 298.513L166.812 298.327L166.987 298.174C173.681 292.322 179.773 286.996 184.979 282.446L184.913 282.632C183.677 273.882 182.682 266.795 181.982 261.873C181.654 259.445 181.391 257.553 181.216 256.24C181.14 255.617 181.074 255.125 181.03 254.775C181.02 254.458 180.998 254.283 181.009 254.283Z" fill="#263238"/>
<path d="M161.179 282.546C161.157 282.546 161.179 282.283 161.234 281.78C161.311 281.222 161.398 280.511 161.518 279.614C161.792 277.667 162.186 274.966 162.656 271.663C163.618 264.947 165.106 255.694 166.56 245.446C167.239 240.481 167.884 235.756 168.464 231.447L168.628 231.731C167.009 231.107 165.467 230.517 163.99 229.948L163.542 229.773L163.946 229.511C165.609 228.428 167.173 227.422 168.606 226.492L168.507 226.7C167.949 222.828 167.501 219.667 167.173 217.403C167.031 216.353 166.921 215.5 166.845 214.866C166.779 214.286 166.746 213.98 166.768 213.969C166.79 213.969 166.856 214.264 166.965 214.844C167.074 215.478 167.228 216.32 167.414 217.37C167.785 219.634 168.299 222.784 168.934 226.634L168.956 226.765L168.835 226.842C167.414 227.793 165.86 228.811 164.209 229.915L164.165 229.478C165.642 230.036 167.195 230.615 168.814 231.228L169.01 231.304L168.978 231.512C168.398 235.821 167.774 240.557 167.107 245.523C165.653 255.771 164.089 265.024 163.039 271.729C162.492 275.032 162.043 277.722 161.715 279.658C161.551 280.544 161.431 281.266 161.332 281.813C161.267 282.294 161.201 282.546 161.179 282.546Z" fill="#263238"/>
<path d="M189.824 218.659C189.89 218.747 188.501 219.709 186.63 221.645C185.69 222.608 184.673 223.855 183.666 225.32C182.693 226.808 181.741 228.514 180.954 230.406C180.188 232.309 179.674 234.201 179.324 235.94C179.018 237.69 178.865 239.287 178.865 240.632C178.843 243.323 179.16 244.986 179.051 245.007C179.007 245.018 178.919 244.603 178.777 243.859C178.701 243.487 178.624 243.028 178.58 242.481C178.537 241.945 178.449 241.322 178.46 240.643C178.405 239.276 178.526 237.647 178.81 235.853C179.127 234.07 179.641 232.134 180.429 230.187C181.227 228.251 182.223 226.512 183.24 225.014C184.29 223.537 185.351 222.291 186.346 221.35C186.816 220.858 187.308 220.475 187.713 220.114C188.118 219.753 188.501 219.48 188.818 219.272C189.452 218.845 189.802 218.627 189.824 218.659Z" fill="#263238"/>
<path d="M111.415 279.23C111.262 279.241 110.759 273.937 110.288 267.374C109.829 260.812 109.577 255.486 109.73 255.475C109.884 255.464 110.387 260.768 110.857 267.331C111.327 273.893 111.579 279.219 111.415 279.23Z" fill="#263238"/>
<path d="M203.878 327.518L208.1 336.115L227.601 323.635L220.842 315.99L203.878 327.518Z" fill="#B79ADD"/>
<path d="M203.878 327.519C203.845 327.508 204.261 327.201 205.049 326.644C205.913 326.042 207.061 325.222 208.483 324.215C211.545 322.105 215.767 319.184 220.689 315.772L220.886 315.641L221.039 315.816C223.128 318.178 225.414 320.748 227.809 323.45L228.028 323.701L227.743 323.876C227.47 324.051 227.186 324.237 226.89 324.423C219.639 329.028 213.066 333.206 208.198 336.29L208.002 336.411L207.903 336.203C206.656 333.556 205.639 331.39 204.895 329.804C204.578 329.104 204.316 328.536 204.108 328.087C203.944 327.715 203.867 327.508 203.878 327.519C203.9 327.519 204.02 327.737 204.228 328.131C204.458 328.579 204.753 329.148 205.125 329.837C205.902 331.368 206.974 333.468 208.275 336.039L207.98 335.962C212.825 332.834 219.365 328.612 226.584 323.964C226.879 323.778 227.164 323.592 227.437 323.417L227.383 323.844C224.998 321.142 222.723 318.55 220.645 316.187L220.995 316.231C216.062 319.512 211.852 322.334 208.789 324.38C207.313 325.342 206.109 326.129 205.224 326.709C204.841 326.95 204.513 327.158 204.25 327.333C204.02 327.453 203.9 327.519 203.878 327.519Z" fill="#263238"/>
<g opacity="0.3">
<path d="M204.075 327.901C204.152 328.065 208.406 341.113 208.406 341.113L226.595 328.196L225.031 325.287L208.1 336.126L204.075 327.901Z" fill="black"/>
</g>
<g opacity="0.3">
<path d="M167.348 217.566L170.575 228.23L167.348 229.718L171.657 231.84C171.657 231.84 164.854 269.026 164.001 272.417C163.148 275.807 162.098 276.901 162.098 276.901L168.737 231.479L164.089 229.718L168.737 226.677L167.348 217.566Z" fill="black"/>
</g>
<path d="M95.3805 275.675C95.1945 275.675 95.5445 272.153 94.1446 268.128C92.7993 264.092 90.3821 261.5 90.5353 261.391C90.579 261.347 91.2462 261.927 92.1102 263.053C92.9743 264.18 93.9805 265.886 94.6914 267.942C95.3914 269.999 95.6211 271.978 95.6211 273.389C95.6211 274.822 95.4461 275.686 95.3805 275.675Z" fill="#263238"/>
<g opacity="0.3">
<path d="M109.61 254.426C106.361 262.508 107.532 271.39 111.327 279.232C110.747 270.208 110.408 263.176 109.61 254.426Z" fill="black"/>
</g>
<path d="M156.804 217.292C156.837 217.314 156.629 217.697 156.224 218.364C155.765 219.14 155.196 220.092 154.529 221.197C153.118 223.603 151.226 226.95 149.356 230.767C148.087 233.337 147.004 235.787 146.129 237.876L145.998 238.182L145.746 237.985C143.953 236.553 142.586 235.207 141.678 234.234C140.77 233.25 140.311 232.648 140.343 232.615C140.387 232.582 140.923 233.118 141.875 234.037C142.837 234.945 144.237 236.224 146.042 237.603L145.659 237.701C146.501 235.59 147.562 233.107 148.831 230.526C150.712 226.687 152.659 223.351 154.168 220.989C154.923 219.808 155.557 218.878 156.017 218.244C156.509 217.609 156.771 217.27 156.804 217.292Z" fill="#263238"/>
<path d="M138.845 232.397C138.987 232.452 138.178 234.924 137.019 237.964L136.876 238.347L136.57 238.074C136.526 238.03 136.472 237.997 136.428 237.954C133.891 235.744 132.261 233.535 132.381 233.447C132.512 233.338 134.306 235.35 136.811 237.527C136.855 237.571 136.909 237.614 136.953 237.647L136.505 237.757C137.664 234.727 138.703 232.343 138.845 232.397Z" fill="#263238"/>
<path d="M142.061 288.353C142.039 288.353 142.017 288.167 141.973 287.817C141.94 287.402 141.897 286.888 141.842 286.275C141.744 284.842 141.623 282.928 141.459 280.61C141.164 275.819 140.825 269.202 140.529 261.885C140.245 254.568 140.081 247.94 140.081 243.139C140.081 240.743 140.114 238.796 140.158 237.451C140.19 236.839 140.212 236.325 140.234 235.909C140.256 235.559 140.278 235.373 140.3 235.373C140.322 235.373 140.333 235.559 140.344 235.909C140.354 236.325 140.365 236.839 140.376 237.451C140.398 238.884 140.442 240.798 140.486 243.128C140.584 247.918 140.814 254.546 141.098 261.863C141.394 269.136 141.656 275.721 141.853 280.588C141.929 282.917 142.006 284.842 142.05 286.264C142.061 286.877 142.072 287.391 142.083 287.806C142.083 288.156 142.083 288.342 142.061 288.353Z" fill="#263238"/>
<path d="M78.0229 436.049L80.8557 462.758C80.8557 462.758 54.6609 474.603 54.7046 479.591L106.69 475.959L103.988 434.168L78.0229 436.049Z" fill="#8758C7"/>
<path d="M96.769 459.379C97.7971 459.587 98.5737 460.67 98.4096 461.698C98.2456 462.726 97.1518 463.524 96.1237 463.338C95.0956 463.153 94.1222 461.884 94.4066 460.878C94.68 459.871 96.0143 459.007 96.9768 459.434" fill="#E0E0E0"/>
<path d="M106.799 477.053L106.536 473.006L56.5638 476.812C56.5638 476.812 54.3216 477.982 54.6935 479.59L106.799 477.053Z" fill="#E0E0E0"/>
<path d="M79.9913 462.55C80.0132 462.802 81.2929 462.835 82.6053 463.557C83.9287 464.256 84.6506 465.306 84.8803 465.186C85.11 465.121 84.6287 463.633 83.0319 462.78C81.435 461.905 79.9257 462.321 79.9913 462.55Z" fill="#263238"/>
<path d="M74.698 465.187C74.6543 465.439 75.7917 465.789 76.7214 466.806C77.6839 467.79 77.9901 468.938 78.2417 468.906C78.4823 468.928 78.5589 467.429 77.3667 466.193C76.1964 464.946 74.6871 464.946 74.698 465.187Z" fill="#263238"/>
<path d="M72.0617 471.923C72.2914 471.956 72.5648 470.665 71.8101 469.32C71.0664 467.975 69.8305 467.504 69.743 467.723C69.6117 467.942 70.432 468.631 71.0336 469.747C71.657 470.851 71.8101 471.912 72.0617 471.923Z" fill="#263238"/>
<path d="M80.024 456.393C80.1444 456.612 81.2818 456.186 82.7256 456.186C84.1693 456.153 85.3177 456.558 85.438 456.328C85.5693 456.131 84.4208 455.267 82.7146 455.3C81.0193 455.311 79.8928 456.197 80.024 456.393Z" fill="#263238"/>
<path d="M68.7696 328.285L44.6967 340.185C44.6967 340.185 24.5065 319.71 19.8472 321.482L41.2514 368.993L79.521 351.986L68.7696 328.285Z" fill="#8758C7"/>
<path d="M53.37 353.942C53.534 354.97 52.7903 356.075 51.7622 356.283C50.7341 356.491 49.6076 355.736 49.4326 354.708C49.2466 353.68 50.1107 352.324 51.1497 352.236C52.1888 352.149 53.4684 353.1 53.3919 354.139" fill="#E0E0E0"/>
<path d="M40.2673 369.474L43.975 367.833L23.0957 322.279C23.0957 322.279 21.2255 320.584 19.8364 321.492L40.2673 369.474Z" fill="#E0E0E0"/>
<path d="M44.5874 339.309C44.3578 339.419 44.7734 340.633 44.5437 342.109C44.3468 343.597 43.614 344.636 43.8 344.811C43.9422 345.008 45.1671 344.034 45.4187 342.24C45.6921 340.436 44.7843 339.156 44.5874 339.309Z" fill="#263238"/>
<path d="M40.2893 335.251C40.0378 335.295 40.1034 336.487 39.469 337.712C38.8784 338.959 37.905 339.637 38.0253 339.866C38.0909 340.096 39.5128 339.648 40.2675 338.106C41.0221 336.563 40.5081 335.153 40.2893 335.251Z" fill="#263238"/>
<path d="M33.0486 335.109C33.0923 335.339 34.3939 335.142 35.4001 333.972C36.4063 332.812 36.4173 331.489 36.1767 331.478C35.9251 331.434 35.5642 332.44 34.722 333.392C33.9126 334.365 32.9611 334.869 33.0486 335.109Z" fill="#263238"/>
<path d="M50.3841 337.198C50.2201 337.395 51.0185 338.314 51.5216 339.659C52.0466 341.005 52.0685 342.219 52.32 342.251C52.5497 342.306 52.9544 340.928 52.3419 339.342C51.7404 337.767 50.5044 337.001 50.3841 337.198Z" fill="#263238"/>
<path d="M80.5273 343.421C80.5273 343.421 71.9087 345.182 70.1478 354.435C68.3869 363.699 74.7634 456.874 74.7634 456.874L107.466 454.249L105.464 391.458L104.655 378.803L107.455 376.66L164.93 366.543L156.181 342.776L146.567 326.053L102.533 337.034L80.5273 343.421Z" fill="#263238"/>
<path d="M188.741 327.726C188.741 327.726 164.963 293.35 158.007 288.352C152.276 284.229 143.657 284.229 138.331 286.624C133.004 289.019 49.6841 330.318 49.6841 330.318L61.901 360.899L141.153 333.435L152.965 351.974L163.957 366.543L194.844 366.783C196.309 366.783 202.937 353.68 202.937 353.68L188.741 327.726Z" fill="#263238"/>
<path d="M69.8415 361.621C69.8306 361.621 69.8306 361.512 69.8306 361.304C69.8306 361.064 69.8415 360.746 69.8415 360.364C69.8524 359.937 69.8634 359.423 69.8743 358.821C69.929 358.22 70.0274 357.52 70.1149 356.732C70.1696 355.945 70.4431 355.092 70.629 354.151C70.7165 353.681 70.9243 353.211 71.0774 352.707C71.2415 352.204 71.4165 351.69 71.668 351.187C72.5649 349.131 74.0414 346.9 76.3383 345.194C77.4867 344.34 78.821 343.629 80.3632 343.225C81.8835 342.962 83.4584 342.7 85.099 342.426C88.3693 341.88 91.8583 341.3 95.5223 340.687C102.872 339.473 110.944 338.128 119.42 336.728C127.087 335.47 134.426 334.267 141.12 333.173L141.295 333.141L141.393 333.283C147.748 343.203 152.91 351.832 157.252 357.476C159.363 360.298 161.037 362.551 162.218 364.137C162.776 364.881 163.224 365.471 163.541 365.909C163.672 366.095 163.782 366.248 163.88 366.368C163.957 366.477 163.99 366.532 163.979 366.532C163.968 366.532 163.924 366.488 163.837 366.39C163.738 366.27 163.618 366.127 163.465 365.952C163.126 365.537 162.655 364.957 162.076 364.235C160.873 362.726 159.123 360.506 156.99 357.662C152.571 352.062 147.321 343.444 140.945 333.556L141.207 333.677C134.514 334.781 127.175 335.995 119.508 337.264C111.031 338.653 102.96 339.976 95.6097 341.18C91.9348 341.77 88.4458 342.339 85.1756 342.875C83.5459 343.137 81.971 343.4 80.4616 343.64C79.0179 344.001 77.6945 344.69 76.5789 345.511C74.3258 347.151 72.8711 349.306 71.9633 351.307C71.7008 351.8 71.5258 352.303 71.3618 352.795C71.2087 353.287 70.9899 353.736 70.8915 354.206C70.6946 355.136 70.4102 355.967 70.3337 356.754C70.2243 357.52 70.1259 358.209 70.0384 358.821C70.0056 359.412 69.9728 359.926 69.9509 360.353C69.9181 360.735 69.8962 361.053 69.8853 361.293C69.8634 361.512 69.8524 361.621 69.8415 361.621Z" fill="#455A64"/>
<path d="M152.506 312.229C152.55 312.229 152.582 312.579 152.626 313.213C152.681 313.847 152.67 314.777 152.572 315.914C152.484 317.052 152.232 318.408 151.839 319.874C151.412 321.328 150.822 322.892 150.023 324.456C149.203 326.009 148.251 327.388 147.289 328.558C146.304 329.717 145.342 330.68 144.456 331.413C143.57 332.145 142.815 332.681 142.269 332.998C141.722 333.327 141.405 333.491 141.383 333.458C141.328 333.37 142.52 332.627 144.194 331.117C145.036 330.363 145.954 329.389 146.884 328.241C147.803 327.07 148.722 325.714 149.52 324.205C150.307 322.685 150.898 321.153 151.347 319.742C151.762 318.321 152.047 317.008 152.178 315.893C152.473 313.639 152.397 312.229 152.506 312.229Z" fill="#455A64"/>
<path d="M428.136 421.25L285.011 421.162C267.796 421.151 253.851 407.195 253.851 389.98L253.916 31.1713C253.916 13.945 267.883 -0.0109309 285.109 6.42426e-06L428.235 0.0875047C445.45 0.098442 459.395 14.0544 459.395 31.2697L459.329 390.078C459.329 407.294 445.352 421.25 428.136 421.25Z" fill="#263238"/>
<path d="M428.092 12.7746L400.344 12.7637C396.626 12.7637 393.607 15.9136 393.607 19.8073V24.8384C393.607 28.7321 390.588 31.8821 386.87 31.8821L332.785 31.8492C329.066 31.8492 326.048 28.6884 326.048 24.8056V19.7745C326.048 15.8808 323.029 12.7309 319.31 12.7309L309.554 12.7199L285.262 12.709C273.199 12.6981 263.421 22.476 263.421 34.5398L263.355 384.763C263.355 396.816 273.122 406.594 285.175 406.604L428.016 406.692C440.08 406.703 449.858 396.925 449.858 384.861L449.923 34.6383C449.912 22.5526 440.145 12.7856 428.092 12.7746Z" fill="white"/>
<path d="M449.912 34.6164C449.912 22.5635 440.145 12.7856 428.092 12.7746L400.344 12.7637C396.626 12.7637 393.607 15.9136 393.607 19.8073V24.8384C393.607 28.7321 390.588 31.8821 386.87 31.8821L332.785 31.8492C329.066 31.8492 326.048 28.6884 326.048 24.8056V19.7745C326.048 15.8808 323.029 12.7309 319.31 12.7309L309.554 12.7199L285.262 12.709C273.199 12.6981 263.421 22.476 263.421 34.5398L263.355 68.0298H449.923L449.912 34.6164Z" fill="#F1F9F7"/>
<path d="M434.731 46.92C434.731 47.0294 431.385 47.1387 427.261 47.1716C423.138 47.2044 419.791 47.1497 419.791 47.0403C419.791 46.9309 423.138 46.8216 427.261 46.7888C431.385 46.7559 434.731 46.8106 434.731 46.92Z" fill="#263238"/>
<path d="M434.764 50.7374C434.764 50.8468 431.417 50.9562 427.294 50.989C423.171 51.0218 419.824 50.9671 419.824 50.8577C419.824 50.7484 423.171 50.639 427.294 50.6062C431.417 50.5734 434.764 50.639 434.764 50.7374Z" fill="#263238"/>
<path d="M434.797 54.5645C434.797 54.6739 431.45 54.7833 427.327 54.8161C423.203 54.8489 419.856 54.7942 419.856 54.6848C419.856 54.5755 423.203 54.4661 427.327 54.4333C431.45 54.4005 434.786 54.4552 434.797 54.5645Z" fill="#263238"/>
<path d="M304.774 311.385L305.529 309.799C306.59 310.751 308.395 311.451 310.221 311.451C312.682 311.451 313.732 310.499 313.732 309.252C313.732 305.774 305.114 307.972 305.114 302.69C305.114 300.491 306.82 298.621 310.56 298.621C312.223 298.621 313.951 299.07 315.132 299.879L314.465 301.509C313.229 300.721 311.818 300.349 310.56 300.349C308.143 300.349 307.104 301.366 307.104 302.602C307.104 306.08 315.723 303.904 315.723 309.132C315.723 311.308 313.973 313.179 310.21 313.179C308.045 313.168 305.912 312.435 304.774 311.385Z" fill="#263238"/>
<path d="M317.418 307.621C317.418 304.406 319.791 302.131 323.105 302.131C325.041 302.131 326.638 302.918 327.491 304.428L326.004 305.379C325.315 304.318 324.254 303.837 323.073 303.837C320.962 303.837 319.376 305.325 319.376 307.621C319.376 309.962 320.962 311.428 323.073 311.428C324.254 311.428 325.304 310.935 326.004 309.885L327.491 310.826C326.638 312.335 325.03 313.145 323.105 313.145C319.791 313.134 317.418 310.837 317.418 307.621Z" fill="#263238"/>
<path d="M338.549 306.507V313.014H336.7V311.592C336.055 312.566 334.852 313.135 333.168 313.135C330.729 313.135 329.187 311.833 329.187 309.963C329.187 308.235 330.302 306.813 333.518 306.813H336.613V306.43C336.613 304.779 335.661 303.827 333.725 303.827C332.446 303.827 331.144 304.275 330.313 304.986L329.504 303.521C330.619 302.624 332.227 302.143 333.955 302.143C336.886 302.132 338.549 303.554 338.549 306.507ZM336.602 309.711V308.202H333.594C331.658 308.202 331.111 308.957 331.111 309.864C331.111 310.947 332.008 311.614 333.485 311.614C334.95 311.625 336.11 310.958 336.602 309.711Z" fill="#263238"/>
<path d="M352.396 306.813V313.014H350.449V307.043C350.449 304.932 349.388 303.893 347.539 303.893C345.461 303.893 344.127 305.129 344.127 307.469V313.014H342.18V302.241H344.05V303.871C344.838 302.777 346.227 302.143 347.933 302.143C350.547 302.132 352.396 303.641 352.396 306.813Z" fill="#263238"/>
<path d="M366.242 306.813V313.014H364.295V307.043C364.295 304.932 363.234 303.893 361.386 303.893C359.308 303.893 357.973 305.129 357.973 307.469V313.014H356.026V302.241H357.897V303.871C358.684 302.777 360.073 302.143 361.779 302.143C364.393 302.132 366.242 303.641 366.242 306.813Z" fill="#263238"/>
<path d="M369.512 298.905C369.512 298.194 370.081 297.625 370.836 297.625C371.59 297.625 372.159 298.172 372.159 298.861C372.159 299.594 371.612 300.162 370.836 300.162C370.081 300.162 369.512 299.616 369.512 298.905ZM369.851 302.23H371.798V313.003H369.851V302.23Z" fill="#263238"/>
<path d="M385.754 306.813V313.014H383.807V307.043C383.807 304.932 382.746 303.893 380.898 303.893C378.82 303.893 377.485 305.129 377.485 307.469V313.014H375.539V302.241H377.409V303.871C378.196 302.777 379.585 302.143 381.292 302.143C383.906 302.132 385.754 303.641 385.754 306.813Z" fill="#263238"/>
<path d="M399.732 302.229V311.537C399.732 315.343 397.796 317.06 394.143 317.06C392.174 317.06 390.184 316.513 389.002 315.452L389.943 313.943C390.938 314.796 392.502 315.343 394.088 315.343C396.626 315.343 397.785 314.162 397.785 311.722V310.869C396.844 311.985 395.444 312.532 393.902 312.532C390.796 312.532 388.434 310.421 388.434 307.304C388.434 304.198 390.796 302.098 393.902 302.098C395.51 302.098 396.976 302.688 397.883 303.869V302.207H399.732V302.229ZM397.829 307.337C397.829 305.248 396.287 303.837 394.132 303.837C391.955 303.837 390.413 305.237 390.413 307.337C390.413 309.415 391.955 310.858 394.132 310.858C396.276 310.847 397.829 309.404 397.829 307.337Z" fill="#263238"/>
<path d="M402.543 311.724C402.543 310.914 403.177 310.346 403.921 310.346C404.654 310.346 405.266 310.914 405.266 311.724C405.266 312.533 404.654 313.124 403.921 313.124C403.166 313.135 402.543 312.544 402.543 311.724Z" fill="#263238"/>
<path d="M407.158 311.724C407.158 310.914 407.793 310.346 408.536 310.346C409.269 310.346 409.882 310.914 409.882 311.724C409.882 312.533 409.269 313.124 408.536 313.124C407.782 313.135 407.158 312.544 407.158 311.724Z" fill="#263238"/>
<path d="M411.763 311.724C411.763 310.914 412.398 310.346 413.141 310.346C413.874 310.346 414.487 310.914 414.487 311.724C414.487 312.533 413.874 313.124 413.141 313.124C412.398 313.135 411.763 312.544 411.763 311.724Z" fill="#263238"/>
<path d="M293.87 200.526V207.296H300.64V200.526V193.756H293.87V200.526Z" fill="#263238"/>
<path d="M300.64 159.895H293.87V166.665H300.64V159.895Z" fill="#263238"/>
<path d="M342.475 234.453H335.705V241.223H342.475V234.453Z" fill="#263238"/>
<path d="M300.64 173.434V180.204H293.87V186.975H300.64V193.756H307.41H314.181V200.526H320.951V193.756H327.721V186.975V180.204H320.951V186.975H314.181H307.41V180.204V173.434V166.664H300.64V173.434Z" fill="#263238"/>
<path d="M314.181 159.895H307.411V166.665H314.181H320.951V159.895H314.181Z" fill="#263238"/>
<path d="M344.652 214.329H348.294V207.559H344.652H341.01V214.329H344.652Z" fill="#263238"/>
<path d="M327.721 166.664H320.951V173.434H327.721V166.664Z" fill="#263238"/>
<path d="M375.123 193.756H368.353V200.526H375.123V193.756Z" fill="#263238"/>
<path d="M381.894 119.262H375.124V126.032H381.894V119.262Z" fill="#263238"/>
<path d="M341.262 173.434V166.663H348.043V159.893H341.262V153.123H334.491V159.893H327.721V166.663H334.491V173.434V180.204V186.974V193.755H341.262V186.974V180.204H348.043V173.434H341.262Z" fill="#263238"/>
<path d="M375.123 241.147H381.893V234.377H375.123H368.353V241.147H375.123Z" fill="#263238"/>
<path d="M368.353 119.262H361.583V126.032H368.353V119.262Z" fill="#263238"/>
<path d="M366.658 173.435V166.665H359.888V159.895H353.117V166.665V173.435H346.347V180.205H353.117H359.888V173.435H366.658Z" fill="#263238"/>
<path d="M404.873 159.895H398.103V166.665H404.873V159.895Z" fill="#263238"/>
<path d="M334.688 193.756H327.918V200.526H334.688V193.756Z" fill="#263238"/>
<path d="M361.583 153.123V146.353H368.353V139.583H375.123H381.893V132.801H375.123V126.031H368.353V132.801H361.583V139.583H354.813V146.353H348.042V153.123H354.813H361.583Z" fill="#263238"/>
<path d="M361.583 200.526V193.756H368.353V186.975H361.583H354.813V193.756H348.042V200.526H354.813H361.583Z" fill="#263238"/>
<path d="M381.894 227.607V220.837H375.124H368.353V214.066H361.583V220.837H354.813V227.607H348.043H341.262V234.377H348.043H354.813H361.583V227.607H368.353V234.377H375.124V227.607H381.894Z" fill="#263238"/>
<path d="M354.813 126.032V119.262H348.043H341.261V126.032H334.491V132.802H341.261H348.043V126.032H354.813Z" fill="#263238"/>
<path d="M354.813 132.803H348.042V139.573H354.813V132.803Z" fill="#263238"/>
<path d="M371.733 159.894H364.962V166.664V173.434V180.204H371.733H378.514V173.434H371.733V166.664H378.514V159.894H385.284V153.124H378.514V146.354H371.733V153.124V159.894Z" fill="#263238"/>
<path d="M348.032 139.584H341.262V146.354H348.032V139.584Z" fill="#263238"/>
<path d="M368.353 207.296V214.066H375.123H381.893V207.296H388.664H395.434V200.525H388.664H381.893H375.123V207.296H368.353Z" fill="#263238"/>
<path d="M404.873 180.205H398.103V186.975H404.873V180.205Z" fill="#263238"/>
<path d="M381.894 186.975H375.124V193.745H381.894V186.975Z" fill="#263238"/>
<path d="M398.825 166.664H392.054H385.284V173.434H392.054V180.204H398.825V173.434V166.664Z" fill="#263238"/>
<path d="M395.434 186.975H388.664V193.745H395.434V186.975Z" fill="#263238"/>
<path d="M320.951 227.739H341.272V200.516H314.049V207.297H307.399V214.067H314.049V220.837H307.399V227.607H314.049V227.739H314.181V234.388H307.41V241.159V247.929H314.181V241.159H320.951V234.388V227.739ZM336.055 205.733V222.664H319.124V205.733H336.055Z" fill="#263238"/>
<path d="M408.985 200.526H415.756V193.756H408.985H402.204H395.434V200.526H402.204H408.985Z" fill="#263238"/>
<path d="M408.985 173.435H415.756V166.665V159.895H408.985V166.665V173.435Z" fill="#263238"/>
<path d="M355.064 207.559H348.294V214.329V221.099H355.064V214.329V207.559Z" fill="#263238"/>
<path d="M422.526 200.525H415.755V207.296H422.526V200.525Z" fill="#263238"/>
<path d="M422.526 186.975V180.205H415.755V186.975V193.756H422.526V186.975Z" fill="#263238"/>
<path d="M300.64 234.377H293.87V241.147V247.917H300.64V241.147V234.377Z" fill="#263238"/>
<path d="M422.525 153.124V119.262H388.664V153.124H422.525ZM393.749 148.038V124.337H417.451V148.038H393.749Z" fill="#263238"/>
<path d="M412.365 129.422H398.824V142.962H412.365V129.422Z" fill="#263238"/>
<path d="M422.525 214.066H388.664V247.928H422.525V214.066ZM393.749 242.842V219.141H417.451V242.842H393.749Z" fill="#263238"/>
<path d="M412.365 224.227H398.824V237.767H412.365V224.227Z" fill="#263238"/>
<path d="M293.783 119.262V153.124H327.645V119.262H293.783ZM322.559 124.348V148.049H298.858V124.348H322.559Z" fill="#263238"/>
<path d="M317.473 129.422H303.933V142.962H317.473V129.422Z" fill="#263238"/>
<path d="M284.125 142.863C284.125 134.846 284.125 126.829 284.125 118.812C284.125 116.57 284.497 114.448 286.028 112.687C287.734 110.718 290.086 109.953 292.612 109.953C296.976 109.953 301.329 109.953 305.693 109.953C309.762 109.953 313.831 109.953 317.899 109.953C318.873 109.953 318.873 108.443 317.899 108.443C309.565 108.443 301.231 108.443 292.897 108.443C290.753 108.443 288.708 108.761 286.87 109.964C284.191 111.725 282.67 114.678 282.616 117.86C282.55 121.82 282.616 125.779 282.616 129.738C282.616 134.113 282.616 138.488 282.616 142.863C282.616 143.836 284.125 143.836 284.125 142.863Z" fill="#0D846D"/>
<path d="M315.69 259.357C307.673 259.357 299.656 259.357 291.639 259.357C289.397 259.357 287.275 258.985 285.514 257.454C283.545 255.748 282.78 253.396 282.78 250.859C282.78 246.495 282.78 242.142 282.78 237.778C282.78 233.709 282.78 229.641 282.78 225.572C282.78 224.598 281.271 224.598 281.271 225.572C281.271 233.906 281.271 242.24 281.271 250.574C281.271 252.718 281.588 254.763 282.791 256.601C284.552 259.281 287.505 260.801 290.688 260.856C294.647 260.921 298.606 260.856 302.565 260.856C306.94 260.856 311.315 260.856 315.69 260.856C316.664 260.866 316.664 259.357 315.69 259.357Z" fill="#0D846D"/>
<path d="M431.45 225.332C431.45 233.349 431.45 241.366 431.45 249.383C431.45 251.625 431.079 253.747 429.547 255.508C427.841 257.476 425.49 258.242 422.952 258.242C418.588 258.242 414.235 258.242 409.871 258.242C405.802 258.242 401.734 258.242 397.665 258.242C396.692 258.242 396.692 259.751 397.665 259.751C405.999 259.751 414.334 259.751 422.668 259.751C424.811 259.751 426.857 259.434 428.694 258.231C431.374 256.47 432.894 253.517 432.949 250.334C433.014 246.375 432.949 242.416 432.949 238.456C432.949 234.081 432.949 229.707 432.949 225.332C432.96 224.358 431.45 224.358 431.45 225.332Z" fill="#0D846D"/>
<path d="M398.102 109.953C406.119 109.953 414.136 109.953 422.154 109.953C424.396 109.953 426.518 110.325 428.278 111.856C430.247 113.563 431.013 115.914 431.013 118.452C431.013 122.816 431.013 127.169 431.013 131.533C431.013 135.601 431.013 139.67 431.013 143.739C431.013 144.712 432.522 144.712 432.522 143.739C432.522 135.404 432.522 127.07 432.522 118.736C432.522 116.592 432.205 114.547 431.002 112.71C429.241 110.03 426.288 108.51 423.105 108.455C419.146 108.389 415.186 108.455 411.227 108.455C406.852 108.455 402.477 108.455 398.102 108.455C397.14 108.444 397.129 109.953 398.102 109.953Z" fill="#0D846D"/>
<path d="M411.84 371.377H297.764C287.723 371.377 279.586 363.239 279.586 353.199V349.338C279.586 339.297 287.723 331.16 297.764 331.16H411.84C421.88 331.16 430.017 339.297 430.017 349.338V353.199C430.017 363.239 421.88 371.377 411.84 371.377Z" fill="#14C6A4"/>
<path d="M308.635 347.631L306.109 354.39H304.939L302.992 349.261L301.012 354.39H299.842L297.326 347.631H298.486L300.443 353.012L302.489 347.631H303.517L305.518 353.034L307.531 347.631H308.635Z" fill="white"/>
<path d="M319.999 347.631L317.473 354.39H316.302L314.355 349.261L312.376 354.39H311.206L308.69 347.631H309.849L311.807 353.012L313.852 347.631H314.88L316.882 353.034L318.894 347.631H319.999Z" fill="white"/>
<path d="M331.374 347.631L328.848 354.39H327.677L325.73 349.261L323.751 354.39H322.581L320.065 347.631H321.224L323.182 353.012L325.227 347.631H326.255L328.257 353.034L330.269 347.631H331.374Z" fill="white"/>
<path d="M331.615 353.593C331.615 353.079 332.008 352.729 332.479 352.729C332.938 352.729 333.321 353.089 333.321 353.593C333.321 354.107 332.938 354.468 332.479 354.468C332.008 354.468 331.615 354.096 331.615 353.593Z" fill="white"/>
<path d="M334.229 353.68L334.743 352.707C335.311 353.112 336.23 353.407 337.116 353.407C338.253 353.407 338.724 353.057 338.724 352.488C338.724 350.968 334.447 352.28 334.447 349.59C334.447 348.376 335.53 347.566 337.269 347.566C338.144 347.566 339.139 347.796 339.73 348.179L339.205 349.152C338.592 348.759 337.914 348.616 337.258 348.616C336.186 348.616 335.661 349.01 335.661 349.546C335.661 351.143 339.949 349.841 339.949 352.466C339.949 353.691 338.822 354.468 337.028 354.468C335.902 354.468 334.797 354.129 334.229 353.68Z" fill="white"/>
<path d="M341.261 345.543C341.261 345.094 341.622 344.744 342.092 344.744C342.563 344.744 342.924 345.094 342.924 345.521C342.924 345.98 342.585 346.341 342.092 346.341C341.622 346.33 341.261 345.991 341.261 345.543ZM341.48 347.632H342.705V354.391H341.48V347.632Z" fill="white"/>
<path d="M348.841 353.996C348.469 354.314 347.911 354.467 347.364 354.467C345.997 354.467 345.221 353.712 345.221 352.345V348.637H344.072V347.631H345.221V346.154H346.446V347.631H348.382V348.637H346.446V352.301C346.446 353.034 346.828 353.439 347.507 353.439C347.867 353.439 348.207 353.318 348.469 353.121L348.841 353.996Z" fill="white"/>
<path d="M356.169 351.427H350.689C350.842 352.608 351.794 353.407 353.139 353.407C353.927 353.407 354.594 353.133 355.086 352.587L355.764 353.374C355.152 354.085 354.222 354.468 353.096 354.468C350.919 354.468 349.464 353.024 349.464 351.012C349.464 349.01 350.908 347.566 352.855 347.566C354.802 347.566 356.191 348.966 356.191 351.044C356.202 351.154 356.18 351.307 356.169 351.427ZM350.689 350.541H355.02C354.889 349.404 354.036 348.605 352.855 348.605C351.685 348.605 350.821 349.393 350.689 350.541Z" fill="white"/>
<path d="M367.992 347.631L365.465 354.39H364.295L362.348 349.261L360.368 354.39H359.198L356.683 347.631H357.842L359.8 353.012L361.845 347.631H362.873L364.875 353.034L366.887 347.631H367.992Z" fill="white"/>
<path d="M375.123 351.427H369.643C369.797 352.608 370.748 353.407 372.093 353.407C372.881 353.407 373.548 353.133 374.04 352.587L374.718 353.374C374.106 354.085 373.176 354.468 372.05 354.468C369.873 354.468 368.418 353.024 368.418 351.012C368.418 349.01 369.862 347.566 371.809 347.566C373.756 347.566 375.145 348.966 375.145 351.044C375.156 351.154 375.145 351.307 375.123 351.427ZM369.643 350.541H373.975C373.843 349.404 372.99 348.605 371.809 348.605C370.639 348.605 369.775 349.393 369.643 350.541Z" fill="white"/>
<path d="M383.851 351.011C383.851 353.078 382.408 354.467 380.439 354.467C379.444 354.467 378.579 354.084 378.033 353.319V354.39H376.862V344.93H378.087V348.648C378.645 347.926 379.487 347.566 380.45 347.566C382.418 347.566 383.851 348.944 383.851 351.011ZM382.615 351.011C382.615 349.567 381.631 348.637 380.329 348.637C379.039 348.637 378.054 349.567 378.054 351.011C378.054 352.455 379.039 353.395 380.329 353.395C381.631 353.395 382.615 352.455 382.615 351.011Z" fill="white"/>
<path d="M384.825 353.593C384.825 353.079 385.218 352.729 385.689 352.729C386.148 352.729 386.531 353.089 386.531 353.593C386.531 354.107 386.148 354.468 385.689 354.468C385.218 354.468 384.825 354.096 384.825 353.593Z" fill="white"/>
<path d="M387.515 351.012C387.515 348.999 389.003 347.566 391.081 347.566C392.295 347.566 393.301 348.07 393.837 349.01L392.907 349.612C392.47 348.944 391.813 348.638 391.07 348.638C389.746 348.638 388.751 349.568 388.751 351.012C388.751 352.477 389.746 353.396 391.07 353.396C391.813 353.396 392.47 353.09 392.907 352.423L393.837 353.013C393.301 353.954 392.295 354.468 391.081 354.468C389.014 354.468 387.515 353.024 387.515 351.012Z" fill="white"/>
<path d="M394.701 351.012C394.701 348.999 396.188 347.566 398.222 347.566C400.246 347.566 401.733 348.999 401.733 351.012C401.733 353.024 400.257 354.468 398.222 354.468C396.199 354.468 394.701 353.024 394.701 351.012ZM400.487 351.012C400.487 349.568 399.513 348.638 398.212 348.638C396.91 348.638 395.926 349.568 395.926 351.012C395.926 352.455 396.91 353.396 398.212 353.396C399.524 353.396 400.487 352.455 400.487 351.012Z" fill="white"/>
<path d="M414.65 350.508V354.401H413.425V350.65C413.425 349.327 412.791 348.67 411.675 348.67C410.45 348.67 409.652 349.447 409.652 350.912V354.39H408.427V350.639C408.427 349.316 407.793 348.659 406.677 348.659C405.452 348.659 404.654 349.436 404.654 350.901V354.38H403.429V347.62H404.599V348.627C405.08 347.938 405.911 347.555 406.929 347.555C407.957 347.555 408.832 347.959 409.28 348.802C409.794 348.036 410.735 347.555 411.883 347.555C413.524 347.566 414.65 348.517 414.65 350.508Z" fill="white"/>
<path d="M414.235 358.831C414.235 358.984 388.434 359.116 356.628 359.116C324.801 359.116 299.011 358.984 299.011 358.831C299.011 358.678 324.801 358.547 356.628 358.547C388.445 358.547 414.235 358.678 414.235 358.831Z" fill="white"/>
</g>
<defs>
<clipPath id="clip0_555_1795">
<rect width="500.797" height="481" fill="white" transform="translate(0.0834961)"/>
</clipPath>
</defs>
</svg>
