<svg width="35" height="35" viewBox="0 0 35 35" fill="none" xmlns="http://www.w3.org/2000/svg">
<path d="M0.00456315 6.94658C0.0212947 6.87993 0.0471525 6.81488 0.0532367 6.74824C0.104952 6.15481 0.1445 5.5598 0.205342 4.96637C0.247931 4.55224 0.311815 4.14129 0.374178 3.73033C0.448709 3.23052 0.526283 2.73071 0.614504 2.23407C0.676867 1.87707 0.759003 1.52482 0.832014 1.17099C0.895898 0.858405 0.959782 0.545825 1.02519 0.234832C1.0404 0.15391 1.06626 0.0761616 1.09668 0C1.07994 0.125349 1.06321 0.249112 1.048 0.374461C0.999329 0.756856 0.949134 1.13925 0.905024 1.52323C0.818324 2.27533 0.771172 3.02901 0.763566 3.78587C0.759003 4.26981 0.746835 4.75217 0.75444 5.23453C0.762045 5.68039 0.790945 6.12784 0.815282 6.5737C0.830493 6.86248 0.847224 7.15285 0.874603 7.44163C0.901982 7.7431 0.938487 8.04457 0.978034 8.34446C1.02671 8.69671 1.07538 9.05054 1.13774 9.39962C1.21988 9.85024 1.3005 10.304 1.41001 10.7483C1.56516 11.3798 1.72943 12.0113 1.92413 12.6301C2.09296 13.1664 2.30287 13.6901 2.51277 14.2121C2.67248 14.6072 2.85045 14.9959 3.03906 15.3767C3.20941 15.7194 3.39346 16.0558 3.5912 16.3811C3.8589 16.819 4.12813 17.2585 4.42929 17.6711C4.76392 18.1281 5.12593 18.5644 5.49099 18.996C5.94274 19.5275 6.44925 20.0035 6.97705 20.4542C7.479 20.8842 8.00072 21.2856 8.55438 21.6378C9.00157 21.9219 9.4518 22.2027 9.91572 22.4534C10.3629 22.6946 10.8238 22.9151 11.2907 23.1103C11.8505 23.3435 12.4209 23.5498 12.9928 23.7497C13.3944 23.891 13.8035 24.0115 14.2142 24.121C14.6188 24.2289 15.028 24.3209 15.4371 24.4035C15.9664 24.5098 16.4988 24.6034 17.0312 24.6906C17.3278 24.7398 17.6274 24.7684 17.9256 24.8001C18.3545 24.8446 18.7834 24.8953 19.2139 24.9239C19.798 24.9604 20.3821 24.9874 20.9677 25.0016C21.5046 25.0143 22.0415 25.0048 22.5784 25.0048C22.6804 25.0048 22.7823 25.0048 22.8842 25.0016C22.91 25.0016 22.9359 24.9889 22.9891 24.9747C21.4088 23.5165 19.8482 22.0774 18.2876 20.6366C18.2921 20.6287 18.2952 20.6208 18.2997 20.6128C18.3788 20.6398 18.4579 20.6652 18.5355 20.6922C19.1607 20.9143 19.7858 21.138 20.411 21.3602C20.9372 21.5474 21.4635 21.7315 21.9898 21.9187C22.5678 22.1234 23.1443 22.3312 23.7208 22.5343C24.1984 22.7025 24.6775 22.8659 25.1551 23.0341C25.8305 23.2706 26.5043 23.5086 27.1781 23.7466C27.8306 23.9782 28.4832 24.2115 29.1357 24.4415C29.5737 24.597 30.0133 24.7478 30.4529 24.9017C31.037 25.1064 31.6211 25.3111 32.2052 25.5189C32.7254 25.703 33.2425 25.8902 33.7627 26.0774C33.8266 26.0996 33.8905 26.1203 33.9529 26.1441C33.9711 26.1504 33.9863 26.1647 34.003 26.1758C33.9894 26.1901 33.9772 26.2107 33.9605 26.2186C33.5665 26.409 33.171 26.5963 32.7771 26.7883C32.082 27.1262 31.3884 27.4658 30.6932 27.8053C30.0194 28.1338 29.3456 28.4622 28.6702 28.7891C28.2018 29.016 27.7318 29.2413 27.2618 29.4682C26.5864 29.7951 25.9126 30.1203 25.2372 30.4488C24.7186 30.7011 24.2014 30.9534 23.6842 31.2072C23.2371 31.4262 22.7899 31.6499 22.3427 31.8689C21.9061 32.0815 21.4696 32.2925 21.0315 32.5051C20.3912 32.8146 19.7523 33.124 19.112 33.4334C18.6709 33.646 18.2298 33.857 17.7902 34.0712C17.5651 34.1807 17.3415 34.2949 17.1164 34.406C17.0996 34.414 17.0829 34.4203 17.0494 34.4092C18.61 32.6511 20.1721 30.8915 21.7495 29.1144C21.6978 29.1064 21.6673 29.0985 21.6354 29.0969C21.1441 29.0684 20.6528 29.0477 20.1615 29.0128C19.7919 28.9874 19.4238 28.9462 19.0542 28.9081C18.9021 28.8922 18.75 28.87 18.5979 28.8494C18.2784 28.8034 17.9575 28.7653 17.6411 28.7034C17.051 28.5892 16.4623 28.4749 15.8767 28.3369C15.32 28.2068 14.7633 28.0672 14.2172 27.8974C13.5784 27.7006 12.9426 27.4864 12.319 27.2437C11.6649 26.9882 11.0215 26.701 10.3827 26.4059C10.0039 26.2313 9.63736 26.0219 9.27536 25.8109C8.81448 25.5443 8.3536 25.2761 7.9125 24.9778C7.46987 24.6795 7.04093 24.359 6.62569 24.0211C6.17698 23.6545 5.74196 23.2658 5.31759 22.8675C4.7837 22.3645 4.30153 21.8076 3.84673 21.2285C3.25048 20.4684 2.72268 19.6592 2.27245 18.7961C2.07471 18.4168 1.87545 18.0344 1.70814 17.6394C1.46629 17.0634 1.23053 16.4811 1.03583 15.886C0.845703 15.3053 0.699682 14.7071 0.553662 14.1121C0.451751 13.6996 0.37722 13.2807 0.298126 12.8634C0.255536 12.6381 0.228157 12.4096 0.200778 12.1827C0.152105 11.7701 0.107994 11.356 0.0669261 10.9419C0.0532367 10.8023 0.0532367 10.6626 0.0410683 10.523C0.0380262 10.4802 0.0136894 10.4389 0 10.3961C0.00456315 9.24253 0.00456315 8.09535 0.00456315 6.94658Z" fill="#737373"/>
</svg>
