<svg width="24" height="24" viewBox="0 0 24 24" fill="none" xmlns="http://www.w3.org/2000/svg">
<g clip-path="url(#clip0_555_3963)">
<path d="M24 12.07C23.9984 9.76385 23.3401 7.50642 22.1029 5.56484C20.8658 3.62327 19.1015 2.07883 17.019 1.11428C14.9365 0.149739 12.6228 -0.194532 10.3518 0.122211C8.08087 0.438954 5.94763 1.40345 4.20459 2.90157C2.46154 4.39968 1.18163 6.36871 0.516338 8.57563C-0.148959 10.7825 -0.1718 13.135 0.450518 15.3546C1.07284 17.5741 2.31426 19.5679 4.02789 21.1C5.74152 22.6321 7.85561 23.6383 10.12 23.9996V15.5604H7.12V12.07H10.12V9.41451C10.12 6.39691 11.92 4.71711 14.66 4.71711C15.5581 4.73021 16.4539 4.8109 17.34 4.95852V7.97612H15.83C15.5694 7.93548 15.3029 7.95498 15.0509 8.03313C14.7989 8.11128 14.5678 8.24605 14.3751 8.42724C14.1825 8.60843 14.0333 8.8313 13.9388 9.07901C13.8444 9.32672 13.8072 9.59279 13.83 9.85709V12.1203H17.2L16.67 15.6107H13.87V24.0499C16.7032 23.6003 19.2826 22.1449 21.1409 19.9472C22.9993 17.7495 24.0135 14.955 24 12.07Z" fill="#CFBCE9"/>
</g>
<defs>
<clipPath id="clip0_555_3963">
<rect width="24" height="24" fill="white"/>
</clipPath>
</defs>
</svg>
