<svg width="24" height="24" viewBox="0 0 24 24" fill="none" xmlns="http://www.w3.org/2000/svg">
<g clip-path="url(#clip0_555_3967)">
<path d="M20.45 20.4503H16.89V14.8803C16.89 13.5503 16.89 11.8803 15.04 11.8803C13.19 11.8803 12.91 13.3203 12.91 14.8103V20.4803H9.35V9.00026H12.76V10.5603H12.81C13.1525 9.97647 13.6466 9.49626 14.2399 9.17056C14.8332 8.84485 15.5036 8.6858 16.18 8.71026C19.78 8.71026 20.45 11.0803 20.45 14.1703V20.4503ZM5.34 7.43026C4.93257 7.43026 4.53429 7.30944 4.19553 7.08309C3.85676 6.85673 3.59272 6.535 3.43681 6.15859C3.28089 5.78217 3.2401 5.36797 3.31958 4.96837C3.39907 4.56877 3.59526 4.20172 3.88336 3.91362C4.17146 3.62552 4.53851 3.42933 4.93811 3.34984C5.33772 3.27036 5.75191 3.31115 6.12833 3.46707C6.50474 3.62298 6.82647 3.88702 7.05283 4.22578C7.27918 4.56455 7.4 4.96283 7.4 5.37026C7.4 5.9166 7.18296 6.44057 6.79664 6.8269C6.41032 7.21322 5.88635 7.43026 5.34 7.43026ZM7.12 20.4303H3.56V9.00026H7.12V20.4303ZM22.23 0.000259093H1.77C1.54018 -0.0023824 1.3121 0.0402716 1.09876 0.125785C0.885433 0.211299 0.691035 0.337998 0.526672 0.498646C0.362309 0.659295 0.231201 0.850746 0.140834 1.06207C0.0504671 1.27339 0.00261148 1.50044 0 1.73026L0 22.2703C0.00261148 22.5001 0.0504671 22.7271 0.140834 22.9385C0.231201 23.1498 0.362309 23.3412 0.526672 23.5019C0.691035 23.6625 0.885433 23.7892 1.09876 23.8747C1.3121 23.9602 1.54018 24.0029 1.77 24.0003H22.22C22.4507 24.0042 22.6798 23.9626 22.8943 23.8776C23.1088 23.7927 23.3044 23.6662 23.4698 23.5055C23.6352 23.3447 23.7672 23.1528 23.8582 22.9408C23.9492 22.7288 23.9974 22.5009 24 22.2703V1.73026C23.9974 1.49959 23.9492 1.27171 23.8582 1.05972C23.7672 0.847743 23.6352 0.655843 23.4698 0.495063C23.3044 0.334284 23.1088 0.207797 22.8943 0.12288C22.6798 0.0379624 22.4507 -0.0037102 22.22 0.000259093H22.23Z" fill="#CFBCE9"/>
</g>
<defs>
<clipPath id="clip0_555_3967">
<rect width="24" height="24" fill="white"/>
</clipPath>
</defs>
</svg>
