<svg width="60" height="60" viewBox="0 0 60 60" fill="none" xmlns="http://www.w3.org/2000/svg">
<path d="M8.95539 42.1501C6.39039 37.7074 7.91671 32.0111 12.3594 29.4461L22.7517 23.4461L19.9017 18.5098L9.50942 24.5098C2.33873 28.6498 -0.120957 37.8295 4.01904 45.0001C8.15904 52.1708 17.3387 54.6305 24.5094 50.4905L34.9017 44.4905L32.0517 39.5542L21.6594 45.5542C17.2167 48.1192 11.5204 46.5929 8.95539 42.1501ZM21.1075 38.5982L41.8921 26.5982L38.8921 21.4021L18.1075 33.4021L21.1075 38.5982ZM35.4902 9.50977L25.0979 15.5098L27.9479 20.4461L38.3402 14.4461C42.7829 11.8811 48.4792 13.4074 51.0442 17.8501C53.6092 22.2929 52.0829 27.9892 47.6402 30.5542L37.2479 36.5542L40.0979 41.4905L50.4902 35.4905C57.6609 31.3505 60.1206 22.1708 55.9806 15.0001C51.8406 7.82946 42.6609 5.36977 35.4902 9.50977Z" fill="#6F36BC"/>
</svg>
