<svg width="63" height="64" viewBox="0 0 63 64" fill="none" xmlns="http://www.w3.org/2000/svg">
<path d="M14.7875 50.099L49.7661 48.8775L48.9656 25.954L36.4895 14.3198L13.566 15.1203L14.7875 50.099ZM9.96501 55.2704L8.39453 10.2979L38.3763 9.25087L53.8906 23.7182L54.9376 53.7L9.96501 55.2704ZM19.6099 44.9275L44.5947 44.055L44.4202 39.0581L19.4354 39.9306L19.6099 44.9275ZM19.2609 34.9336L44.2457 34.0611L44.0712 29.0642L19.0864 29.9367L19.2609 34.9336ZM18.9119 24.9397L36.4013 24.329L36.2268 19.332L18.7374 19.9428L18.9119 24.9397ZM14.7875 50.099L13.566 15.1203L14.7875 50.099Z" fill="#6F36BC"/>
</svg>
