<svg width="61" height="60" viewBox="0 0 61 60" fill="none" xmlns="http://www.w3.org/2000/svg">
<path d="M35.5 24.75V20.5C36.875 19.9167 38.2817 19.4792 39.72 19.1875C41.1567 18.8958 42.6667 18.75 44.25 18.75C45.3333 18.75 46.3958 18.8333 47.4375 19C48.4792 19.1667 49.5 19.375 50.5 19.625V23.625C49.5 23.25 48.49 22.9692 47.47 22.7825C46.4483 22.5942 45.375 22.5 44.25 22.5C42.6667 22.5 41.1458 22.6983 39.6875 23.095C38.2292 23.49 36.8333 24.0417 35.5 24.75ZM35.5 38.5V34.25C36.875 33.6667 38.2817 33.2292 39.72 32.9375C41.1567 32.6458 42.6667 32.5 44.25 32.5C45.3333 32.5 46.3958 32.5833 47.4375 32.75C48.4792 32.9167 49.5 33.125 50.5 33.375V37.375C49.5 37 48.49 36.7192 47.47 36.5325C46.4483 36.3442 45.375 36.25 44.25 36.25C42.6667 36.25 41.1458 36.4375 39.6875 36.8125C38.2292 37.1875 36.8333 37.75 35.5 38.5ZM35.5 31.625V27.375C36.875 26.7917 38.2817 26.3542 39.72 26.0625C41.1567 25.7708 42.6667 25.625 44.25 25.625C45.3333 25.625 46.3958 25.7083 47.4375 25.875C48.4792 26.0417 49.5 26.25 50.5 26.5V30.5C49.5 30.125 48.49 29.8442 47.47 29.6575C46.4483 29.4692 45.375 29.375 44.25 29.375C42.6667 29.375 41.1458 29.5733 39.6875 29.97C38.2292 30.365 36.8333 30.9167 35.5 31.625ZM33 42.625C34.8333 41.75 36.6775 41.0933 38.5325 40.655C40.3858 40.2183 42.2917 40 44.25 40C45.75 40 47.2192 40.125 48.6575 40.375C50.0942 40.625 51.5417 41 53 41.5V16.75C51.625 16.1667 50.1983 15.7292 48.72 15.4375C47.24 15.1458 45.75 15 44.25 15C42.2917 15 40.3542 15.25 38.4375 15.75C36.5208 16.25 34.7083 17 33 18V42.625ZM30.5 50C28.5 48.4167 26.3333 47.1875 24 46.3125C21.6667 45.4375 19.25 45 16.75 45C15 45 13.2817 45.2292 11.595 45.6875C9.90667 46.1458 8.29167 46.7917 6.75 47.625C5.875 48.0833 5.03167 48.0625 4.22 47.5625C3.40667 47.0625 3 46.3333 3 45.375V15.25C3 14.7917 3.115 14.3542 3.345 13.9375C3.57333 13.5208 3.91667 13.2083 4.375 13C6.33333 12.0417 8.34417 11.3017 10.4075 10.78C12.4692 10.26 14.5833 10 16.75 10C19.1667 10 21.5317 10.3125 23.845 10.9375C26.1567 11.5625 28.375 12.5 30.5 13.75C32.625 12.5 34.8442 11.5625 37.1575 10.9375C39.4692 10.3125 41.8333 10 44.25 10C46.4167 10 48.5317 10.26 50.595 10.78C52.6567 11.3017 54.6667 12.0417 56.625 13C57.0833 13.2083 57.4275 13.5208 57.6575 13.9375C57.8858 14.3542 58 14.7917 58 15.25V45.375C58 46.3333 57.5942 47.0625 56.7825 47.5625C55.9692 48.0625 55.125 48.0833 54.25 47.625C52.7083 46.7917 51.0933 46.1458 49.405 45.6875C47.7183 45.2292 46 45 44.25 45C41.75 45 39.3333 45.4375 37 46.3125C34.6667 47.1875 32.5 48.4167 30.5 50Z" fill="#6F36BC"/>
</svg>
