<svg width="61" height="60" viewBox="0 0 61 60" fill="none" xmlns="http://www.w3.org/2000/svg">
<g clip-path="url(#clip0_704_2819)">
<path d="M17.8335 35V30H42.8335V35H17.8335ZM17.8335 45V40H35.3335V45H17.8335ZM12.8335 55C11.4585 55 10.281 54.5108 9.301 53.5325C8.32266 52.5525 7.8335 51.375 7.8335 50V15C7.8335 13.625 8.32266 12.4483 9.301 11.47C10.281 10.49 11.4585 10 12.8335 10H15.3335V5H20.3335V10H40.3335V5H45.3335V10H47.8335C49.2085 10 50.386 10.49 51.366 11.47C52.3443 12.4483 52.8335 13.625 52.8335 15V50C52.8335 51.375 52.3443 52.5525 51.366 53.5325C50.386 54.5108 49.2085 55 47.8335 55H12.8335ZM12.8335 50H47.8335V25H12.8335V50Z" fill="#6F36BC"/>
</g>
<defs>
<clipPath id="clip0_704_2819">
<rect width="60" height="60" fill="white" transform="translate(0.333496)"/>
</clipPath>
</defs>
</svg>
