<svg width="60" height="60" viewBox="0 0 60 60" fill="none" xmlns="http://www.w3.org/2000/svg">
<path d="M40.9 35C41.1 33.35 41.25 31.7 41.25 30C41.25 28.3 41.1 26.65 40.9 25H49.35C49.75 26.6 50 28.275 50 30C50 31.725 49.75 33.4 49.35 35M36.475 48.9C37.975 46.125 39.125 43.125 39.925 40H47.3C44.8779 44.1707 41.0353 47.33 36.475 48.9M35.85 35H24.15C23.9 33.35 23.75 31.7 23.75 30C23.75 28.3 23.9 26.625 24.15 25H35.85C36.075 26.625 36.25 28.3 36.25 30C36.25 31.7 36.075 33.35 35.85 35ZM30 49.9C27.925 46.9 26.25 43.575 25.225 40H34.775C33.75 43.575 32.075 46.9 30 49.9ZM20 20H12.7C15.0971 15.818 18.937 12.6537 23.5 11.1C22 13.875 20.875 16.875 20 20ZM12.7 40H20C20.875 43.125 22 46.125 23.5 48.9C18.9466 47.3292 15.1121 44.1693 12.7 40M10.65 35C10.25 33.4 10 31.725 10 30C10 28.275 10.25 26.6 10.65 25H19.1C18.9 26.65 18.75 28.3 18.75 30C18.75 31.7 18.9 33.35 19.1 35M30 10.075C32.075 13.075 33.75 16.425 34.775 20H25.225C26.25 16.425 27.925 13.075 30 10.075M47.3 20H39.925C39.1426 16.9036 37.9839 13.9147 36.475 11.1C41.075 12.675 44.9 15.85 47.3 20ZM30 5C16.175 5 5 16.25 5 30C5 36.6304 7.63392 42.9893 12.3223 47.6777C14.6438 49.9991 17.3998 51.8406 20.4329 53.097C23.4661 54.3534 26.717 55 30 55C36.6304 55 42.9893 52.3661 47.6777 47.6777C52.3661 42.9893 55 36.6304 55 30C55 26.717 54.3534 23.4661 53.097 20.4329C51.8406 17.3998 49.9991 14.6438 47.6777 12.3223C45.3562 10.0009 42.6002 8.15938 39.5671 6.90301C36.5339 5.64664 33.283 5 30 5V5Z" fill="#6F36BC"/>
</svg>
