<svg width="60" height="60" viewBox="0 0 60 60" fill="none" xmlns="http://www.w3.org/2000/svg">
<path d="M50.0742 16.916C50.4258 17.2676 50.625 17.7422 50.625 18.2402V54.375C50.625 55.4121 49.7871 56.25 48.75 56.25H11.25C10.2129 56.25 9.375 55.4121 9.375 54.375V5.625C9.375 4.58789 10.2129 3.75 11.25 3.75H36.1348C36.6328 3.75 37.1133 3.94922 37.4648 4.30078L50.0742 16.916V16.916ZM46.3008 19.1016L35.2734 8.07422V19.1016H46.3008ZM37.1027 37.3395C36.2133 37.3102 35.2676 37.3787 34.1936 37.5129C32.7697 36.6346 31.8111 35.4281 31.1303 33.6557L31.193 33.399L31.2656 33.0955C31.5176 32.0332 31.6529 31.258 31.6934 30.4764C31.7238 29.8863 31.691 29.342 31.5861 28.8375C31.3928 27.7482 30.6223 27.1113 29.6514 27.0721C28.7461 27.0352 27.9141 27.5408 27.7014 28.3242C27.3551 29.591 27.5578 31.258 28.292 34.101C27.3568 36.3305 26.1211 38.9443 25.292 40.4022C24.1852 40.9729 23.3232 41.492 22.599 42.0674C21.6439 42.8273 21.0475 43.6084 20.8834 44.4287C20.8037 44.809 20.9238 45.3059 21.1975 45.7131C21.508 46.1748 21.9756 46.4748 22.5363 46.5182C23.9514 46.6277 25.6904 45.1688 27.6105 41.874C27.8033 41.8096 28.0072 41.7416 28.2562 41.6572L28.9535 41.4217C29.3947 41.2729 29.7147 41.1662 30.0311 41.0637C31.4022 40.6172 32.4393 40.3354 33.3826 40.1748C35.0221 41.0525 36.917 41.6279 38.1932 41.6279C39.2467 41.6279 39.9586 41.0818 40.2158 40.2223C40.4414 39.4676 40.2627 38.5922 39.7775 38.1082C39.276 37.6154 38.3537 37.3799 37.1027 37.3395V37.3395ZM22.5721 44.8641V44.843L22.5797 44.823C22.6654 44.6014 22.7755 44.39 22.9078 44.1926C23.1586 43.807 23.5037 43.4016 23.9314 42.9697C24.1611 42.7383 24.4002 42.5127 24.6809 42.2596C24.7436 42.2033 25.1443 41.8465 25.2193 41.7762L25.8738 41.1668L25.398 41.9244C24.6762 43.0752 24.0234 43.9037 23.4645 44.4439C23.2588 44.6432 23.0777 44.7896 22.9312 44.884C22.8829 44.9163 22.8317 44.9441 22.7783 44.9672C22.7543 44.9771 22.7332 44.983 22.7121 44.9848C22.6898 44.9876 22.6672 44.9846 22.6465 44.976C22.6244 44.9667 22.6056 44.9512 22.5924 44.9313C22.5791 44.9114 22.5721 44.888 22.5721 44.8641V44.8641ZM29.9514 32.0742L29.8189 32.3086L29.7369 32.052C29.5553 31.476 29.4217 30.6082 29.3848 29.8254C29.3426 28.9348 29.4135 28.4004 29.6947 28.4004C30.0896 28.4004 30.2707 29.0332 30.2848 29.9854C30.2977 30.8221 30.1658 31.6928 29.9508 32.0742H29.9514ZM29.6109 35.4996L29.7006 35.2623L29.823 35.485C30.508 36.7295 31.3969 37.7678 32.3742 38.4914L32.5852 38.6473L32.3279 38.7C31.3711 38.898 30.4799 39.1957 29.2611 39.6873C29.3883 39.6357 27.9943 40.2064 27.6416 40.3418L27.334 40.4596L27.498 40.1736C28.2217 38.9139 28.8902 37.401 29.6104 35.4996H29.6109ZM38.8465 39.968C38.3859 40.1496 37.3945 39.9873 35.649 39.242L35.2061 39.0533L35.6865 39.0182C37.0518 38.9168 38.0186 38.9918 38.5822 39.198C38.8225 39.2859 38.9824 39.3967 39.0533 39.5232C39.0906 39.5832 39.1032 39.6552 39.0883 39.7242C39.0734 39.7932 39.0323 39.8537 38.9736 39.893C38.9364 39.9258 38.8932 39.9512 38.8465 39.968V39.968Z" fill="#6F36BC"/>
</svg>
