<svg width="24" height="24" viewBox="0 0 24 24" fill="none" xmlns="http://www.w3.org/2000/svg">
<g clip-path="url(#clip0_555_3969)">
<path d="M12.0004 0C9.20997 0.0197566 6.51323 1.00652 4.37192 2.79134C2.23061 4.57615 0.777928 7.048 0.262602 9.78362C-0.252724 12.5192 0.201367 15.3485 1.54712 17.7869C2.89288 20.2253 5.04658 22.1212 7.63947 23.15C7.46457 22.01 7.46457 20.85 7.63947 19.71L9.04298 13.71C8.82117 13.1675 8.71204 12.5858 8.72218 12C8.72218 10.34 9.72468 9.09 10.8976 9.09C11.1134 9.08704 11.3273 9.13013 11.525 9.21638C11.7227 9.30263 11.8997 9.43004 12.044 9.59009C12.1883 9.75013 12.2966 9.9391 12.3617 10.1443C12.4268 10.3495 12.4472 10.5663 12.4214 10.78C12.2042 12.1398 11.8688 13.4782 11.4189 14.78C11.3511 15.0439 11.3464 15.32 11.4051 15.5861C11.4638 15.8521 11.5843 16.1007 11.7569 16.3119C11.9296 16.523 12.1495 16.6907 12.399 16.8015C12.6485 16.9124 12.9206 16.9632 13.1934 16.95C15.3287 16.95 16.9728 14.7 16.9728 11.46C16.9934 10.8038 16.8768 10.1505 16.6304 9.54167C16.384 8.93285 16.0133 8.38187 15.5418 7.92378C15.0703 7.46569 14.5084 7.11053 13.8918 6.8809C13.2752 6.65127 12.6174 6.5522 11.9603 6.59C11.2583 6.56023 10.5576 6.67286 9.9005 6.92107C9.24343 7.16929 8.6437 7.54793 8.13759 8.03407C7.63149 8.5202 7.22955 9.10373 6.9561 9.74933C6.68266 10.3949 6.54339 11.0892 6.54674 11.79C6.54703 12.7728 6.8555 13.7308 7.42895 14.53C7.47273 14.5758 7.50401 14.632 7.51981 14.6933C7.53561 14.7545 7.53539 14.8188 7.51917 14.88L7.18834 16.2C7.12819 16.42 7.00789 16.47 6.77732 16.36C5.28358 15.67 4.34123 13.49 4.34123 11.72C4.34123 7.94 7.09812 4.47 12.2811 4.47C16.4515 4.47 19.6896 7.47 19.6896 11.39C19.6896 15.52 17.0831 18.85 13.444 18.85C12.9044 18.8658 12.3693 18.748 11.8865 18.5072C11.4036 18.2664 10.9881 17.9101 10.6771 17.47L9.92519 20.32C9.5661 21.4301 9.06399 22.4889 8.43145 23.47C9.58808 23.8226 10.7909 24.0012 12.0004 24C15.1909 24 18.2508 22.7357 20.5069 20.4853C22.763 18.2348 24.0304 15.1826 24.0304 12C24.0304 8.8174 22.763 5.76515 20.5069 3.51472C18.2508 1.26428 15.1909 0 12.0004 0V0Z" fill="#CFBCE9"/>
</g>
<defs>
<clipPath id="clip0_555_3969">
<rect width="24" height="24" fill="white"/>
</clipPath>
</defs>
</svg>
