<svg width="24" height="20" viewBox="0 0 24 20" fill="none" xmlns="http://www.w3.org/2000/svg">
<g clip-path="url(#clip0_555_3971)">
<path d="M7.54792 20.0007C16.6051 20.0007 21.5613 12.3068 21.5613 5.63184C21.5613 5.41163 21.5565 5.19417 21.5468 4.97946C22.5093 4.26529 23.3399 3.3811 24 2.36829C23.1017 2.77713 22.1484 3.04493 21.1723 3.1627C22.2002 2.53168 22.9697 1.53958 23.338 0.370682C22.3723 0.957954 21.3161 1.37237 20.2148 1.59617C19.4727 0.78512 18.4906 0.247664 17.4204 0.0670837C16.3503 -0.113496 15.2519 0.072884 14.2955 0.597341C13.3392 1.1218 12.5782 1.95505 12.1306 2.96796C11.683 3.98088 11.5736 5.1169 11.8196 6.19999C9.86196 6.09947 7.94683 5.57787 6.19859 4.66906C4.45034 3.76024 2.90807 2.48454 1.67195 0.924792C1.04208 2.03628 0.848963 3.3521 1.1319 4.60444C1.41483 5.85677 2.15255 6.95149 3.1949 7.66578C2.41351 7.6409 1.64932 7.42426 0.966443 7.03404C0.966443 7.05551 0.966443 7.07616 0.966443 7.09845C0.966458 8.26354 1.35938 9.39279 2.07862 10.2948C2.79785 11.1967 3.79914 11.816 4.91275 12.0475C4.49003 12.1646 4.05399 12.2234 3.61611 12.2225C3.3055 12.2224 2.99563 12.1917 2.69074 12.1309C3.00454 13.1348 3.61666 14.013 4.44141 14.6424C5.26616 15.2719 6.26224 15.6212 7.2902 15.6413C5.54587 17.0451 3.39166 17.8063 1.17423 17.8024C0.781811 17.8028 0.389715 17.7794 0 17.7322C2.25128 19.216 4.87169 20.0035 7.54792 20.0007Z" fill="#CFBCE9"/>
</g>
<defs>
<clipPath id="clip0_555_3971">
<rect width="24" height="20" fill="white"/>
</clipPath>
</defs>
</svg>
